G04 #@! TF.FileFunction,Soldermask,Bot*
%FSLAX46Y46*%
G04 Gerber Fmt 4.6, Leading zero omitted, Abs format (unit mm)*
G04 Created by KiCad (PCBNEW 4.0.0-rc1-stable) date 10/14/2015 5:21:08 AM*
%MOMM*%
G01*
G04 APERTURE LIST*
%ADD10C,0.100000*%
%ADD11C,1.700000*%
%ADD12O,3.500120X1.800860*%
%ADD13C,2.700000*%
%ADD14C,3.300000*%
%ADD15R,2.032000X1.727200*%
%ADD16O,2.032000X1.727200*%
%ADD17C,1.397000*%
%ADD18C,1.524000*%
G04 APERTURE END LIST*
D10*
D11*
X77112500Y-117147500D03*
X72112500Y-117147500D03*
X72112500Y-134947500D03*
X77112500Y-134947500D03*
D12*
X238442500Y-134302500D03*
X238442500Y-131762500D03*
X238442500Y-129222500D03*
X238442500Y-126682500D03*
D13*
X68155000Y-95250000D03*
X62655000Y-95250000D03*
X68155000Y-99450000D03*
X62655000Y-99450000D03*
X68155000Y-103650000D03*
X62655000Y-103650000D03*
X62655000Y-91050000D03*
X68155000Y-91050000D03*
X62655000Y-86850000D03*
X68155000Y-86850000D03*
D14*
X63115000Y-108350000D03*
X63115000Y-82150000D03*
D13*
X68155000Y-126047500D03*
X62655000Y-126047500D03*
X68155000Y-130247500D03*
X62655000Y-130247500D03*
X68155000Y-134447500D03*
X62655000Y-134447500D03*
X62655000Y-121847500D03*
X68155000Y-121847500D03*
X62655000Y-117647500D03*
X68155000Y-117647500D03*
D14*
X63115000Y-139147500D03*
X63115000Y-112947500D03*
D15*
X238125000Y-106680000D03*
D16*
X238125000Y-109220000D03*
X238125000Y-111760000D03*
X238125000Y-114300000D03*
X238125000Y-116840000D03*
X238125000Y-119380000D03*
D17*
X235585000Y-85090000D03*
X240665000Y-85090000D03*
X235585000Y-92710000D03*
X240665000Y-92710000D03*
X235585000Y-94932500D03*
X240665000Y-94932500D03*
X235585000Y-102552500D03*
X240665000Y-102552500D03*
D18*
X73025000Y-103822500D03*
X73025000Y-101282500D03*
X73025000Y-98742500D03*
X73025000Y-96202500D03*
X73025000Y-93662500D03*
X73025000Y-91122500D03*
X73025000Y-88582500D03*
X88265000Y-88582500D03*
X88265000Y-91122500D03*
X88265000Y-93662500D03*
X88265000Y-96202500D03*
X88265000Y-98742500D03*
X88265000Y-101282500D03*
X88265000Y-103822500D03*
X73025000Y-106362500D03*
X73025000Y-108902500D03*
X88265000Y-106362500D03*
X88265000Y-108902500D03*
X93345000Y-103822500D03*
X93345000Y-101282500D03*
X93345000Y-98742500D03*
X93345000Y-96202500D03*
X93345000Y-93662500D03*
X93345000Y-91122500D03*
X93345000Y-88582500D03*
X108585000Y-88582500D03*
X108585000Y-91122500D03*
X108585000Y-93662500D03*
X108585000Y-96202500D03*
X108585000Y-98742500D03*
X108585000Y-101282500D03*
X108585000Y-103822500D03*
X93345000Y-106362500D03*
X93345000Y-108902500D03*
X108585000Y-106362500D03*
X108585000Y-108902500D03*
X113665000Y-103822500D03*
X113665000Y-101282500D03*
X113665000Y-98742500D03*
X113665000Y-96202500D03*
X113665000Y-93662500D03*
X113665000Y-91122500D03*
X113665000Y-88582500D03*
X128905000Y-88582500D03*
X128905000Y-91122500D03*
X128905000Y-93662500D03*
X128905000Y-96202500D03*
X128905000Y-98742500D03*
X128905000Y-101282500D03*
X128905000Y-103822500D03*
X113665000Y-106362500D03*
X113665000Y-108902500D03*
X128905000Y-106362500D03*
X128905000Y-108902500D03*
X133985000Y-103822500D03*
X133985000Y-101282500D03*
X133985000Y-98742500D03*
X133985000Y-96202500D03*
X133985000Y-93662500D03*
X133985000Y-91122500D03*
X133985000Y-88582500D03*
X149225000Y-88582500D03*
X149225000Y-91122500D03*
X149225000Y-93662500D03*
X149225000Y-96202500D03*
X149225000Y-98742500D03*
X149225000Y-101282500D03*
X149225000Y-103822500D03*
X133985000Y-106362500D03*
X133985000Y-108902500D03*
X149225000Y-106362500D03*
X149225000Y-108902500D03*
X154305000Y-103822500D03*
X154305000Y-101282500D03*
X154305000Y-98742500D03*
X154305000Y-96202500D03*
X154305000Y-93662500D03*
X154305000Y-91122500D03*
X154305000Y-88582500D03*
X169545000Y-88582500D03*
X169545000Y-91122500D03*
X169545000Y-93662500D03*
X169545000Y-96202500D03*
X169545000Y-98742500D03*
X169545000Y-101282500D03*
X169545000Y-103822500D03*
X154305000Y-106362500D03*
X154305000Y-108902500D03*
X169545000Y-106362500D03*
X169545000Y-108902500D03*
X174625000Y-103822500D03*
X174625000Y-101282500D03*
X174625000Y-98742500D03*
X174625000Y-96202500D03*
X174625000Y-93662500D03*
X174625000Y-91122500D03*
X174625000Y-88582500D03*
X189865000Y-88582500D03*
X189865000Y-91122500D03*
X189865000Y-93662500D03*
X189865000Y-96202500D03*
X189865000Y-98742500D03*
X189865000Y-101282500D03*
X189865000Y-103822500D03*
X174625000Y-106362500D03*
X174625000Y-108902500D03*
X189865000Y-106362500D03*
X189865000Y-108902500D03*
X194945000Y-103822500D03*
X194945000Y-101282500D03*
X194945000Y-98742500D03*
X194945000Y-96202500D03*
X194945000Y-93662500D03*
X194945000Y-91122500D03*
X194945000Y-88582500D03*
X210185000Y-88582500D03*
X210185000Y-91122500D03*
X210185000Y-93662500D03*
X210185000Y-96202500D03*
X210185000Y-98742500D03*
X210185000Y-101282500D03*
X210185000Y-103822500D03*
X194945000Y-106362500D03*
X194945000Y-108902500D03*
X210185000Y-106362500D03*
X210185000Y-108902500D03*
X215265000Y-103822500D03*
X215265000Y-101282500D03*
X215265000Y-98742500D03*
X215265000Y-96202500D03*
X215265000Y-93662500D03*
X215265000Y-91122500D03*
X215265000Y-88582500D03*
X230505000Y-88582500D03*
X230505000Y-91122500D03*
X230505000Y-93662500D03*
X230505000Y-96202500D03*
X230505000Y-98742500D03*
X230505000Y-101282500D03*
X230505000Y-103822500D03*
X215265000Y-106362500D03*
X215265000Y-108902500D03*
X230505000Y-106362500D03*
X230505000Y-108902500D03*
X193992500Y-133555000D03*
X191452500Y-133555000D03*
X188912500Y-133555000D03*
X186372500Y-133555000D03*
X183832500Y-133555000D03*
X181292500Y-133555000D03*
X181292500Y-111555000D03*
X183832500Y-111555000D03*
X186372500Y-111555000D03*
X188912500Y-111555000D03*
X191452500Y-111555000D03*
X193992500Y-111555000D03*
X122237500Y-133555000D03*
X119697500Y-133555000D03*
X117157500Y-133555000D03*
X114617500Y-133555000D03*
X112077500Y-133555000D03*
X109537500Y-133555000D03*
X109537500Y-111555000D03*
X112077500Y-111555000D03*
X114617500Y-111555000D03*
X117157500Y-111555000D03*
X119697500Y-111555000D03*
X122237500Y-111555000D03*
M02*
