G04 #@! TF.FileFunction,Copper,L4,Bot,Signal*
%FSLAX46Y46*%
G04 Gerber Fmt 4.6, Leading zero omitted, Abs format (unit mm)*
G04 Created by KiCad (PCBNEW 4.0.0-rc1-stable) date 10/14/2015 5:21:08 AM*
%MOMM*%
G01*
G04 APERTURE LIST*
%ADD10C,0.100000*%
%ADD11C,1.700000*%
%ADD12O,3.500120X1.800860*%
%ADD13C,2.700000*%
%ADD14C,3.300000*%
%ADD15R,2.032000X1.727200*%
%ADD16O,2.032000X1.727200*%
%ADD17C,1.397000*%
%ADD18C,1.524000*%
%ADD19C,0.889000*%
%ADD20C,0.254000*%
%ADD21C,0.508000*%
%ADD22C,1.016000*%
%ADD23C,0.203800*%
G04 APERTURE END LIST*
D10*
D11*
X77112500Y-117147500D03*
X72112500Y-117147500D03*
X72112500Y-134947500D03*
X77112500Y-134947500D03*
D12*
X238442500Y-134302500D03*
X238442500Y-131762500D03*
X238442500Y-129222500D03*
X238442500Y-126682500D03*
D13*
X68155000Y-95250000D03*
X62655000Y-95250000D03*
X68155000Y-99450000D03*
X62655000Y-99450000D03*
X68155000Y-103650000D03*
X62655000Y-103650000D03*
X62655000Y-91050000D03*
X68155000Y-91050000D03*
X62655000Y-86850000D03*
X68155000Y-86850000D03*
D14*
X63115000Y-108350000D03*
X63115000Y-82150000D03*
D13*
X68155000Y-126047500D03*
X62655000Y-126047500D03*
X68155000Y-130247500D03*
X62655000Y-130247500D03*
X68155000Y-134447500D03*
X62655000Y-134447500D03*
X62655000Y-121847500D03*
X68155000Y-121847500D03*
X62655000Y-117647500D03*
X68155000Y-117647500D03*
D14*
X63115000Y-139147500D03*
X63115000Y-112947500D03*
D15*
X238125000Y-106680000D03*
D16*
X238125000Y-109220000D03*
X238125000Y-111760000D03*
X238125000Y-114300000D03*
X238125000Y-116840000D03*
X238125000Y-119380000D03*
D17*
X235585000Y-85090000D03*
X240665000Y-85090000D03*
X235585000Y-92710000D03*
X240665000Y-92710000D03*
X235585000Y-94932500D03*
X240665000Y-94932500D03*
X235585000Y-102552500D03*
X240665000Y-102552500D03*
D18*
X73025000Y-103822500D03*
X73025000Y-101282500D03*
X73025000Y-98742500D03*
X73025000Y-96202500D03*
X73025000Y-93662500D03*
X73025000Y-91122500D03*
X73025000Y-88582500D03*
X88265000Y-88582500D03*
X88265000Y-91122500D03*
X88265000Y-93662500D03*
X88265000Y-96202500D03*
X88265000Y-98742500D03*
X88265000Y-101282500D03*
X88265000Y-103822500D03*
X73025000Y-106362500D03*
X73025000Y-108902500D03*
X88265000Y-106362500D03*
X88265000Y-108902500D03*
X93345000Y-103822500D03*
X93345000Y-101282500D03*
X93345000Y-98742500D03*
X93345000Y-96202500D03*
X93345000Y-93662500D03*
X93345000Y-91122500D03*
X93345000Y-88582500D03*
X108585000Y-88582500D03*
X108585000Y-91122500D03*
X108585000Y-93662500D03*
X108585000Y-96202500D03*
X108585000Y-98742500D03*
X108585000Y-101282500D03*
X108585000Y-103822500D03*
X93345000Y-106362500D03*
X93345000Y-108902500D03*
X108585000Y-106362500D03*
X108585000Y-108902500D03*
X113665000Y-103822500D03*
X113665000Y-101282500D03*
X113665000Y-98742500D03*
X113665000Y-96202500D03*
X113665000Y-93662500D03*
X113665000Y-91122500D03*
X113665000Y-88582500D03*
X128905000Y-88582500D03*
X128905000Y-91122500D03*
X128905000Y-93662500D03*
X128905000Y-96202500D03*
X128905000Y-98742500D03*
X128905000Y-101282500D03*
X128905000Y-103822500D03*
X113665000Y-106362500D03*
X113665000Y-108902500D03*
X128905000Y-106362500D03*
X128905000Y-108902500D03*
X133985000Y-103822500D03*
X133985000Y-101282500D03*
X133985000Y-98742500D03*
X133985000Y-96202500D03*
X133985000Y-93662500D03*
X133985000Y-91122500D03*
X133985000Y-88582500D03*
X149225000Y-88582500D03*
X149225000Y-91122500D03*
X149225000Y-93662500D03*
X149225000Y-96202500D03*
X149225000Y-98742500D03*
X149225000Y-101282500D03*
X149225000Y-103822500D03*
X133985000Y-106362500D03*
X133985000Y-108902500D03*
X149225000Y-106362500D03*
X149225000Y-108902500D03*
X154305000Y-103822500D03*
X154305000Y-101282500D03*
X154305000Y-98742500D03*
X154305000Y-96202500D03*
X154305000Y-93662500D03*
X154305000Y-91122500D03*
X154305000Y-88582500D03*
X169545000Y-88582500D03*
X169545000Y-91122500D03*
X169545000Y-93662500D03*
X169545000Y-96202500D03*
X169545000Y-98742500D03*
X169545000Y-101282500D03*
X169545000Y-103822500D03*
X154305000Y-106362500D03*
X154305000Y-108902500D03*
X169545000Y-106362500D03*
X169545000Y-108902500D03*
X174625000Y-103822500D03*
X174625000Y-101282500D03*
X174625000Y-98742500D03*
X174625000Y-96202500D03*
X174625000Y-93662500D03*
X174625000Y-91122500D03*
X174625000Y-88582500D03*
X189865000Y-88582500D03*
X189865000Y-91122500D03*
X189865000Y-93662500D03*
X189865000Y-96202500D03*
X189865000Y-98742500D03*
X189865000Y-101282500D03*
X189865000Y-103822500D03*
X174625000Y-106362500D03*
X174625000Y-108902500D03*
X189865000Y-106362500D03*
X189865000Y-108902500D03*
X194945000Y-103822500D03*
X194945000Y-101282500D03*
X194945000Y-98742500D03*
X194945000Y-96202500D03*
X194945000Y-93662500D03*
X194945000Y-91122500D03*
X194945000Y-88582500D03*
X210185000Y-88582500D03*
X210185000Y-91122500D03*
X210185000Y-93662500D03*
X210185000Y-96202500D03*
X210185000Y-98742500D03*
X210185000Y-101282500D03*
X210185000Y-103822500D03*
X194945000Y-106362500D03*
X194945000Y-108902500D03*
X210185000Y-106362500D03*
X210185000Y-108902500D03*
X215265000Y-103822500D03*
X215265000Y-101282500D03*
X215265000Y-98742500D03*
X215265000Y-96202500D03*
X215265000Y-93662500D03*
X215265000Y-91122500D03*
X215265000Y-88582500D03*
X230505000Y-88582500D03*
X230505000Y-91122500D03*
X230505000Y-93662500D03*
X230505000Y-96202500D03*
X230505000Y-98742500D03*
X230505000Y-101282500D03*
X230505000Y-103822500D03*
X215265000Y-106362500D03*
X215265000Y-108902500D03*
X230505000Y-106362500D03*
X230505000Y-108902500D03*
X193992500Y-133555000D03*
X191452500Y-133555000D03*
X188912500Y-133555000D03*
X186372500Y-133555000D03*
X183832500Y-133555000D03*
X181292500Y-133555000D03*
X181292500Y-111555000D03*
X183832500Y-111555000D03*
X186372500Y-111555000D03*
X188912500Y-111555000D03*
X191452500Y-111555000D03*
X193992500Y-111555000D03*
X122237500Y-133555000D03*
X119697500Y-133555000D03*
X117157500Y-133555000D03*
X114617500Y-133555000D03*
X112077500Y-133555000D03*
X109537500Y-133555000D03*
X109537500Y-111555000D03*
X112077500Y-111555000D03*
X114617500Y-111555000D03*
X117157500Y-111555000D03*
X119697500Y-111555000D03*
X122237500Y-111555000D03*
D19*
X134937500Y-123825000D03*
X127317500Y-123825000D03*
X152717500Y-130175000D03*
X134937500Y-125095000D03*
X129857500Y-125095000D03*
X153987500Y-130175000D03*
X134937500Y-126365000D03*
X127317500Y-126365000D03*
X155257500Y-130175000D03*
X134937500Y-127635000D03*
X129857500Y-127635000D03*
X155257500Y-131445000D03*
X155257500Y-132715000D03*
X134937500Y-128905000D03*
X127317500Y-128905000D03*
X134937500Y-130175000D03*
X129857500Y-130175000D03*
X156527500Y-131445000D03*
X156210000Y-135255000D03*
X134937500Y-131445000D03*
X127317500Y-131445000D03*
X154940000Y-135255000D03*
X134937500Y-132715000D03*
X129857500Y-132715000D03*
X79375000Y-136525000D03*
X85407500Y-134620000D03*
X104140000Y-136207500D03*
X95885000Y-140652500D03*
X82232500Y-119062500D03*
X82232500Y-122237500D03*
X82232500Y-128587500D03*
X82232500Y-125412500D03*
X96837500Y-114300000D03*
X93662500Y-127952500D03*
X96837500Y-119062500D03*
X96837500Y-122237500D03*
X96837500Y-128587500D03*
X96837500Y-125412500D03*
X84137500Y-138430000D03*
X111760000Y-140652500D03*
X86360000Y-140652500D03*
X95885000Y-139382500D03*
X104140000Y-140652500D03*
X94615000Y-116522500D03*
X101282500Y-117475000D03*
X229235000Y-120967500D03*
X224790000Y-120967500D03*
X220345000Y-120967500D03*
X215900000Y-120967500D03*
X211455000Y-120967500D03*
X207010000Y-120967500D03*
X198120000Y-120967500D03*
X202565000Y-120967500D03*
X157480000Y-128905000D03*
X117792500Y-140652500D03*
X83185000Y-135255000D03*
X83185000Y-133985000D03*
X151447500Y-128587500D03*
X144780000Y-129222500D03*
X233997500Y-139700000D03*
X152082500Y-139700000D03*
X145097500Y-141287500D03*
X157480000Y-130175000D03*
X145097500Y-136207500D03*
X159385000Y-141605000D03*
X153035000Y-140335000D03*
X233045000Y-140335000D03*
X85407500Y-132715000D03*
X156210000Y-137477500D03*
X85407500Y-136525000D03*
X157480000Y-137477500D03*
X163512500Y-135890000D03*
X166370000Y-128587500D03*
X147955000Y-139700000D03*
X133032500Y-139700000D03*
X83185000Y-132715000D03*
X104140000Y-138430000D03*
X90487500Y-116522500D03*
X89852500Y-122555000D03*
X91440000Y-130810000D03*
X89852500Y-128270000D03*
X161607500Y-133032500D03*
X161607500Y-134302500D03*
X234950000Y-138747500D03*
X158115000Y-111125000D03*
X140335000Y-111125000D03*
X137160000Y-112077500D03*
X153352500Y-112077500D03*
X229870000Y-128905000D03*
X155575000Y-127635000D03*
X212090000Y-125095000D03*
X150812500Y-123825000D03*
X225425000Y-127952500D03*
X154940000Y-126682500D03*
X207645000Y-124142500D03*
X147637500Y-122872500D03*
X144780000Y-121920000D03*
X203200000Y-123190000D03*
X153670000Y-124777500D03*
X216535000Y-126047500D03*
X143510000Y-120967500D03*
X198755000Y-122237500D03*
X154305000Y-125730000D03*
X220980000Y-127000000D03*
X110490000Y-102552500D03*
X130810000Y-111442500D03*
X188595000Y-107632500D03*
X227647500Y-113347500D03*
X86677500Y-113347500D03*
X191452500Y-113347500D03*
X119697500Y-113347500D03*
X214312500Y-117157500D03*
X106997500Y-117157500D03*
X191452500Y-117157500D03*
X119697500Y-117157500D03*
X199707500Y-120015000D03*
X131127500Y-120015000D03*
X112077500Y-120015000D03*
X183832500Y-120015000D03*
X223202500Y-115252500D03*
X150812500Y-115252500D03*
X181292500Y-115252500D03*
X109537500Y-115252500D03*
X209867500Y-116205000D03*
X122237500Y-116205000D03*
X193992500Y-116205000D03*
X167957500Y-116205000D03*
X196532500Y-118110000D03*
X117157500Y-118110000D03*
X188912500Y-118110000D03*
X218757500Y-119062500D03*
X208597500Y-119062500D03*
X186372500Y-119062500D03*
X114617500Y-119062500D03*
X205422500Y-114300000D03*
X228917500Y-114300000D03*
X188912500Y-114300000D03*
X117157500Y-114300000D03*
D20*
X136207500Y-123825000D02*
X134937500Y-123825000D01*
X136207500Y-123825000D02*
X142557500Y-130175000D01*
X134937500Y-123825000D02*
X127317500Y-123825000D01*
X142557500Y-130175000D02*
X152717500Y-130175000D01*
X136207500Y-125095000D02*
X134937500Y-125095000D01*
X142240000Y-131127500D02*
X136207500Y-125095000D01*
X153035000Y-131127500D02*
X142240000Y-131127500D01*
X134937500Y-125095000D02*
X129857500Y-125095000D01*
X153987500Y-130175000D02*
X153035000Y-131127500D01*
X136207500Y-126365000D02*
X134937500Y-126365000D01*
X141605000Y-131762500D02*
X136207500Y-126365000D01*
X153670000Y-131762500D02*
X141605000Y-131762500D01*
X134937500Y-126365000D02*
X127317500Y-126365000D01*
X155257500Y-130175000D02*
X153670000Y-131762500D01*
X136207500Y-127635000D02*
X134937500Y-127635000D01*
X140970000Y-132397500D02*
X136207500Y-127635000D01*
X154305000Y-132397500D02*
X140970000Y-132397500D01*
X134937500Y-127635000D02*
X129857500Y-127635000D01*
X155257500Y-131445000D02*
X154305000Y-132397500D01*
X155257500Y-132715000D02*
X154940000Y-133032500D01*
X136207500Y-128905000D02*
X134937500Y-128905000D01*
X140335000Y-133032500D02*
X136207500Y-128905000D01*
X154940000Y-133032500D02*
X140335000Y-133032500D01*
X134937500Y-128905000D02*
X127317500Y-128905000D01*
X134937500Y-130175000D02*
X136252500Y-130175000D01*
X134937500Y-130175000D02*
X129857500Y-130175000D01*
X155575000Y-133667500D02*
X156527500Y-132715000D01*
X155575000Y-133667500D02*
X139745000Y-133667500D01*
X139745000Y-133667500D02*
X136252500Y-130175000D01*
X156527500Y-132715000D02*
X156527500Y-131445000D01*
X156210000Y-135255000D02*
X155257500Y-134302500D01*
X136107500Y-131445000D02*
X134937500Y-131445000D01*
X138965000Y-134302500D02*
X136107500Y-131445000D01*
X155257500Y-134302500D02*
X138965000Y-134302500D01*
X134937500Y-131445000D02*
X127317500Y-131445000D01*
X154940000Y-135255000D02*
X154622500Y-134937500D01*
X138430000Y-134937500D02*
X136207500Y-132715000D01*
X154622500Y-134937500D02*
X138430000Y-134937500D01*
X136207500Y-132715000D02*
X134937500Y-132715000D01*
X134937500Y-132715000D02*
X129857500Y-132715000D01*
X77112500Y-136802500D02*
X77112500Y-134947500D01*
X78740000Y-138430000D02*
X77112500Y-136802500D01*
X96202500Y-138430000D02*
X84137500Y-138430000D01*
X84137500Y-138430000D02*
X78740000Y-138430000D01*
X97155000Y-139382500D02*
X96202500Y-138430000D01*
X106680000Y-139382500D02*
X97155000Y-139382500D01*
X107950000Y-140652500D02*
X106680000Y-139382500D01*
X108585000Y-140652500D02*
X107950000Y-140652500D01*
X111760000Y-140652500D02*
X108585000Y-140652500D01*
X87630000Y-139382500D02*
X95885000Y-139382500D01*
X86360000Y-140652500D02*
X87630000Y-139382500D01*
D21*
X202565000Y-120967500D02*
X198120000Y-120967500D01*
D22*
X207010000Y-120967500D02*
X202565000Y-120967500D01*
X211455000Y-120967500D02*
X207010000Y-120967500D01*
X215900000Y-120967500D02*
X211455000Y-120967500D01*
X220345000Y-120967500D02*
X215900000Y-120967500D01*
X224790000Y-120967500D02*
X220345000Y-120967500D01*
X229235000Y-120967500D02*
X224790000Y-120967500D01*
D20*
X95885000Y-139382500D02*
X97155000Y-140652500D01*
X97155000Y-140652500D02*
X104140000Y-140652500D01*
X100330000Y-116522500D02*
X94615000Y-116522500D01*
X101282500Y-117475000D02*
X100330000Y-116522500D01*
X157480000Y-128905000D02*
X158432500Y-129857500D01*
X158432500Y-129857500D02*
X158432500Y-137795000D01*
X158432500Y-137795000D02*
X157391098Y-138836402D01*
X157391098Y-138836402D02*
X150406098Y-138836402D01*
X150406098Y-138836402D02*
X148590000Y-140652500D01*
X148590000Y-140652500D02*
X146050000Y-140652500D01*
X146050000Y-140652500D02*
X145732500Y-140335000D01*
X145732500Y-140335000D02*
X144462500Y-140335000D01*
X144462500Y-140335000D02*
X144145000Y-140652500D01*
X144145000Y-140652500D02*
X117792500Y-140652500D01*
D22*
X72112500Y-117147500D02*
X70802500Y-117147500D01*
X70802500Y-117147500D02*
X70802500Y-117157500D01*
X77112500Y-117147500D02*
X72112500Y-117147500D01*
X68155000Y-91050000D02*
X70095000Y-91050000D01*
X70802500Y-91757500D02*
X70802500Y-117157500D01*
X70095000Y-91050000D02*
X70802500Y-91757500D01*
X69922500Y-121847500D02*
X68155000Y-121847500D01*
X70802500Y-120967500D02*
X69922500Y-121847500D01*
X70802500Y-117157500D02*
X70802500Y-120967500D01*
X68155000Y-121847500D02*
X69287500Y-121847500D01*
X68155000Y-121847500D02*
X62655000Y-121847500D01*
X62655000Y-91050000D02*
X68155000Y-91050000D01*
D20*
X69532500Y-133032500D02*
X68155000Y-134447500D01*
X80962500Y-133032500D02*
X69532500Y-133032500D01*
X83185000Y-135255000D02*
X80962500Y-133032500D01*
X82232500Y-133032500D02*
X81597500Y-132397500D01*
X64770000Y-132397500D02*
X62655000Y-134447500D01*
X83185000Y-133985000D02*
X82232500Y-133032500D01*
X81597500Y-132397500D02*
X64770000Y-132397500D01*
X151447500Y-128587500D02*
X150495000Y-129540000D01*
X150495000Y-129540000D02*
X145097500Y-129540000D01*
X145097500Y-129540000D02*
X144780000Y-129222500D01*
X144780000Y-129222500D02*
X145097500Y-129540000D01*
X145097500Y-129540000D02*
X150495000Y-129540000D01*
X233680000Y-139382500D02*
X152400000Y-139382500D01*
X233997500Y-139700000D02*
X233680000Y-139382500D01*
X152400000Y-139382500D02*
X152082500Y-139700000D01*
X240665000Y-102552500D02*
X240665000Y-94932500D01*
X234950000Y-141287500D02*
X232727500Y-141287500D01*
X153670000Y-141287500D02*
X146685000Y-141287500D01*
X154305000Y-140652500D02*
X153670000Y-141287500D01*
X232092500Y-140652500D02*
X154305000Y-140652500D01*
X232727500Y-141287500D02*
X232092500Y-140652500D01*
X240665000Y-102552500D02*
X240665000Y-135572500D01*
X146685000Y-141287500D02*
X145097500Y-141287500D01*
X240665000Y-135572500D02*
X234950000Y-141287500D01*
X157480000Y-135572500D02*
X157480000Y-130175000D01*
X156845000Y-136207500D02*
X157480000Y-135572500D01*
X156210000Y-136207500D02*
X156845000Y-136207500D01*
X145097500Y-136207500D02*
X156210000Y-136207500D01*
X240665000Y-92710000D02*
X240665000Y-85090000D01*
X234950000Y-141922500D02*
X232727500Y-141922500D01*
X159702500Y-141287500D02*
X159385000Y-141605000D01*
X232092500Y-141287500D02*
X159702500Y-141287500D01*
X232727500Y-141922500D02*
X232092500Y-141287500D01*
X240665000Y-92710000D02*
X241935000Y-93980000D01*
X241935000Y-134937500D02*
X234950000Y-141922500D01*
X241935000Y-93980000D02*
X241935000Y-134937500D01*
X233045000Y-140335000D02*
X232727500Y-140017500D01*
X153352500Y-140017500D02*
X153035000Y-140335000D01*
X232727500Y-140017500D02*
X153352500Y-140017500D01*
X85407500Y-132715000D02*
X88265000Y-135572500D01*
X131445000Y-137477500D02*
X156210000Y-137477500D01*
X125412500Y-131445000D02*
X131445000Y-137477500D01*
X105727500Y-131445000D02*
X125412500Y-131445000D01*
X101600000Y-135572500D02*
X105727500Y-131445000D01*
X88265000Y-135572500D02*
X101600000Y-135572500D01*
X85407500Y-136525000D02*
X85407500Y-136525000D01*
X101600000Y-136525000D02*
X85407500Y-136525000D01*
X106045000Y-132080000D02*
X101600000Y-136525000D01*
X125095000Y-132080000D02*
X106045000Y-132080000D01*
X131445000Y-138430000D02*
X125095000Y-132080000D01*
X156527500Y-138430000D02*
X131445000Y-138430000D01*
X157480000Y-137477500D02*
X156527500Y-138430000D01*
X163512500Y-135890000D02*
X163512500Y-135890000D01*
X166370000Y-133032500D02*
X163512500Y-135890000D01*
X166370000Y-128587500D02*
X166370000Y-133032500D01*
X133032500Y-139700000D02*
X147955000Y-139700000D01*
X104140000Y-138430000D02*
X106680000Y-138430000D01*
X107950000Y-139700000D02*
X133032500Y-139700000D01*
X106680000Y-138430000D02*
X107950000Y-139700000D01*
X92710000Y-137795000D02*
X103505000Y-137795000D01*
X83185000Y-132715000D02*
X84455000Y-133985000D01*
X84455000Y-133985000D02*
X84455000Y-137160000D01*
X84455000Y-137160000D02*
X85090000Y-137795000D01*
X85090000Y-137795000D02*
X92710000Y-137795000D01*
X103505000Y-137795000D02*
X104140000Y-138430000D01*
X90487500Y-116522500D02*
X89852500Y-117157500D01*
X89852500Y-117157500D02*
X89852500Y-122555000D01*
X91440000Y-129857500D02*
X91440000Y-130810000D01*
X89852500Y-128270000D02*
X91440000Y-129857500D01*
X238442500Y-129222500D02*
X235902500Y-129222500D01*
X234950000Y-130492500D02*
X234950000Y-137160000D01*
X235902500Y-129222500D02*
X234950000Y-130175000D01*
X234950000Y-130175000D02*
X234950000Y-130492500D01*
X162560000Y-133985000D02*
X161607500Y-133032500D01*
X162560000Y-137160000D02*
X162560000Y-133985000D01*
X163512500Y-138112500D02*
X162560000Y-137160000D01*
X233997500Y-138112500D02*
X163512500Y-138112500D01*
X234950000Y-137160000D02*
X233997500Y-138112500D01*
X161607500Y-137160000D02*
X161607500Y-134302500D01*
X163195000Y-138747500D02*
X161607500Y-137160000D01*
X163512500Y-138747500D02*
X163195000Y-138747500D01*
X234950000Y-138747500D02*
X163512500Y-138747500D01*
D22*
X62655000Y-86850000D02*
X59517500Y-86850000D01*
X59227500Y-117647500D02*
X58737500Y-117157500D01*
X58737500Y-117157500D02*
X58737500Y-111125000D01*
X59227500Y-117647500D02*
X62655000Y-117647500D01*
X58737500Y-87630000D02*
X58737500Y-111125000D01*
X59517500Y-86850000D02*
X58737500Y-87630000D01*
X68155000Y-117647500D02*
X62655000Y-117647500D01*
X68155000Y-86850000D02*
X62655000Y-86850000D01*
D20*
X158115000Y-111125000D02*
X140335000Y-111125000D01*
X153352500Y-112077500D02*
X141922500Y-112077500D01*
X141922500Y-112077500D02*
X137160000Y-112077500D01*
X155575000Y-127635000D02*
X194627500Y-127635000D01*
X194627500Y-127635000D02*
X195897500Y-128905000D01*
X195897500Y-128905000D02*
X229870000Y-128905000D01*
X150812500Y-123825000D02*
X194627500Y-123825000D01*
X194627500Y-123825000D02*
X195941250Y-125095000D01*
X195941250Y-125095000D02*
X212090000Y-125095000D01*
X154940000Y-126682500D02*
X194627500Y-126682500D01*
X194627500Y-126682500D02*
X195897500Y-127952500D01*
X195897500Y-127952500D02*
X225425000Y-127952500D01*
X147637500Y-122872500D02*
X194627500Y-122872500D01*
X194627500Y-122872500D02*
X195941250Y-124142500D01*
X195941250Y-124142500D02*
X207645000Y-124142500D01*
X144780000Y-121920000D02*
X194627500Y-121920000D01*
X194627500Y-121920000D02*
X195897500Y-123190000D01*
X195897500Y-123190000D02*
X203200000Y-123190000D01*
X153670000Y-124777500D02*
X194627500Y-124777500D01*
X194627500Y-124777500D02*
X195941250Y-126047500D01*
X195941250Y-126047500D02*
X216535000Y-126047500D01*
X143510000Y-120967500D02*
X194627500Y-120967500D01*
X194627500Y-120967500D02*
X195897500Y-122237500D01*
X195897500Y-122237500D02*
X198755000Y-122237500D01*
X154305000Y-125730000D02*
X194627500Y-125730000D01*
X194627500Y-125730000D02*
X195897500Y-127000000D01*
X195897500Y-127000000D02*
X220980000Y-127000000D01*
X194945000Y-103822500D02*
X201930000Y-103822500D01*
X213360000Y-103822500D02*
X215265000Y-103822500D01*
X212090000Y-102552500D02*
X213360000Y-103822500D01*
X203200000Y-102552500D02*
X212090000Y-102552500D01*
X201930000Y-103822500D02*
X203200000Y-102552500D01*
X174625000Y-103822500D02*
X181610000Y-103822500D01*
X193040000Y-103822500D02*
X194945000Y-103822500D01*
X191770000Y-102552500D02*
X193040000Y-103822500D01*
X182880000Y-102552500D02*
X191770000Y-102552500D01*
X181610000Y-103822500D02*
X182880000Y-102552500D01*
X154305000Y-103822500D02*
X161290000Y-103822500D01*
X172720000Y-103822500D02*
X174625000Y-103822500D01*
X171450000Y-102552500D02*
X172720000Y-103822500D01*
X162560000Y-102552500D02*
X171450000Y-102552500D01*
X161290000Y-103822500D02*
X162560000Y-102552500D01*
X154305000Y-103822500D02*
X152400000Y-103822500D01*
X140970000Y-103822500D02*
X133985000Y-103822500D01*
X142240000Y-102552500D02*
X140970000Y-103822500D01*
X151130000Y-102552500D02*
X142240000Y-102552500D01*
X152400000Y-103822500D02*
X151130000Y-102552500D01*
X133985000Y-103822500D02*
X132080000Y-103822500D01*
X120650000Y-103822500D02*
X113665000Y-103822500D01*
X121920000Y-102552500D02*
X120650000Y-103822500D01*
X130810000Y-102552500D02*
X121920000Y-102552500D01*
X132080000Y-103822500D02*
X130810000Y-102552500D01*
X113665000Y-103822500D02*
X111760000Y-103822500D01*
X100330000Y-103822500D02*
X93345000Y-103822500D01*
X101600000Y-102552500D02*
X100330000Y-103822500D01*
X110490000Y-102552500D02*
X101600000Y-102552500D01*
X111760000Y-103822500D02*
X110490000Y-102552500D01*
X93345000Y-103822500D02*
X91440000Y-103822500D01*
X80010000Y-103822500D02*
X73025000Y-103822500D01*
X81280000Y-102552500D02*
X80010000Y-103822500D01*
X90170000Y-102552500D02*
X81280000Y-102552500D01*
X91440000Y-103822500D02*
X90170000Y-102552500D01*
X80010000Y-101282500D02*
X73025000Y-101282500D01*
X81280000Y-100012500D02*
X80010000Y-101282500D01*
X90170000Y-100012500D02*
X81280000Y-100012500D01*
X194945000Y-101282500D02*
X201930000Y-101282500D01*
X213360000Y-101282500D02*
X215265000Y-101282500D01*
X212090000Y-100012500D02*
X213360000Y-101282500D01*
X203200000Y-100012500D02*
X212090000Y-100012500D01*
X201930000Y-101282500D02*
X203200000Y-100012500D01*
X174625000Y-101282500D02*
X181610000Y-101282500D01*
X193040000Y-101282500D02*
X194945000Y-101282500D01*
X191770000Y-100012500D02*
X193040000Y-101282500D01*
X182880000Y-100012500D02*
X191770000Y-100012500D01*
X181610000Y-101282500D02*
X182880000Y-100012500D01*
X154305000Y-101282500D02*
X161290000Y-101282500D01*
X172720000Y-101282500D02*
X174625000Y-101282500D01*
X171450000Y-100012500D02*
X172720000Y-101282500D01*
X162560000Y-100012500D02*
X171450000Y-100012500D01*
X161290000Y-101282500D02*
X162560000Y-100012500D01*
X154305000Y-101282500D02*
X152400000Y-101282500D01*
X140970000Y-101282500D02*
X133985000Y-101282500D01*
X142240000Y-100012500D02*
X140970000Y-101282500D01*
X151130000Y-100012500D02*
X142240000Y-100012500D01*
X152400000Y-101282500D02*
X151130000Y-100012500D01*
X133985000Y-101282500D02*
X132080000Y-101282500D01*
X120650000Y-101282500D02*
X113665000Y-101282500D01*
X121920000Y-100012500D02*
X120650000Y-101282500D01*
X130810000Y-100012500D02*
X121920000Y-100012500D01*
X132080000Y-101282500D02*
X130810000Y-100012500D01*
X113665000Y-101282500D02*
X111760000Y-101282500D01*
X100330000Y-101282500D02*
X93345000Y-101282500D01*
X101600000Y-100012500D02*
X100330000Y-101282500D01*
X110490000Y-100012500D02*
X101600000Y-100012500D01*
X111760000Y-101282500D02*
X110490000Y-100012500D01*
X93345000Y-101282500D02*
X91440000Y-101282500D01*
X91440000Y-101282500D02*
X90170000Y-100012500D01*
X194945000Y-98742500D02*
X201930000Y-98742500D01*
X213360000Y-98742500D02*
X215265000Y-98742500D01*
X212090000Y-97472500D02*
X213360000Y-98742500D01*
X203200000Y-97472500D02*
X212090000Y-97472500D01*
X201930000Y-98742500D02*
X203200000Y-97472500D01*
X174625000Y-98742500D02*
X181610000Y-98742500D01*
X193040000Y-98742500D02*
X194945000Y-98742500D01*
X191770000Y-97472500D02*
X193040000Y-98742500D01*
X182880000Y-97472500D02*
X191770000Y-97472500D01*
X181610000Y-98742500D02*
X182880000Y-97472500D01*
X154305000Y-98742500D02*
X161290000Y-98742500D01*
X172720000Y-98742500D02*
X174625000Y-98742500D01*
X171450000Y-97472500D02*
X172720000Y-98742500D01*
X162560000Y-97472500D02*
X171450000Y-97472500D01*
X161290000Y-98742500D02*
X162560000Y-97472500D01*
X154305000Y-98742500D02*
X152400000Y-98742500D01*
X140970000Y-98742500D02*
X133985000Y-98742500D01*
X142240000Y-97472500D02*
X140970000Y-98742500D01*
X151130000Y-97472500D02*
X142240000Y-97472500D01*
X152400000Y-98742500D02*
X151130000Y-97472500D01*
X133985000Y-98742500D02*
X132080000Y-98742500D01*
X120650000Y-98742500D02*
X113665000Y-98742500D01*
X121920000Y-97472500D02*
X120650000Y-98742500D01*
X130810000Y-97472500D02*
X121920000Y-97472500D01*
X132080000Y-98742500D02*
X130810000Y-97472500D01*
X93345000Y-98742500D02*
X100330000Y-98742500D01*
X111760000Y-98742500D02*
X113665000Y-98742500D01*
X110490000Y-97472500D02*
X111760000Y-98742500D01*
X101600000Y-97472500D02*
X110490000Y-97472500D01*
X100330000Y-98742500D02*
X101600000Y-97472500D01*
X93345000Y-98742500D02*
X91440000Y-98742500D01*
X80010000Y-98742500D02*
X73025000Y-98742500D01*
X81280000Y-97472500D02*
X80010000Y-98742500D01*
X90170000Y-97472500D02*
X81280000Y-97472500D01*
X91440000Y-98742500D02*
X90170000Y-97472500D01*
X194945000Y-96202500D02*
X201930000Y-96202500D01*
X213360000Y-96202500D02*
X215265000Y-96202500D01*
X212090000Y-94932500D02*
X213360000Y-96202500D01*
X203200000Y-94932500D02*
X212090000Y-94932500D01*
X201930000Y-96202500D02*
X203200000Y-94932500D01*
X174625000Y-96202500D02*
X181610000Y-96202500D01*
X193040000Y-96202500D02*
X194945000Y-96202500D01*
X191770000Y-94932500D02*
X193040000Y-96202500D01*
X182880000Y-94932500D02*
X191770000Y-94932500D01*
X181610000Y-96202500D02*
X182880000Y-94932500D01*
X154305000Y-96202500D02*
X161290000Y-96202500D01*
X172720000Y-96202500D02*
X174625000Y-96202500D01*
X171450000Y-94932500D02*
X172720000Y-96202500D01*
X162560000Y-94932500D02*
X171450000Y-94932500D01*
X161290000Y-96202500D02*
X162560000Y-94932500D01*
X154305000Y-96202500D02*
X152400000Y-96202500D01*
X140970000Y-96202500D02*
X133985000Y-96202500D01*
X142240000Y-94932500D02*
X140970000Y-96202500D01*
X151130000Y-94932500D02*
X142240000Y-94932500D01*
X152400000Y-96202500D02*
X151130000Y-94932500D01*
X133985000Y-96202500D02*
X132080000Y-96202500D01*
X120650000Y-96202500D02*
X113665000Y-96202500D01*
X121920000Y-94932500D02*
X120650000Y-96202500D01*
X130810000Y-94932500D02*
X121920000Y-94932500D01*
X132080000Y-96202500D02*
X130810000Y-94932500D01*
X113665000Y-96202500D02*
X111760000Y-96202500D01*
X100330000Y-96202500D02*
X93345000Y-96202500D01*
X101600000Y-94932500D02*
X100330000Y-96202500D01*
X110490000Y-94932500D02*
X101600000Y-94932500D01*
X111760000Y-96202500D02*
X110490000Y-94932500D01*
X93345000Y-96202500D02*
X91440000Y-96202500D01*
X80010000Y-96202500D02*
X73025000Y-96202500D01*
X81280000Y-94932500D02*
X80010000Y-96202500D01*
X90170000Y-94932500D02*
X81280000Y-94932500D01*
X91440000Y-96202500D02*
X90170000Y-94932500D01*
X194945000Y-93662500D02*
X201930000Y-93662500D01*
X213360000Y-93662500D02*
X215265000Y-93662500D01*
X212090000Y-92392500D02*
X213360000Y-93662500D01*
X203200000Y-92392500D02*
X212090000Y-92392500D01*
X201930000Y-93662500D02*
X203200000Y-92392500D01*
X174625000Y-93662500D02*
X181610000Y-93662500D01*
X193040000Y-93662500D02*
X194945000Y-93662500D01*
X191770000Y-92392500D02*
X193040000Y-93662500D01*
X182880000Y-92392500D02*
X191770000Y-92392500D01*
X181610000Y-93662500D02*
X182880000Y-92392500D01*
X154305000Y-93662500D02*
X161290000Y-93662500D01*
X172720000Y-93662500D02*
X174625000Y-93662500D01*
X171450000Y-92392500D02*
X172720000Y-93662500D01*
X162560000Y-92392500D02*
X171450000Y-92392500D01*
X161290000Y-93662500D02*
X162560000Y-92392500D01*
X133985000Y-93662500D02*
X140970000Y-93662500D01*
X152400000Y-93662500D02*
X154305000Y-93662500D01*
X151130000Y-92392500D02*
X152400000Y-93662500D01*
X142240000Y-92392500D02*
X151130000Y-92392500D01*
X140970000Y-93662500D02*
X142240000Y-92392500D01*
X133985000Y-93662500D02*
X132080000Y-93662500D01*
X120650000Y-93662500D02*
X113665000Y-93662500D01*
X121920000Y-92392500D02*
X120650000Y-93662500D01*
X130810000Y-92392500D02*
X121920000Y-92392500D01*
X132080000Y-93662500D02*
X130810000Y-92392500D01*
X93345000Y-93662500D02*
X100330000Y-93662500D01*
X111760000Y-93662500D02*
X113665000Y-93662500D01*
X110490000Y-92392500D02*
X111760000Y-93662500D01*
X101600000Y-92392500D02*
X110490000Y-92392500D01*
X100330000Y-93662500D02*
X101600000Y-92392500D01*
X93345000Y-93662500D02*
X91440000Y-93662500D01*
X80010000Y-93662500D02*
X73025000Y-93662500D01*
X81280000Y-92392500D02*
X80010000Y-93662500D01*
X90170000Y-92392500D02*
X81280000Y-92392500D01*
X91440000Y-93662500D02*
X90170000Y-92392500D01*
X194945000Y-91122500D02*
X201930000Y-91122500D01*
X213360000Y-91122500D02*
X215265000Y-91122500D01*
X212090000Y-89852500D02*
X213360000Y-91122500D01*
X203200000Y-89852500D02*
X212090000Y-89852500D01*
X201930000Y-91122500D02*
X203200000Y-89852500D01*
X174625000Y-91122500D02*
X181610000Y-91122500D01*
X193040000Y-91122500D02*
X194945000Y-91122500D01*
X191770000Y-89852500D02*
X193040000Y-91122500D01*
X182880000Y-89852500D02*
X191770000Y-89852500D01*
X181610000Y-91122500D02*
X182880000Y-89852500D01*
X154305000Y-91122500D02*
X161290000Y-91122500D01*
X172720000Y-91122500D02*
X174625000Y-91122500D01*
X171450000Y-89852500D02*
X172720000Y-91122500D01*
X162560000Y-89852500D02*
X171450000Y-89852500D01*
X161290000Y-91122500D02*
X162560000Y-89852500D01*
X154305000Y-91122500D02*
X152400000Y-91122500D01*
X140970000Y-91122500D02*
X133985000Y-91122500D01*
X142240000Y-89852500D02*
X140970000Y-91122500D01*
X151130000Y-89852500D02*
X142240000Y-89852500D01*
X152400000Y-91122500D02*
X151130000Y-89852500D01*
X133985000Y-91122500D02*
X132080000Y-91122500D01*
X120650000Y-91122500D02*
X113665000Y-91122500D01*
X121920000Y-89852500D02*
X120650000Y-91122500D01*
X130810000Y-89852500D02*
X121920000Y-89852500D01*
X132080000Y-91122500D02*
X130810000Y-89852500D01*
X113665000Y-91122500D02*
X111760000Y-91122500D01*
X100330000Y-91122500D02*
X93345000Y-91122500D01*
X101600000Y-89852500D02*
X100330000Y-91122500D01*
X110490000Y-89852500D02*
X101600000Y-89852500D01*
X111760000Y-91122500D02*
X110490000Y-89852500D01*
X93345000Y-91122500D02*
X91440000Y-91122500D01*
X80010000Y-91122500D02*
X73025000Y-91122500D01*
X81280000Y-89852500D02*
X80010000Y-91122500D01*
X90170000Y-89852500D02*
X81280000Y-89852500D01*
X91440000Y-91122500D02*
X90170000Y-89852500D01*
X194945000Y-88582500D02*
X201930000Y-88582500D01*
X213360000Y-88582500D02*
X215265000Y-88582500D01*
X212090000Y-87312500D02*
X213360000Y-88582500D01*
X203200000Y-87312500D02*
X212090000Y-87312500D01*
X201930000Y-88582500D02*
X203200000Y-87312500D01*
X174625000Y-88582500D02*
X181610000Y-88582500D01*
X193040000Y-88582500D02*
X194945000Y-88582500D01*
X191770000Y-87312500D02*
X193040000Y-88582500D01*
X182880000Y-87312500D02*
X191770000Y-87312500D01*
X181610000Y-88582500D02*
X182880000Y-87312500D01*
X154305000Y-88582500D02*
X161290000Y-88582500D01*
X172720000Y-88582500D02*
X174625000Y-88582500D01*
X171450000Y-87312500D02*
X172720000Y-88582500D01*
X162560000Y-87312500D02*
X171450000Y-87312500D01*
X161290000Y-88582500D02*
X162560000Y-87312500D01*
X154305000Y-88582500D02*
X152400000Y-88582500D01*
X140970000Y-88582500D02*
X133985000Y-88582500D01*
X142240000Y-87312500D02*
X140970000Y-88582500D01*
X151130000Y-87312500D02*
X142240000Y-87312500D01*
X152400000Y-88582500D02*
X151130000Y-87312500D01*
X133985000Y-88582500D02*
X132080000Y-88582500D01*
X120650000Y-88582500D02*
X113665000Y-88582500D01*
X121920000Y-87312500D02*
X120650000Y-88582500D01*
X130810000Y-87312500D02*
X121920000Y-87312500D01*
X132080000Y-88582500D02*
X130810000Y-87312500D01*
X113665000Y-88582500D02*
X111760000Y-88582500D01*
X100330000Y-88582500D02*
X93345000Y-88582500D01*
X101600000Y-87312500D02*
X100330000Y-88582500D01*
X110490000Y-87312500D02*
X101600000Y-87312500D01*
X111760000Y-88582500D02*
X110490000Y-87312500D01*
X93345000Y-88582500D02*
X91440000Y-88582500D01*
X80010000Y-88582500D02*
X73025000Y-88582500D01*
X81280000Y-87312500D02*
X80010000Y-88582500D01*
X90170000Y-87312500D02*
X81280000Y-87312500D01*
X91440000Y-88582500D02*
X90170000Y-87312500D01*
X210185000Y-88582500D02*
X212090000Y-88582500D01*
X223520000Y-88582500D02*
X230505000Y-88582500D01*
X222250000Y-89852500D02*
X223520000Y-88582500D01*
X213360000Y-89852500D02*
X222250000Y-89852500D01*
X212090000Y-88582500D02*
X213360000Y-89852500D01*
X189865000Y-88582500D02*
X191770000Y-88582500D01*
X203200000Y-88582500D02*
X210185000Y-88582500D01*
X201930000Y-89852500D02*
X203200000Y-88582500D01*
X193040000Y-89852500D02*
X201930000Y-89852500D01*
X191770000Y-88582500D02*
X193040000Y-89852500D01*
X169545000Y-88582500D02*
X171450000Y-88582500D01*
X182880000Y-88582500D02*
X189865000Y-88582500D01*
X181610000Y-89852500D02*
X182880000Y-88582500D01*
X172720000Y-89852500D02*
X181610000Y-89852500D01*
X171450000Y-88582500D02*
X172720000Y-89852500D01*
X169545000Y-88582500D02*
X162560000Y-88582500D01*
X151130000Y-88582500D02*
X149225000Y-88582500D01*
X152400000Y-89852500D02*
X151130000Y-88582500D01*
X161290000Y-89852500D02*
X152400000Y-89852500D01*
X162560000Y-88582500D02*
X161290000Y-89852500D01*
X128905000Y-88582500D02*
X130810000Y-88582500D01*
X142240000Y-88582500D02*
X149225000Y-88582500D01*
X140970000Y-89852500D02*
X142240000Y-88582500D01*
X132080000Y-89852500D02*
X140970000Y-89852500D01*
X130810000Y-88582500D02*
X132080000Y-89852500D01*
X108585000Y-88582500D02*
X110490000Y-88582500D01*
X121920000Y-88582500D02*
X128905000Y-88582500D01*
X120650000Y-89852500D02*
X121920000Y-88582500D01*
X111760000Y-89852500D02*
X120650000Y-89852500D01*
X110490000Y-88582500D02*
X111760000Y-89852500D01*
X108585000Y-88582500D02*
X101600000Y-88582500D01*
X90170000Y-88582500D02*
X88265000Y-88582500D01*
X91440000Y-89852500D02*
X90170000Y-88582500D01*
X100330000Y-89852500D02*
X91440000Y-89852500D01*
X101600000Y-88582500D02*
X100330000Y-89852500D01*
X122237500Y-111555000D02*
X130697500Y-111555000D01*
X130697500Y-111555000D02*
X130810000Y-111442500D01*
X210185000Y-91122500D02*
X212090000Y-91122500D01*
X223520000Y-91122500D02*
X230505000Y-91122500D01*
X222250000Y-92392500D02*
X223520000Y-91122500D01*
X213360000Y-92392500D02*
X222250000Y-92392500D01*
X212090000Y-91122500D02*
X213360000Y-92392500D01*
X189865000Y-91122500D02*
X191770000Y-91122500D01*
X203200000Y-91122500D02*
X210185000Y-91122500D01*
X201930000Y-92392500D02*
X203200000Y-91122500D01*
X193040000Y-92392500D02*
X201930000Y-92392500D01*
X191770000Y-91122500D02*
X193040000Y-92392500D01*
X169545000Y-91122500D02*
X171450000Y-91122500D01*
X182880000Y-91122500D02*
X189865000Y-91122500D01*
X181610000Y-92392500D02*
X182880000Y-91122500D01*
X172720000Y-92392500D02*
X181610000Y-92392500D01*
X171450000Y-91122500D02*
X172720000Y-92392500D01*
X169545000Y-91122500D02*
X162560000Y-91122500D01*
X151130000Y-91122500D02*
X149225000Y-91122500D01*
X152400000Y-92392500D02*
X151130000Y-91122500D01*
X161290000Y-92392500D02*
X152400000Y-92392500D01*
X162560000Y-91122500D02*
X161290000Y-92392500D01*
X149225000Y-91122500D02*
X142240000Y-91122500D01*
X130810000Y-91122500D02*
X128905000Y-91122500D01*
X132080000Y-92392500D02*
X130810000Y-91122500D01*
X140970000Y-92392500D02*
X132080000Y-92392500D01*
X142240000Y-91122500D02*
X140970000Y-92392500D01*
X108585000Y-91122500D02*
X110490000Y-91122500D01*
X121920000Y-91122500D02*
X128905000Y-91122500D01*
X120650000Y-92392500D02*
X121920000Y-91122500D01*
X111760000Y-92392500D02*
X120650000Y-92392500D01*
X110490000Y-91122500D02*
X111760000Y-92392500D01*
X108585000Y-91122500D02*
X101600000Y-91122500D01*
X90170000Y-91122500D02*
X88265000Y-91122500D01*
X91440000Y-92392500D02*
X90170000Y-91122500D01*
X100330000Y-92392500D02*
X91440000Y-92392500D01*
X101600000Y-91122500D02*
X100330000Y-92392500D01*
X210185000Y-93662500D02*
X212090000Y-93662500D01*
X223520000Y-93662500D02*
X230505000Y-93662500D01*
X222250000Y-94932500D02*
X223520000Y-93662500D01*
X213360000Y-94932500D02*
X222250000Y-94932500D01*
X212090000Y-93662500D02*
X213360000Y-94932500D01*
X189865000Y-93662500D02*
X191770000Y-93662500D01*
X203200000Y-93662500D02*
X210185000Y-93662500D01*
X201930000Y-94932500D02*
X203200000Y-93662500D01*
X193040000Y-94932500D02*
X201930000Y-94932500D01*
X191770000Y-93662500D02*
X193040000Y-94932500D01*
X169545000Y-93662500D02*
X171450000Y-93662500D01*
X182880000Y-93662500D02*
X189865000Y-93662500D01*
X181610000Y-94932500D02*
X182880000Y-93662500D01*
X172720000Y-94932500D02*
X181610000Y-94932500D01*
X171450000Y-93662500D02*
X172720000Y-94932500D01*
X169545000Y-93662500D02*
X162560000Y-93662500D01*
X151130000Y-93662500D02*
X149225000Y-93662500D01*
X152400000Y-94932500D02*
X151130000Y-93662500D01*
X161290000Y-94932500D02*
X152400000Y-94932500D01*
X162560000Y-93662500D02*
X161290000Y-94932500D01*
X149225000Y-93662500D02*
X142240000Y-93662500D01*
X130810000Y-93662500D02*
X128905000Y-93662500D01*
X132080000Y-94932500D02*
X130810000Y-93662500D01*
X140970000Y-94932500D02*
X132080000Y-94932500D01*
X142240000Y-93662500D02*
X140970000Y-94932500D01*
X108585000Y-93662500D02*
X110490000Y-93662500D01*
X121920000Y-93662500D02*
X128905000Y-93662500D01*
X120650000Y-94932500D02*
X121920000Y-93662500D01*
X111760000Y-94932500D02*
X120650000Y-94932500D01*
X110490000Y-93662500D02*
X111760000Y-94932500D01*
X108585000Y-93662500D02*
X101600000Y-93662500D01*
X90170000Y-93662500D02*
X88265000Y-93662500D01*
X91440000Y-94932500D02*
X90170000Y-93662500D01*
X100330000Y-94932500D02*
X91440000Y-94932500D01*
X101600000Y-93662500D02*
X100330000Y-94932500D01*
X210185000Y-96202500D02*
X212090000Y-96202500D01*
X223520000Y-96202500D02*
X230505000Y-96202500D01*
X222250000Y-97472500D02*
X223520000Y-96202500D01*
X213360000Y-97472500D02*
X222250000Y-97472500D01*
X212090000Y-96202500D02*
X213360000Y-97472500D01*
X189865000Y-96202500D02*
X191770000Y-96202500D01*
X191770000Y-96202500D02*
X193040000Y-97472500D01*
X193040000Y-97472500D02*
X201930000Y-97472500D01*
X201930000Y-97472500D02*
X203200000Y-96202500D01*
X203200000Y-96202500D02*
X210185000Y-96202500D01*
X169545000Y-96202500D02*
X171450000Y-96202500D01*
X182880000Y-96202500D02*
X189865000Y-96202500D01*
X182562500Y-96520000D02*
X182880000Y-96202500D01*
X181610000Y-97472500D02*
X182562500Y-96520000D01*
X172720000Y-97472500D02*
X181610000Y-97472500D01*
X171450000Y-96202500D02*
X172720000Y-97472500D01*
X169545000Y-96202500D02*
X162560000Y-96202500D01*
X151130000Y-96202500D02*
X149225000Y-96202500D01*
X152400000Y-97472500D02*
X151130000Y-96202500D01*
X161290000Y-97472500D02*
X152400000Y-97472500D01*
X162560000Y-96202500D02*
X161290000Y-97472500D01*
X149225000Y-96202500D02*
X142240000Y-96202500D01*
X130810000Y-96202500D02*
X128905000Y-96202500D01*
X132080000Y-97472500D02*
X130810000Y-96202500D01*
X140970000Y-97472500D02*
X132080000Y-97472500D01*
X142240000Y-96202500D02*
X140970000Y-97472500D01*
X108585000Y-96202500D02*
X110490000Y-96202500D01*
X121920000Y-96202500D02*
X128905000Y-96202500D01*
X120650000Y-97472500D02*
X121920000Y-96202500D01*
X111760000Y-97472500D02*
X120650000Y-97472500D01*
X110490000Y-96202500D02*
X111760000Y-97472500D01*
X108585000Y-96202500D02*
X101600000Y-96202500D01*
X90170000Y-96202500D02*
X88265000Y-96202500D01*
X91440000Y-97472500D02*
X90170000Y-96202500D01*
X100330000Y-97472500D02*
X91440000Y-97472500D01*
X101600000Y-96202500D02*
X100330000Y-97472500D01*
X210185000Y-98742500D02*
X212090000Y-98742500D01*
X223520000Y-98742500D02*
X230505000Y-98742500D01*
X222250000Y-100012500D02*
X223520000Y-98742500D01*
X213360000Y-100012500D02*
X222250000Y-100012500D01*
X212090000Y-98742500D02*
X213360000Y-100012500D01*
X189865000Y-98742500D02*
X191770000Y-98742500D01*
X203200000Y-98742500D02*
X210185000Y-98742500D01*
X201930000Y-100012500D02*
X203200000Y-98742500D01*
X193040000Y-100012500D02*
X201930000Y-100012500D01*
X191770000Y-98742500D02*
X193040000Y-100012500D01*
X189865000Y-98742500D02*
X182880000Y-98742500D01*
X171450000Y-98742500D02*
X169545000Y-98742500D01*
X172720000Y-100012500D02*
X171450000Y-98742500D01*
X181610000Y-100012500D02*
X172720000Y-100012500D01*
X182880000Y-98742500D02*
X181610000Y-100012500D01*
X169545000Y-98742500D02*
X162560000Y-98742500D01*
X151130000Y-98742500D02*
X149225000Y-98742500D01*
X152400000Y-100012500D02*
X151130000Y-98742500D01*
X161290000Y-100012500D02*
X152400000Y-100012500D01*
X162560000Y-98742500D02*
X161290000Y-100012500D01*
X149225000Y-98742500D02*
X142240000Y-98742500D01*
X130810000Y-98742500D02*
X128905000Y-98742500D01*
X132080000Y-100012500D02*
X130810000Y-98742500D01*
X140970000Y-100012500D02*
X132080000Y-100012500D01*
X142240000Y-98742500D02*
X140970000Y-100012500D01*
X108585000Y-98742500D02*
X110490000Y-98742500D01*
X121920000Y-98742500D02*
X128905000Y-98742500D01*
X120650000Y-100012500D02*
X121920000Y-98742500D01*
X111760000Y-100012500D02*
X120650000Y-100012500D01*
X110490000Y-98742500D02*
X111760000Y-100012500D01*
X108585000Y-98742500D02*
X101600000Y-98742500D01*
X90170000Y-98742500D02*
X88265000Y-98742500D01*
X91440000Y-100012500D02*
X90170000Y-98742500D01*
X100330000Y-100012500D02*
X91440000Y-100012500D01*
X101600000Y-98742500D02*
X100330000Y-100012500D01*
X189865000Y-101282500D02*
X182880000Y-101282500D01*
X171450000Y-101282500D02*
X169545000Y-101282500D01*
X172720000Y-102552500D02*
X171450000Y-101282500D01*
X181610000Y-102552500D02*
X172720000Y-102552500D01*
X182880000Y-101282500D02*
X181610000Y-102552500D01*
X210185000Y-101282500D02*
X203200000Y-101282500D01*
X191770000Y-101282500D02*
X189865000Y-101282500D01*
X193040000Y-102552500D02*
X191770000Y-101282500D01*
X201930000Y-102552500D02*
X193040000Y-102552500D01*
X203200000Y-101282500D02*
X201930000Y-102552500D01*
X230505000Y-101282500D02*
X223520000Y-101282500D01*
X212090000Y-101282500D02*
X210185000Y-101282500D01*
X213360000Y-102552500D02*
X212090000Y-101282500D01*
X222250000Y-102552500D02*
X213360000Y-102552500D01*
X223520000Y-101282500D02*
X222250000Y-102552500D01*
X169545000Y-101282500D02*
X162560000Y-101282500D01*
X162560000Y-101282500D02*
X161290000Y-102552500D01*
X161290000Y-102552500D02*
X152400000Y-102552500D01*
X152400000Y-102552500D02*
X151130000Y-101282500D01*
X151130000Y-101282500D02*
X149225000Y-101282500D01*
X149225000Y-101282500D02*
X142240000Y-101282500D01*
X130810000Y-101282500D02*
X128905000Y-101282500D01*
X132080000Y-102552500D02*
X130810000Y-101282500D01*
X140970000Y-102552500D02*
X132080000Y-102552500D01*
X142240000Y-101282500D02*
X140970000Y-102552500D01*
X128905000Y-101282500D02*
X121920000Y-101282500D01*
X110490000Y-101282500D02*
X108585000Y-101282500D01*
X111760000Y-102552500D02*
X110490000Y-101282500D01*
X120650000Y-102552500D02*
X111760000Y-102552500D01*
X121920000Y-101282500D02*
X120650000Y-102552500D01*
X108585000Y-101282500D02*
X101600000Y-101282500D01*
X90170000Y-101282500D02*
X88265000Y-101282500D01*
X91440000Y-102552500D02*
X90170000Y-101282500D01*
X100330000Y-102552500D02*
X91440000Y-102552500D01*
X101600000Y-101282500D02*
X100330000Y-102552500D01*
X210185000Y-103822500D02*
X212090000Y-103822500D01*
X223520000Y-103822500D02*
X230505000Y-103822500D01*
X222250000Y-105092500D02*
X223520000Y-103822500D01*
X213360000Y-105092500D02*
X222250000Y-105092500D01*
X212090000Y-103822500D02*
X213360000Y-105092500D01*
X189865000Y-103822500D02*
X191770000Y-103822500D01*
X203200000Y-103822500D02*
X210185000Y-103822500D01*
X201930000Y-105092500D02*
X203200000Y-103822500D01*
X193040000Y-105092500D02*
X201930000Y-105092500D01*
X191770000Y-103822500D02*
X193040000Y-105092500D01*
X169545000Y-103822500D02*
X171450000Y-103822500D01*
X182880000Y-103822500D02*
X189865000Y-103822500D01*
X181610000Y-105092500D02*
X182880000Y-103822500D01*
X172720000Y-105092500D02*
X181610000Y-105092500D01*
X171450000Y-103822500D02*
X172720000Y-105092500D01*
X149225000Y-103822500D02*
X151130000Y-103822500D01*
X162560000Y-103822500D02*
X169545000Y-103822500D01*
X161290000Y-105092500D02*
X162560000Y-103822500D01*
X152400000Y-105092500D02*
X161290000Y-105092500D01*
X151130000Y-103822500D02*
X152400000Y-105092500D01*
X128905000Y-103822500D02*
X130810000Y-103822500D01*
X142240000Y-103822500D02*
X149225000Y-103822500D01*
X140970000Y-105092500D02*
X142240000Y-103822500D01*
X132080000Y-105092500D02*
X140970000Y-105092500D01*
X130810000Y-103822500D02*
X132080000Y-105092500D01*
X128905000Y-103822500D02*
X121920000Y-103822500D01*
X110490000Y-103822500D02*
X108585000Y-103822500D01*
X111760000Y-105092500D02*
X110490000Y-103822500D01*
X120650000Y-105092500D02*
X111760000Y-105092500D01*
X121920000Y-103822500D02*
X120650000Y-105092500D01*
X88265000Y-103822500D02*
X90170000Y-103822500D01*
X101600000Y-103822500D02*
X108585000Y-103822500D01*
X100330000Y-105092500D02*
X101600000Y-103822500D01*
X91440000Y-105092500D02*
X100330000Y-105092500D01*
X90170000Y-103822500D02*
X91440000Y-105092500D01*
X194945000Y-106362500D02*
X201930000Y-106362500D01*
X213360000Y-106362500D02*
X215265000Y-106362500D01*
X212090000Y-105092500D02*
X213360000Y-106362500D01*
X203200000Y-105092500D02*
X212090000Y-105092500D01*
X201930000Y-106362500D02*
X203200000Y-105092500D01*
X174625000Y-106362500D02*
X181610000Y-106362500D01*
X193040000Y-106362500D02*
X194945000Y-106362500D01*
X191770000Y-105092500D02*
X193040000Y-106362500D01*
X182880000Y-105092500D02*
X191770000Y-105092500D01*
X181610000Y-106362500D02*
X182880000Y-105092500D01*
X154305000Y-106362500D02*
X161290000Y-106362500D01*
X172720000Y-106362500D02*
X174625000Y-106362500D01*
X171450000Y-105092500D02*
X172720000Y-106362500D01*
X162560000Y-105092500D02*
X171450000Y-105092500D01*
X161290000Y-106362500D02*
X162560000Y-105092500D01*
X133985000Y-106362500D02*
X140970000Y-106362500D01*
X152400000Y-106362500D02*
X154305000Y-106362500D01*
X151130000Y-105092500D02*
X152400000Y-106362500D01*
X142240000Y-105092500D02*
X151130000Y-105092500D01*
X140970000Y-106362500D02*
X142240000Y-105092500D01*
X121920000Y-105092500D02*
X130810000Y-105092500D01*
X120650000Y-106362500D02*
X121920000Y-105092500D01*
X113665000Y-106362500D02*
X120650000Y-106362500D01*
X132080000Y-106362500D02*
X133985000Y-106362500D01*
X130810000Y-105092500D02*
X132080000Y-106362500D01*
X93345000Y-106362500D02*
X100330000Y-106362500D01*
X111760000Y-106362500D02*
X113665000Y-106362500D01*
X110490000Y-105092500D02*
X111760000Y-106362500D01*
X101600000Y-105092500D02*
X110490000Y-105092500D01*
X100330000Y-106362500D02*
X101600000Y-105092500D01*
X93345000Y-106362500D02*
X91440000Y-106362500D01*
X80010000Y-106362500D02*
X73025000Y-106362500D01*
X81280000Y-105092500D02*
X80010000Y-106362500D01*
X90170000Y-105092500D02*
X81280000Y-105092500D01*
X91440000Y-106362500D02*
X90170000Y-105092500D01*
X191770000Y-107632500D02*
X193040000Y-108902500D01*
X182880000Y-107632500D02*
X188595000Y-107632500D01*
X188595000Y-107632500D02*
X191770000Y-107632500D01*
X181610000Y-108902500D02*
X182880000Y-107632500D01*
X194945000Y-108902500D02*
X201930000Y-108902500D01*
X213360000Y-108902500D02*
X215265000Y-108902500D01*
X212090000Y-107632500D02*
X213360000Y-108902500D01*
X203200000Y-107632500D02*
X212090000Y-107632500D01*
X201930000Y-108902500D02*
X203200000Y-107632500D01*
X174625000Y-108902500D02*
X181610000Y-108902500D01*
X193040000Y-108902500D02*
X194945000Y-108902500D01*
X154305000Y-108902500D02*
X161290000Y-108902500D01*
X172720000Y-108902500D02*
X174625000Y-108902500D01*
X171450000Y-107632500D02*
X172720000Y-108902500D01*
X162560000Y-107632500D02*
X171450000Y-107632500D01*
X161290000Y-108902500D02*
X162560000Y-107632500D01*
X154305000Y-108902500D02*
X152400000Y-108902500D01*
X140970000Y-108902500D02*
X133985000Y-108902500D01*
X142240000Y-107632500D02*
X140970000Y-108902500D01*
X151130000Y-107632500D02*
X142240000Y-107632500D01*
X152400000Y-108902500D02*
X151130000Y-107632500D01*
X133985000Y-108902500D02*
X132080000Y-108902500D01*
X120650000Y-108902500D02*
X121920000Y-107632500D01*
X120650000Y-108902500D02*
X113665000Y-108902500D01*
X130810000Y-107632500D02*
X121920000Y-107632500D01*
X132080000Y-108902500D02*
X130810000Y-107632500D01*
X113665000Y-108902500D02*
X111760000Y-108902500D01*
X100330000Y-108902500D02*
X93345000Y-108902500D01*
X101600000Y-107632500D02*
X100330000Y-108902500D01*
X110490000Y-107632500D02*
X101600000Y-107632500D01*
X111760000Y-108902500D02*
X110490000Y-107632500D01*
X73025000Y-108902500D02*
X80010000Y-108902500D01*
X91440000Y-108902500D02*
X93345000Y-108902500D01*
X90170000Y-107632500D02*
X91440000Y-108902500D01*
X81280000Y-107632500D02*
X90170000Y-107632500D01*
X80010000Y-108902500D02*
X81280000Y-107632500D01*
X227647500Y-113347500D02*
X191452500Y-113347500D01*
X86677500Y-113347500D02*
X119697500Y-113347500D01*
X120015000Y-113347500D02*
X191452500Y-113347500D01*
X119697500Y-113347500D02*
X120015000Y-113347500D01*
X111760000Y-110172500D02*
X120650000Y-110172500D01*
X110490000Y-108902500D02*
X111760000Y-110172500D01*
X120650000Y-110172500D02*
X121920000Y-108902500D01*
X210185000Y-108902500D02*
X212090000Y-108902500D01*
X223520000Y-108902500D02*
X230505000Y-108902500D01*
X222250000Y-110172500D02*
X223520000Y-108902500D01*
X213360000Y-110172500D02*
X222250000Y-110172500D01*
X212090000Y-108902500D02*
X213360000Y-110172500D01*
X189865000Y-108902500D02*
X191770000Y-108902500D01*
X203200000Y-108902500D02*
X210185000Y-108902500D01*
X201930000Y-110172500D02*
X203200000Y-108902500D01*
X193040000Y-110172500D02*
X201930000Y-110172500D01*
X191770000Y-108902500D02*
X193040000Y-110172500D01*
X169545000Y-108902500D02*
X171450000Y-108902500D01*
X182880000Y-108902500D02*
X189865000Y-108902500D01*
X171450000Y-108902500D02*
X172720000Y-110172500D01*
X149225000Y-108902500D02*
X151130000Y-108902500D01*
X162560000Y-108902500D02*
X169545000Y-108902500D01*
X161290000Y-110172500D02*
X162560000Y-108902500D01*
X152400000Y-110172500D02*
X161290000Y-110172500D01*
X151130000Y-108902500D02*
X152400000Y-110172500D01*
X149225000Y-108902500D02*
X142240000Y-108902500D01*
X130810000Y-108902500D02*
X128905000Y-108902500D01*
X132080000Y-110172500D02*
X130810000Y-108902500D01*
X140970000Y-110172500D02*
X132080000Y-110172500D01*
X142240000Y-108902500D02*
X140970000Y-110172500D01*
X108585000Y-108902500D02*
X110490000Y-108902500D01*
X121920000Y-108902500D02*
X128905000Y-108902500D01*
X108585000Y-108902500D02*
X101600000Y-108902500D01*
X90170000Y-108902500D02*
X88265000Y-108902500D01*
X91440000Y-110172500D02*
X90170000Y-108902500D01*
X100330000Y-110172500D02*
X91440000Y-110172500D01*
X101600000Y-108902500D02*
X100330000Y-110172500D01*
X181610000Y-110172500D02*
X182880000Y-108902500D01*
X172720000Y-110172500D02*
X181610000Y-110172500D01*
X214312500Y-117157500D02*
X191452500Y-117157500D01*
X106997500Y-117157500D02*
X119697500Y-117157500D01*
X119697500Y-117157500D02*
X191452500Y-117157500D01*
X199707500Y-120015000D02*
X183832500Y-120015000D01*
X183832500Y-120015000D02*
X131127500Y-120015000D01*
X131127500Y-120015000D02*
X127317500Y-120015000D01*
X127317500Y-120015000D02*
X112077500Y-120015000D01*
X223202500Y-115252500D02*
X181292500Y-115252500D01*
X109537500Y-115252500D02*
X150812500Y-115252500D01*
X150812500Y-115252500D02*
X181292500Y-115252500D01*
X209867500Y-116205000D02*
X193992500Y-116205000D01*
X167957500Y-116205000D02*
X193992500Y-116205000D01*
X122237500Y-116205000D02*
X167957500Y-116205000D01*
X196532500Y-118110000D02*
X188912500Y-118110000D01*
X188912500Y-118110000D02*
X117157500Y-118110000D01*
X218757500Y-119062500D02*
X208597500Y-119062500D01*
X208597500Y-119062500D02*
X186372500Y-119062500D01*
X114617500Y-119062500D02*
X186372500Y-119062500D01*
X228917500Y-114300000D02*
X205422500Y-114300000D01*
X205422500Y-114300000D02*
X188912500Y-114300000D01*
X117475000Y-114300000D02*
X188912500Y-114300000D01*
X117157500Y-114300000D02*
X117475000Y-114300000D01*
D23*
G36*
X251422600Y-142215100D02*
X235699534Y-142215100D01*
X239017280Y-138897354D01*
X245289691Y-138897354D01*
X245648208Y-139765029D01*
X246311479Y-140429459D01*
X247178528Y-140789489D01*
X248117354Y-140790309D01*
X248985029Y-140431792D01*
X249649459Y-139768521D01*
X250009489Y-138901472D01*
X250010309Y-137962646D01*
X249651792Y-137094971D01*
X248988521Y-136430541D01*
X248121472Y-136070511D01*
X247182646Y-136069691D01*
X246314971Y-136428208D01*
X245650541Y-137091479D01*
X245290511Y-137958528D01*
X245289691Y-138897354D01*
X239017280Y-138897354D01*
X242456067Y-135458567D01*
X242615807Y-135219500D01*
X242671900Y-134937500D01*
X242671900Y-93980000D01*
X242615807Y-93698001D01*
X242456067Y-93458933D01*
X241971811Y-92974677D01*
X241973172Y-92971399D01*
X241973627Y-92450885D01*
X241774854Y-91969819D01*
X241407117Y-91601439D01*
X241401900Y-91599273D01*
X241401900Y-86201210D01*
X241405181Y-86199854D01*
X241773561Y-85832117D01*
X241973172Y-85351399D01*
X241973627Y-84830885D01*
X241774854Y-84349819D01*
X241407117Y-83981439D01*
X240926399Y-83781828D01*
X240405885Y-83781373D01*
X239924819Y-83980146D01*
X239556439Y-84347883D01*
X239356828Y-84828601D01*
X239356373Y-85349115D01*
X239555146Y-85830181D01*
X239922883Y-86198561D01*
X239928100Y-86200727D01*
X239928100Y-91598790D01*
X239924819Y-91600146D01*
X239556439Y-91967883D01*
X239356828Y-92448601D01*
X239356373Y-92969115D01*
X239555146Y-93450181D01*
X239922883Y-93818561D01*
X239928780Y-93821009D01*
X239924819Y-93822646D01*
X239556439Y-94190383D01*
X239356828Y-94671101D01*
X239356373Y-95191615D01*
X239555146Y-95672681D01*
X239922883Y-96041061D01*
X239928100Y-96043227D01*
X239928100Y-101441290D01*
X239924819Y-101442646D01*
X239556439Y-101810383D01*
X239356828Y-102291101D01*
X239356373Y-102811615D01*
X239555146Y-103292681D01*
X239922883Y-103661061D01*
X239928100Y-103663227D01*
X239928100Y-125294993D01*
X239916342Y-125287137D01*
X239338364Y-125172170D01*
X237546636Y-125172170D01*
X236968658Y-125287137D01*
X236478671Y-125614535D01*
X236151273Y-126104522D01*
X236036306Y-126682500D01*
X236151273Y-127260478D01*
X236478671Y-127750465D01*
X236781039Y-127952500D01*
X236478671Y-128154535D01*
X236257461Y-128485600D01*
X235902500Y-128485600D01*
X235620501Y-128541693D01*
X235399716Y-128689217D01*
X235381433Y-128701433D01*
X234428933Y-129653933D01*
X234269193Y-129893000D01*
X234269193Y-129893001D01*
X234213100Y-130175000D01*
X234213100Y-136854766D01*
X233692266Y-137375600D01*
X163817734Y-137375600D01*
X163386425Y-136944291D01*
X163721313Y-136944583D01*
X164108989Y-136784398D01*
X164405856Y-136488049D01*
X164566717Y-136100653D01*
X164566912Y-135877722D01*
X166617943Y-133826691D01*
X179920362Y-133826691D01*
X180128782Y-134331104D01*
X180514366Y-134717362D01*
X181018415Y-134926661D01*
X181564191Y-134927138D01*
X182068604Y-134718718D01*
X182454862Y-134333134D01*
X182562506Y-134073898D01*
X182668782Y-134331104D01*
X183054366Y-134717362D01*
X183558415Y-134926661D01*
X184104191Y-134927138D01*
X184608604Y-134718718D01*
X184994862Y-134333134D01*
X185102506Y-134073898D01*
X185208782Y-134331104D01*
X185594366Y-134717362D01*
X186098415Y-134926661D01*
X186644191Y-134927138D01*
X187148604Y-134718718D01*
X187534862Y-134333134D01*
X187642506Y-134073898D01*
X187748782Y-134331104D01*
X188134366Y-134717362D01*
X188638415Y-134926661D01*
X189184191Y-134927138D01*
X189688604Y-134718718D01*
X190074862Y-134333134D01*
X190182506Y-134073898D01*
X190288782Y-134331104D01*
X190674366Y-134717362D01*
X191178415Y-134926661D01*
X191724191Y-134927138D01*
X192228604Y-134718718D01*
X192614862Y-134333134D01*
X192722506Y-134073898D01*
X192828782Y-134331104D01*
X193214366Y-134717362D01*
X193718415Y-134926661D01*
X194264191Y-134927138D01*
X194768604Y-134718718D01*
X195154862Y-134333134D01*
X195364161Y-133829085D01*
X195364638Y-133283309D01*
X195156218Y-132778896D01*
X194770634Y-132392638D01*
X194266585Y-132183339D01*
X193720809Y-132182862D01*
X193216396Y-132391282D01*
X192830138Y-132776866D01*
X192722494Y-133036102D01*
X192616218Y-132778896D01*
X192230634Y-132392638D01*
X191726585Y-132183339D01*
X191180809Y-132182862D01*
X190676396Y-132391282D01*
X190290138Y-132776866D01*
X190182494Y-133036102D01*
X190076218Y-132778896D01*
X189690634Y-132392638D01*
X189186585Y-132183339D01*
X188640809Y-132182862D01*
X188136396Y-132391282D01*
X187750138Y-132776866D01*
X187642494Y-133036102D01*
X187536218Y-132778896D01*
X187150634Y-132392638D01*
X186646585Y-132183339D01*
X186100809Y-132182862D01*
X185596396Y-132391282D01*
X185210138Y-132776866D01*
X185102494Y-133036102D01*
X184996218Y-132778896D01*
X184610634Y-132392638D01*
X184106585Y-132183339D01*
X183560809Y-132182862D01*
X183056396Y-132391282D01*
X182670138Y-132776866D01*
X182562494Y-133036102D01*
X182456218Y-132778896D01*
X182070634Y-132392638D01*
X181566585Y-132183339D01*
X181020809Y-132182862D01*
X180516396Y-132391282D01*
X180130138Y-132776866D01*
X179920839Y-133280915D01*
X179920362Y-133826691D01*
X166617943Y-133826691D01*
X166891067Y-133553567D01*
X166987567Y-133409144D01*
X167050807Y-133314499D01*
X167106900Y-133032500D01*
X167106900Y-129341732D01*
X167263356Y-129185549D01*
X167424217Y-128798153D01*
X167424583Y-128378687D01*
X167421779Y-128371900D01*
X194322266Y-128371900D01*
X195376433Y-129426067D01*
X195615501Y-129585807D01*
X195897500Y-129641900D01*
X229115768Y-129641900D01*
X229271951Y-129798356D01*
X229659347Y-129959217D01*
X230078813Y-129959583D01*
X230466489Y-129799398D01*
X230763356Y-129503049D01*
X230924217Y-129115653D01*
X230924583Y-128696187D01*
X230764398Y-128308511D01*
X230468049Y-128011644D01*
X230080653Y-127850783D01*
X229661187Y-127850417D01*
X229273511Y-128010602D01*
X229115738Y-128168100D01*
X226477163Y-128168100D01*
X226479217Y-128163153D01*
X226479583Y-127743687D01*
X226319398Y-127356011D01*
X226023049Y-127059144D01*
X225635653Y-126898283D01*
X225216187Y-126897917D01*
X224828511Y-127058102D01*
X224670738Y-127215600D01*
X222032163Y-127215600D01*
X222034217Y-127210653D01*
X222034583Y-126791187D01*
X221874398Y-126403511D01*
X221578049Y-126106644D01*
X221190653Y-125945783D01*
X220771187Y-125945417D01*
X220383511Y-126105602D01*
X220225738Y-126263100D01*
X217587163Y-126263100D01*
X217589217Y-126258153D01*
X217589583Y-125838687D01*
X217429398Y-125451011D01*
X217133049Y-125154144D01*
X216745653Y-124993283D01*
X216326187Y-124992917D01*
X215938511Y-125153102D01*
X215780738Y-125310600D01*
X213142163Y-125310600D01*
X213144217Y-125305653D01*
X213144583Y-124886187D01*
X212984398Y-124498511D01*
X212688049Y-124201644D01*
X212300653Y-124040783D01*
X211881187Y-124040417D01*
X211493511Y-124200602D01*
X211335738Y-124358100D01*
X208697163Y-124358100D01*
X208699217Y-124353153D01*
X208699583Y-123933687D01*
X208539398Y-123546011D01*
X208243049Y-123249144D01*
X207855653Y-123088283D01*
X207436187Y-123087917D01*
X207048511Y-123248102D01*
X206890738Y-123405600D01*
X204252163Y-123405600D01*
X204254217Y-123400653D01*
X204254583Y-122981187D01*
X204094398Y-122593511D01*
X203798049Y-122296644D01*
X203410653Y-122135783D01*
X202991187Y-122135417D01*
X202603511Y-122295602D01*
X202445738Y-122453100D01*
X199807163Y-122453100D01*
X199809217Y-122448153D01*
X199809583Y-122028687D01*
X199728065Y-121831400D01*
X201884413Y-121831400D01*
X202137198Y-122000305D01*
X202565000Y-122085400D01*
X229235000Y-122085400D01*
X229662802Y-122000305D01*
X230025475Y-121757975D01*
X230267805Y-121395302D01*
X230352900Y-120967500D01*
X230267805Y-120539698D01*
X230025475Y-120177025D01*
X229662802Y-119934695D01*
X229235000Y-119849600D01*
X219461475Y-119849600D01*
X219650856Y-119660549D01*
X219811717Y-119273153D01*
X219812083Y-118853687D01*
X219651898Y-118466011D01*
X219355549Y-118169144D01*
X218968153Y-118008283D01*
X218548687Y-118007917D01*
X218161011Y-118168102D01*
X218003238Y-118325600D01*
X209351732Y-118325600D01*
X209195549Y-118169144D01*
X208808153Y-118008283D01*
X208388687Y-118007917D01*
X208001011Y-118168102D01*
X207843238Y-118325600D01*
X197584663Y-118325600D01*
X197586717Y-118320653D01*
X197587083Y-117901187D01*
X197584279Y-117894400D01*
X213558268Y-117894400D01*
X213714451Y-118050856D01*
X214101847Y-118211717D01*
X214521313Y-118212083D01*
X214908989Y-118051898D01*
X215205856Y-117755549D01*
X215366717Y-117368153D01*
X215367083Y-116948687D01*
X215206898Y-116561011D01*
X214910549Y-116264144D01*
X214523153Y-116103283D01*
X214103687Y-116102917D01*
X213716011Y-116263102D01*
X213558238Y-116420600D01*
X210919663Y-116420600D01*
X210921717Y-116415653D01*
X210922083Y-115996187D01*
X210919279Y-115989400D01*
X222448268Y-115989400D01*
X222604451Y-116145856D01*
X222991847Y-116306717D01*
X223411313Y-116307083D01*
X223798989Y-116146898D01*
X224095856Y-115850549D01*
X224256717Y-115463153D01*
X224257083Y-115043687D01*
X224254279Y-115036900D01*
X228163268Y-115036900D01*
X228319451Y-115193356D01*
X228706847Y-115354217D01*
X229126313Y-115354583D01*
X229513989Y-115194398D01*
X229810856Y-114898049D01*
X229971717Y-114510653D01*
X229972083Y-114091187D01*
X229811898Y-113703511D01*
X229515549Y-113406644D01*
X229128153Y-113245783D01*
X228708687Y-113245417D01*
X228701987Y-113248185D01*
X228702083Y-113138687D01*
X228541898Y-112751011D01*
X228245549Y-112454144D01*
X227858153Y-112293283D01*
X227438687Y-112292917D01*
X227051011Y-112453102D01*
X226893238Y-112610600D01*
X194876911Y-112610600D01*
X195154862Y-112333134D01*
X195364161Y-111829085D01*
X195364638Y-111283309D01*
X195210141Y-110909400D01*
X201930000Y-110909400D01*
X202212000Y-110853307D01*
X202451067Y-110693567D01*
X203505234Y-109639400D01*
X209005083Y-109639400D01*
X209021282Y-109678604D01*
X209406866Y-110064862D01*
X209910915Y-110274161D01*
X210456691Y-110274638D01*
X210961104Y-110066218D01*
X211347362Y-109680634D01*
X211364484Y-109639400D01*
X211784766Y-109639400D01*
X212838933Y-110693567D01*
X213078001Y-110853307D01*
X213360000Y-110909400D01*
X222250000Y-110909400D01*
X222532000Y-110853307D01*
X222771067Y-110693567D01*
X223825234Y-109639400D01*
X229325083Y-109639400D01*
X229341282Y-109678604D01*
X229726866Y-110064862D01*
X230230915Y-110274161D01*
X230776691Y-110274638D01*
X231281104Y-110066218D01*
X231667362Y-109680634D01*
X231858633Y-109220000D01*
X236467247Y-109220000D01*
X236579411Y-109783884D01*
X236898825Y-110261922D01*
X237240169Y-110490000D01*
X236898825Y-110718078D01*
X236579411Y-111196116D01*
X236467247Y-111760000D01*
X236579411Y-112323884D01*
X236898825Y-112801922D01*
X237240169Y-113030000D01*
X236898825Y-113258078D01*
X236579411Y-113736116D01*
X236467247Y-114300000D01*
X236579411Y-114863884D01*
X236898825Y-115341922D01*
X237240169Y-115570000D01*
X236898825Y-115798078D01*
X236579411Y-116276116D01*
X236467247Y-116840000D01*
X236579411Y-117403884D01*
X236898825Y-117881922D01*
X237240169Y-118110000D01*
X236898825Y-118338078D01*
X236579411Y-118816116D01*
X236467247Y-119380000D01*
X236579411Y-119943884D01*
X236898825Y-120421922D01*
X237376863Y-120741336D01*
X237940747Y-120853500D01*
X238309253Y-120853500D01*
X238873137Y-120741336D01*
X239351175Y-120421922D01*
X239670589Y-119943884D01*
X239782753Y-119380000D01*
X239670589Y-118816116D01*
X239351175Y-118338078D01*
X239009831Y-118110000D01*
X239351175Y-117881922D01*
X239670589Y-117403884D01*
X239782753Y-116840000D01*
X239670589Y-116276116D01*
X239351175Y-115798078D01*
X239009831Y-115570000D01*
X239351175Y-115341922D01*
X239670589Y-114863884D01*
X239782753Y-114300000D01*
X239670589Y-113736116D01*
X239351175Y-113258078D01*
X239009831Y-113030000D01*
X239351175Y-112801922D01*
X239670589Y-112323884D01*
X239782753Y-111760000D01*
X239670589Y-111196116D01*
X239351175Y-110718078D01*
X239009831Y-110490000D01*
X239351175Y-110261922D01*
X239670589Y-109783884D01*
X239782753Y-109220000D01*
X239670589Y-108656116D01*
X239351175Y-108178078D01*
X239294463Y-108140184D01*
X239486480Y-108060648D01*
X239658048Y-107889081D01*
X239750900Y-107664917D01*
X239750900Y-106984575D01*
X239598425Y-106832100D01*
X238277100Y-106832100D01*
X238277100Y-106852100D01*
X237972900Y-106852100D01*
X237972900Y-106832100D01*
X236651575Y-106832100D01*
X236499100Y-106984575D01*
X236499100Y-107664917D01*
X236591952Y-107889081D01*
X236763520Y-108060648D01*
X236955537Y-108140184D01*
X236898825Y-108178078D01*
X236579411Y-108656116D01*
X236467247Y-109220000D01*
X231858633Y-109220000D01*
X231876661Y-109176585D01*
X231877138Y-108630809D01*
X231668718Y-108126396D01*
X231283134Y-107740138D01*
X231023898Y-107632494D01*
X231281104Y-107526218D01*
X231667362Y-107140634D01*
X231876661Y-106636585D01*
X231877138Y-106090809D01*
X231713627Y-105695083D01*
X236499100Y-105695083D01*
X236499100Y-106375425D01*
X236651575Y-106527900D01*
X237972900Y-106527900D01*
X237972900Y-105358975D01*
X238277100Y-105358975D01*
X238277100Y-106527900D01*
X239598425Y-106527900D01*
X239750900Y-106375425D01*
X239750900Y-105695083D01*
X239658048Y-105470919D01*
X239486480Y-105299352D01*
X239262316Y-105206500D01*
X238429575Y-105206500D01*
X238277100Y-105358975D01*
X237972900Y-105358975D01*
X237820425Y-105206500D01*
X236987684Y-105206500D01*
X236763520Y-105299352D01*
X236591952Y-105470919D01*
X236499100Y-105695083D01*
X231713627Y-105695083D01*
X231668718Y-105586396D01*
X231283134Y-105200138D01*
X231023898Y-105092494D01*
X231281104Y-104986218D01*
X231667362Y-104600634D01*
X231876661Y-104096585D01*
X231877138Y-103550809D01*
X231851429Y-103488587D01*
X234864015Y-103488587D01*
X234929040Y-103714119D01*
X235423504Y-103876721D01*
X235942554Y-103837723D01*
X236240960Y-103714119D01*
X236305985Y-103488587D01*
X235585000Y-102767602D01*
X234864015Y-103488587D01*
X231851429Y-103488587D01*
X231668718Y-103046396D01*
X231283134Y-102660138D01*
X231023898Y-102552494D01*
X231281104Y-102446218D01*
X231336414Y-102391004D01*
X234260779Y-102391004D01*
X234299777Y-102910054D01*
X234423381Y-103208460D01*
X234648913Y-103273485D01*
X235369898Y-102552500D01*
X235800102Y-102552500D01*
X236521087Y-103273485D01*
X236746619Y-103208460D01*
X236909221Y-102713996D01*
X236870223Y-102194946D01*
X236746619Y-101896540D01*
X236521087Y-101831515D01*
X235800102Y-102552500D01*
X235369898Y-102552500D01*
X234648913Y-101831515D01*
X234423381Y-101896540D01*
X234260779Y-102391004D01*
X231336414Y-102391004D01*
X231667362Y-102060634D01*
X231851818Y-101616413D01*
X234864015Y-101616413D01*
X235585000Y-102337398D01*
X236305985Y-101616413D01*
X236240960Y-101390881D01*
X235746496Y-101228279D01*
X235227446Y-101267277D01*
X234929040Y-101390881D01*
X234864015Y-101616413D01*
X231851818Y-101616413D01*
X231876661Y-101556585D01*
X231877138Y-101010809D01*
X231668718Y-100506396D01*
X231283134Y-100120138D01*
X231023898Y-100012494D01*
X231281104Y-99906218D01*
X231667362Y-99520634D01*
X231876661Y-99016585D01*
X231877138Y-98470809D01*
X231668718Y-97966396D01*
X231283134Y-97580138D01*
X231023898Y-97472494D01*
X231281104Y-97366218D01*
X231667362Y-96980634D01*
X231876661Y-96476585D01*
X231877138Y-95930809D01*
X231851429Y-95868587D01*
X234864015Y-95868587D01*
X234929040Y-96094119D01*
X235423504Y-96256721D01*
X235942554Y-96217723D01*
X236240960Y-96094119D01*
X236305985Y-95868587D01*
X235585000Y-95147602D01*
X234864015Y-95868587D01*
X231851429Y-95868587D01*
X231668718Y-95426396D01*
X231283134Y-95040138D01*
X231023898Y-94932494D01*
X231281104Y-94826218D01*
X231336414Y-94771004D01*
X234260779Y-94771004D01*
X234299777Y-95290054D01*
X234423381Y-95588460D01*
X234648913Y-95653485D01*
X235369898Y-94932500D01*
X235800102Y-94932500D01*
X236521087Y-95653485D01*
X236746619Y-95588460D01*
X236909221Y-95093996D01*
X236870223Y-94574946D01*
X236746619Y-94276540D01*
X236521087Y-94211515D01*
X235800102Y-94932500D01*
X235369898Y-94932500D01*
X234648913Y-94211515D01*
X234423381Y-94276540D01*
X234260779Y-94771004D01*
X231336414Y-94771004D01*
X231667362Y-94440634D01*
X231876661Y-93936585D01*
X231876914Y-93646087D01*
X234864015Y-93646087D01*
X234914518Y-93821250D01*
X234864015Y-93996413D01*
X235585000Y-94717398D01*
X236305985Y-93996413D01*
X236255482Y-93821250D01*
X236305985Y-93646087D01*
X235585000Y-92925102D01*
X234864015Y-93646087D01*
X231876914Y-93646087D01*
X231877138Y-93390809D01*
X231668718Y-92886396D01*
X231331416Y-92548504D01*
X234260779Y-92548504D01*
X234299777Y-93067554D01*
X234423381Y-93365960D01*
X234648913Y-93430985D01*
X235369898Y-92710000D01*
X235800102Y-92710000D01*
X236521087Y-93430985D01*
X236746619Y-93365960D01*
X236909221Y-92871496D01*
X236870223Y-92352446D01*
X236746619Y-92054040D01*
X236521087Y-91989015D01*
X235800102Y-92710000D01*
X235369898Y-92710000D01*
X234648913Y-91989015D01*
X234423381Y-92054040D01*
X234260779Y-92548504D01*
X231331416Y-92548504D01*
X231283134Y-92500138D01*
X231023898Y-92392494D01*
X231281104Y-92286218D01*
X231667362Y-91900634D01*
X231719981Y-91773913D01*
X234864015Y-91773913D01*
X235585000Y-92494898D01*
X236305985Y-91773913D01*
X236240960Y-91548381D01*
X235746496Y-91385779D01*
X235227446Y-91424777D01*
X234929040Y-91548381D01*
X234864015Y-91773913D01*
X231719981Y-91773913D01*
X231876661Y-91396585D01*
X231877138Y-90850809D01*
X231668718Y-90346396D01*
X231283134Y-89960138D01*
X231023898Y-89852494D01*
X231281104Y-89746218D01*
X231667362Y-89360634D01*
X231876661Y-88856585D01*
X231877138Y-88310809D01*
X231668718Y-87806396D01*
X231283134Y-87420138D01*
X230779085Y-87210839D01*
X230233309Y-87210362D01*
X229728896Y-87418782D01*
X229342638Y-87804366D01*
X229325516Y-87845600D01*
X223520000Y-87845600D01*
X223238001Y-87901693D01*
X223237999Y-87901694D01*
X223238000Y-87901694D01*
X222998933Y-88061433D01*
X221944766Y-89115600D01*
X216529109Y-89115600D01*
X216636661Y-88856585D01*
X216637138Y-88310809D01*
X216428718Y-87806396D01*
X216043134Y-87420138D01*
X215539085Y-87210839D01*
X214993309Y-87210362D01*
X214488896Y-87418782D01*
X214102638Y-87804366D01*
X214085516Y-87845600D01*
X213665234Y-87845600D01*
X212611067Y-86791433D01*
X212372000Y-86631693D01*
X212090000Y-86575600D01*
X203200000Y-86575600D01*
X202918001Y-86631693D01*
X202917999Y-86631694D01*
X202918000Y-86631694D01*
X202678933Y-86791433D01*
X201624766Y-87845600D01*
X196124917Y-87845600D01*
X196108718Y-87806396D01*
X195723134Y-87420138D01*
X195219085Y-87210839D01*
X194673309Y-87210362D01*
X194168896Y-87418782D01*
X193782638Y-87804366D01*
X193765516Y-87845600D01*
X193345234Y-87845600D01*
X192291067Y-86791433D01*
X192052000Y-86631693D01*
X191770000Y-86575600D01*
X182880000Y-86575600D01*
X182598001Y-86631693D01*
X182597999Y-86631694D01*
X182598000Y-86631694D01*
X182358933Y-86791433D01*
X181304766Y-87845600D01*
X175804917Y-87845600D01*
X175788718Y-87806396D01*
X175403134Y-87420138D01*
X174899085Y-87210839D01*
X174353309Y-87210362D01*
X173848896Y-87418782D01*
X173462638Y-87804366D01*
X173445516Y-87845600D01*
X173025234Y-87845600D01*
X171971067Y-86791433D01*
X171732000Y-86631693D01*
X171450000Y-86575600D01*
X162560000Y-86575600D01*
X162278001Y-86631693D01*
X162277999Y-86631694D01*
X162278000Y-86631694D01*
X162038933Y-86791433D01*
X160984766Y-87845600D01*
X155484917Y-87845600D01*
X155468718Y-87806396D01*
X155083134Y-87420138D01*
X154579085Y-87210839D01*
X154033309Y-87210362D01*
X153528896Y-87418782D01*
X153142638Y-87804366D01*
X153125516Y-87845600D01*
X152705234Y-87845600D01*
X151651067Y-86791433D01*
X151412000Y-86631693D01*
X151130000Y-86575600D01*
X142240000Y-86575600D01*
X141958001Y-86631693D01*
X141957999Y-86631694D01*
X141958000Y-86631694D01*
X141718933Y-86791433D01*
X140664766Y-87845600D01*
X135164917Y-87845600D01*
X135148718Y-87806396D01*
X134763134Y-87420138D01*
X134259085Y-87210839D01*
X133713309Y-87210362D01*
X133208896Y-87418782D01*
X132822638Y-87804366D01*
X132805516Y-87845600D01*
X132385234Y-87845600D01*
X131331067Y-86791433D01*
X131092000Y-86631693D01*
X130810000Y-86575600D01*
X121920000Y-86575600D01*
X121638001Y-86631693D01*
X121637999Y-86631694D01*
X121638000Y-86631694D01*
X121398933Y-86791433D01*
X120344766Y-87845600D01*
X114844917Y-87845600D01*
X114828718Y-87806396D01*
X114443134Y-87420138D01*
X113939085Y-87210839D01*
X113393309Y-87210362D01*
X112888896Y-87418782D01*
X112502638Y-87804366D01*
X112485516Y-87845600D01*
X112065234Y-87845600D01*
X111011067Y-86791433D01*
X110772000Y-86631693D01*
X110490000Y-86575600D01*
X101600000Y-86575600D01*
X101318001Y-86631693D01*
X101317999Y-86631694D01*
X101318000Y-86631694D01*
X101078933Y-86791433D01*
X100024766Y-87845600D01*
X94524917Y-87845600D01*
X94508718Y-87806396D01*
X94123134Y-87420138D01*
X93619085Y-87210839D01*
X93073309Y-87210362D01*
X92568896Y-87418782D01*
X92182638Y-87804366D01*
X92165516Y-87845600D01*
X91745234Y-87845600D01*
X90691067Y-86791433D01*
X90452000Y-86631693D01*
X90170000Y-86575600D01*
X81280000Y-86575600D01*
X80998001Y-86631693D01*
X80997999Y-86631694D01*
X80998000Y-86631694D01*
X80758933Y-86791433D01*
X79704766Y-87845600D01*
X74204917Y-87845600D01*
X74188718Y-87806396D01*
X73803134Y-87420138D01*
X73299085Y-87210839D01*
X72753309Y-87210362D01*
X72248896Y-87418782D01*
X71862638Y-87804366D01*
X71653339Y-88308415D01*
X71652862Y-88854191D01*
X71861282Y-89358604D01*
X72246866Y-89744862D01*
X72506102Y-89852506D01*
X72248896Y-89958782D01*
X71862638Y-90344366D01*
X71653339Y-90848415D01*
X71653157Y-91057093D01*
X71592975Y-90967025D01*
X70885475Y-90259525D01*
X70522802Y-90017195D01*
X70095000Y-89932100D01*
X69808351Y-89932100D01*
X69266644Y-89389446D01*
X68546559Y-89090441D01*
X67766862Y-89089760D01*
X67046256Y-89387509D01*
X66500713Y-89932100D01*
X64308351Y-89932100D01*
X63766644Y-89389446D01*
X63046559Y-89090441D01*
X62266862Y-89089760D01*
X61546256Y-89387509D01*
X60994446Y-89938356D01*
X60695441Y-90658441D01*
X60694760Y-91438138D01*
X60992509Y-92158744D01*
X61543356Y-92710554D01*
X62263441Y-93009559D01*
X63043138Y-93010240D01*
X63763744Y-92712491D01*
X64309287Y-92167900D01*
X66501649Y-92167900D01*
X67043356Y-92710554D01*
X67763441Y-93009559D01*
X68543138Y-93010240D01*
X69263744Y-92712491D01*
X69684600Y-92292369D01*
X69684600Y-94116848D01*
X69563306Y-94056796D01*
X68370102Y-95250000D01*
X69563306Y-96443204D01*
X69684600Y-96383152D01*
X69684600Y-98316848D01*
X69563306Y-98256796D01*
X68370102Y-99450000D01*
X69563306Y-100643204D01*
X69684600Y-100583152D01*
X69684600Y-102408133D01*
X69266644Y-101989446D01*
X68546559Y-101690441D01*
X67766862Y-101689760D01*
X67046256Y-101987509D01*
X66494446Y-102538356D01*
X66195441Y-103258441D01*
X66194760Y-104038138D01*
X66492509Y-104758744D01*
X67043356Y-105310554D01*
X67763441Y-105609559D01*
X68543138Y-105610240D01*
X69263744Y-105312491D01*
X69684600Y-104892369D01*
X69684600Y-116405633D01*
X69266644Y-115986946D01*
X68546559Y-115687941D01*
X67766862Y-115687260D01*
X67046256Y-115985009D01*
X66500713Y-116529600D01*
X64308351Y-116529600D01*
X63766644Y-115986946D01*
X63046559Y-115687941D01*
X62266862Y-115687260D01*
X61546256Y-115985009D01*
X61000713Y-116529600D01*
X59855400Y-116529600D01*
X59855400Y-113395050D01*
X60854709Y-113395050D01*
X61198033Y-114225958D01*
X61833198Y-114862233D01*
X62663506Y-115207007D01*
X63562550Y-115207791D01*
X64393458Y-114864467D01*
X65029733Y-114229302D01*
X65374507Y-113398994D01*
X65375291Y-112499950D01*
X65031967Y-111669042D01*
X64396802Y-111032767D01*
X63566494Y-110687993D01*
X62667450Y-110687209D01*
X61836542Y-111030533D01*
X61200267Y-111665698D01*
X60855493Y-112496006D01*
X60854709Y-113395050D01*
X59855400Y-113395050D01*
X59855400Y-108797550D01*
X60854709Y-108797550D01*
X61198033Y-109628458D01*
X61833198Y-110264733D01*
X62663506Y-110609507D01*
X63562550Y-110610291D01*
X64393458Y-110266967D01*
X65029733Y-109631802D01*
X65374507Y-108801494D01*
X65375291Y-107902450D01*
X65031967Y-107071542D01*
X64396802Y-106435267D01*
X63566494Y-106090493D01*
X62667450Y-106089709D01*
X61836542Y-106433033D01*
X61200267Y-107068198D01*
X60855493Y-107898506D01*
X60854709Y-108797550D01*
X59855400Y-108797550D01*
X59855400Y-104038138D01*
X60694760Y-104038138D01*
X60992509Y-104758744D01*
X61543356Y-105310554D01*
X62263441Y-105609559D01*
X63043138Y-105610240D01*
X63763744Y-105312491D01*
X64315554Y-104761644D01*
X64614559Y-104041559D01*
X64615240Y-103261862D01*
X64317491Y-102541256D01*
X63766644Y-101989446D01*
X63046559Y-101690441D01*
X62266862Y-101689760D01*
X61546256Y-101987509D01*
X60994446Y-102538356D01*
X60695441Y-103258441D01*
X60694760Y-104038138D01*
X59855400Y-104038138D01*
X59855400Y-100858306D01*
X61461796Y-100858306D01*
X61606890Y-101151368D01*
X62337758Y-101422954D01*
X63116923Y-101394175D01*
X63703110Y-101151368D01*
X63848204Y-100858306D01*
X66961796Y-100858306D01*
X67106890Y-101151368D01*
X67837758Y-101422954D01*
X68616923Y-101394175D01*
X69203110Y-101151368D01*
X69348204Y-100858306D01*
X68155000Y-99665102D01*
X66961796Y-100858306D01*
X63848204Y-100858306D01*
X62655000Y-99665102D01*
X61461796Y-100858306D01*
X59855400Y-100858306D01*
X59855400Y-99132758D01*
X60682046Y-99132758D01*
X60710825Y-99911923D01*
X60953632Y-100498110D01*
X61246694Y-100643204D01*
X62439898Y-99450000D01*
X62870102Y-99450000D01*
X64063306Y-100643204D01*
X64356368Y-100498110D01*
X64627954Y-99767242D01*
X64604519Y-99132758D01*
X66182046Y-99132758D01*
X66210825Y-99911923D01*
X66453632Y-100498110D01*
X66746694Y-100643204D01*
X67939898Y-99450000D01*
X66746694Y-98256796D01*
X66453632Y-98401890D01*
X66182046Y-99132758D01*
X64604519Y-99132758D01*
X64599175Y-98988077D01*
X64356368Y-98401890D01*
X64063306Y-98256796D01*
X62870102Y-99450000D01*
X62439898Y-99450000D01*
X61246694Y-98256796D01*
X60953632Y-98401890D01*
X60682046Y-99132758D01*
X59855400Y-99132758D01*
X59855400Y-98041694D01*
X61461796Y-98041694D01*
X62655000Y-99234898D01*
X63848204Y-98041694D01*
X66961796Y-98041694D01*
X68155000Y-99234898D01*
X69348204Y-98041694D01*
X69203110Y-97748632D01*
X68472242Y-97477046D01*
X67693077Y-97505825D01*
X67106890Y-97748632D01*
X66961796Y-98041694D01*
X63848204Y-98041694D01*
X63703110Y-97748632D01*
X62972242Y-97477046D01*
X62193077Y-97505825D01*
X61606890Y-97748632D01*
X61461796Y-98041694D01*
X59855400Y-98041694D01*
X59855400Y-96658306D01*
X61461796Y-96658306D01*
X61606890Y-96951368D01*
X62337758Y-97222954D01*
X63116923Y-97194175D01*
X63703110Y-96951368D01*
X63848204Y-96658306D01*
X66961796Y-96658306D01*
X67106890Y-96951368D01*
X67837758Y-97222954D01*
X68616923Y-97194175D01*
X69203110Y-96951368D01*
X69348204Y-96658306D01*
X68155000Y-95465102D01*
X66961796Y-96658306D01*
X63848204Y-96658306D01*
X62655000Y-95465102D01*
X61461796Y-96658306D01*
X59855400Y-96658306D01*
X59855400Y-94932758D01*
X60682046Y-94932758D01*
X60710825Y-95711923D01*
X60953632Y-96298110D01*
X61246694Y-96443204D01*
X62439898Y-95250000D01*
X62870102Y-95250000D01*
X64063306Y-96443204D01*
X64356368Y-96298110D01*
X64627954Y-95567242D01*
X64604519Y-94932758D01*
X66182046Y-94932758D01*
X66210825Y-95711923D01*
X66453632Y-96298110D01*
X66746694Y-96443204D01*
X67939898Y-95250000D01*
X66746694Y-94056796D01*
X66453632Y-94201890D01*
X66182046Y-94932758D01*
X64604519Y-94932758D01*
X64599175Y-94788077D01*
X64356368Y-94201890D01*
X64063306Y-94056796D01*
X62870102Y-95250000D01*
X62439898Y-95250000D01*
X61246694Y-94056796D01*
X60953632Y-94201890D01*
X60682046Y-94932758D01*
X59855400Y-94932758D01*
X59855400Y-93841694D01*
X61461796Y-93841694D01*
X62655000Y-95034898D01*
X63848204Y-93841694D01*
X66961796Y-93841694D01*
X68155000Y-95034898D01*
X69348204Y-93841694D01*
X69203110Y-93548632D01*
X68472242Y-93277046D01*
X67693077Y-93305825D01*
X67106890Y-93548632D01*
X66961796Y-93841694D01*
X63848204Y-93841694D01*
X63703110Y-93548632D01*
X62972242Y-93277046D01*
X62193077Y-93305825D01*
X61606890Y-93548632D01*
X61461796Y-93841694D01*
X59855400Y-93841694D01*
X59855400Y-88093050D01*
X59980549Y-87967900D01*
X61001649Y-87967900D01*
X61543356Y-88510554D01*
X62263441Y-88809559D01*
X63043138Y-88810240D01*
X63763744Y-88512491D01*
X64309287Y-87967900D01*
X66501649Y-87967900D01*
X67043356Y-88510554D01*
X67763441Y-88809559D01*
X68543138Y-88810240D01*
X69263744Y-88512491D01*
X69815554Y-87961644D01*
X70114559Y-87241559D01*
X70115240Y-86461862D01*
X69935182Y-86026087D01*
X234864015Y-86026087D01*
X234929040Y-86251619D01*
X235423504Y-86414221D01*
X235942554Y-86375223D01*
X236240960Y-86251619D01*
X236305985Y-86026087D01*
X235585000Y-85305102D01*
X234864015Y-86026087D01*
X69935182Y-86026087D01*
X69817491Y-85741256D01*
X69266644Y-85189446D01*
X68638226Y-84928504D01*
X234260779Y-84928504D01*
X234299777Y-85447554D01*
X234423381Y-85745960D01*
X234648913Y-85810985D01*
X235369898Y-85090000D01*
X235800102Y-85090000D01*
X236521087Y-85810985D01*
X236746619Y-85745960D01*
X236909221Y-85251496D01*
X236870223Y-84732446D01*
X236746619Y-84434040D01*
X236521087Y-84369015D01*
X235800102Y-85090000D01*
X235369898Y-85090000D01*
X234648913Y-84369015D01*
X234423381Y-84434040D01*
X234260779Y-84928504D01*
X68638226Y-84928504D01*
X68546559Y-84890441D01*
X67766862Y-84889760D01*
X67046256Y-85187509D01*
X66500713Y-85732100D01*
X64308351Y-85732100D01*
X63766644Y-85189446D01*
X63046559Y-84890441D01*
X62266862Y-84889760D01*
X61546256Y-85187509D01*
X61000713Y-85732100D01*
X59517505Y-85732100D01*
X59517500Y-85732099D01*
X59160676Y-85803077D01*
X59089698Y-85817195D01*
X58727025Y-86059525D01*
X58727023Y-86059528D01*
X57947025Y-86839525D01*
X57704695Y-87202198D01*
X57619600Y-87630000D01*
X57619600Y-117157500D01*
X57704695Y-117585302D01*
X57947025Y-117947975D01*
X58437023Y-118437972D01*
X58437025Y-118437975D01*
X58799698Y-118680305D01*
X58870676Y-118694423D01*
X59227500Y-118765401D01*
X59227505Y-118765400D01*
X61001649Y-118765400D01*
X61543356Y-119308054D01*
X62263441Y-119607059D01*
X63043138Y-119607740D01*
X63763744Y-119309991D01*
X64309287Y-118765400D01*
X66501649Y-118765400D01*
X67043356Y-119308054D01*
X67763441Y-119607059D01*
X68543138Y-119607740D01*
X69263744Y-119309991D01*
X69684600Y-118889869D01*
X69684600Y-120504450D01*
X69634053Y-120554997D01*
X69266644Y-120186946D01*
X68546559Y-119887941D01*
X67766862Y-119887260D01*
X67046256Y-120185009D01*
X66500713Y-120729600D01*
X64308351Y-120729600D01*
X63766644Y-120186946D01*
X63046559Y-119887941D01*
X62266862Y-119887260D01*
X61546256Y-120185009D01*
X60994446Y-120735856D01*
X60695441Y-121455941D01*
X60694760Y-122235638D01*
X60992509Y-122956244D01*
X61543356Y-123508054D01*
X62263441Y-123807059D01*
X63043138Y-123807740D01*
X63763744Y-123509991D01*
X64309287Y-122965400D01*
X66501649Y-122965400D01*
X67043356Y-123508054D01*
X67763441Y-123807059D01*
X68543138Y-123807740D01*
X69263744Y-123509991D01*
X69809287Y-122965400D01*
X69922500Y-122965400D01*
X70350302Y-122880305D01*
X70524644Y-122763813D01*
X88797917Y-122763813D01*
X88958102Y-123151489D01*
X89254451Y-123448356D01*
X89641847Y-123609217D01*
X90061313Y-123609583D01*
X90448989Y-123449398D01*
X90745856Y-123153049D01*
X90906717Y-122765653D01*
X90907083Y-122346187D01*
X90746898Y-121958511D01*
X90589400Y-121800738D01*
X90589400Y-117576990D01*
X90696313Y-117577083D01*
X91083989Y-117416898D01*
X91380856Y-117120549D01*
X91541717Y-116733153D01*
X91541718Y-116731313D01*
X93560417Y-116731313D01*
X93720602Y-117118989D01*
X94016951Y-117415856D01*
X94404347Y-117576717D01*
X94823813Y-117577083D01*
X95211489Y-117416898D01*
X95369262Y-117259400D01*
X100024766Y-117259400D01*
X100228110Y-117462744D01*
X100227917Y-117683813D01*
X100388102Y-118071489D01*
X100684451Y-118368356D01*
X101071847Y-118529217D01*
X101491313Y-118529583D01*
X101878989Y-118369398D01*
X102175856Y-118073049D01*
X102336717Y-117685653D01*
X102337083Y-117266187D01*
X102176898Y-116878511D01*
X101880549Y-116581644D01*
X101493153Y-116420783D01*
X101270222Y-116420588D01*
X100851067Y-116001433D01*
X100612000Y-115841693D01*
X100330000Y-115785600D01*
X95369232Y-115785600D01*
X95213049Y-115629144D01*
X94825653Y-115468283D01*
X94406187Y-115467917D01*
X94018511Y-115628102D01*
X93721644Y-115924451D01*
X93560783Y-116311847D01*
X93560417Y-116731313D01*
X91541718Y-116731313D01*
X91542083Y-116313687D01*
X91381898Y-115926011D01*
X91085549Y-115629144D01*
X90698153Y-115468283D01*
X90278687Y-115467917D01*
X89891011Y-115628102D01*
X89594144Y-115924451D01*
X89433283Y-116311847D01*
X89433088Y-116534778D01*
X89331433Y-116636433D01*
X89171693Y-116875500D01*
X89135833Y-117055783D01*
X89115600Y-117157500D01*
X89115600Y-121800768D01*
X88959144Y-121956951D01*
X88798283Y-122344347D01*
X88797917Y-122763813D01*
X70524644Y-122763813D01*
X70712975Y-122637975D01*
X71592975Y-121757975D01*
X71835305Y-121395302D01*
X71920401Y-120967500D01*
X71920400Y-120967495D01*
X71920400Y-118607233D01*
X72401618Y-118607653D01*
X72938386Y-118385865D01*
X73059062Y-118265400D01*
X76165640Y-118265400D01*
X76284453Y-118384421D01*
X76820834Y-118607146D01*
X77401618Y-118607653D01*
X77938386Y-118385865D01*
X78349421Y-117975547D01*
X78572146Y-117439166D01*
X78572653Y-116858382D01*
X78350865Y-116321614D01*
X77940547Y-115910579D01*
X77404166Y-115687854D01*
X76823382Y-115687347D01*
X76286614Y-115909135D01*
X76165938Y-116029600D01*
X73059360Y-116029600D01*
X72940547Y-115910579D01*
X72404166Y-115687854D01*
X71920400Y-115687432D01*
X71920400Y-109737825D01*
X72246866Y-110064862D01*
X72750915Y-110274161D01*
X73296691Y-110274638D01*
X73801104Y-110066218D01*
X74187362Y-109680634D01*
X74204484Y-109639400D01*
X80010000Y-109639400D01*
X80292000Y-109583307D01*
X80531067Y-109423567D01*
X81585234Y-108369400D01*
X87000891Y-108369400D01*
X86893339Y-108628415D01*
X86892862Y-109174191D01*
X87101282Y-109678604D01*
X87486866Y-110064862D01*
X87990915Y-110274161D01*
X88536691Y-110274638D01*
X89041104Y-110066218D01*
X89427362Y-109680634D01*
X89444484Y-109639400D01*
X89864766Y-109639400D01*
X90918933Y-110693567D01*
X91158001Y-110853307D01*
X91440000Y-110909400D01*
X100330000Y-110909400D01*
X100612000Y-110853307D01*
X100851067Y-110693567D01*
X101905234Y-109639400D01*
X107405083Y-109639400D01*
X107421282Y-109678604D01*
X107806866Y-110064862D01*
X108310915Y-110274161D01*
X108856691Y-110274638D01*
X109361104Y-110066218D01*
X109747362Y-109680634D01*
X109764484Y-109639400D01*
X110184766Y-109639400D01*
X111118863Y-110573497D01*
X110915138Y-110776866D01*
X110807494Y-111036102D01*
X110701218Y-110778896D01*
X110315634Y-110392638D01*
X109811585Y-110183339D01*
X109265809Y-110182862D01*
X108761396Y-110391282D01*
X108375138Y-110776866D01*
X108165839Y-111280915D01*
X108165362Y-111826691D01*
X108373782Y-112331104D01*
X108652790Y-112610600D01*
X87431732Y-112610600D01*
X87275549Y-112454144D01*
X86888153Y-112293283D01*
X86468687Y-112292917D01*
X86081011Y-112453102D01*
X85784144Y-112749451D01*
X85623283Y-113136847D01*
X85622917Y-113556313D01*
X85783102Y-113943989D01*
X86079451Y-114240856D01*
X86466847Y-114401717D01*
X86886313Y-114402083D01*
X87273989Y-114241898D01*
X87431762Y-114084400D01*
X116105337Y-114084400D01*
X116103283Y-114089347D01*
X116102917Y-114508813D01*
X116105721Y-114515600D01*
X110291732Y-114515600D01*
X110135549Y-114359144D01*
X109748153Y-114198283D01*
X109328687Y-114197917D01*
X108941011Y-114358102D01*
X108644144Y-114654451D01*
X108483283Y-115041847D01*
X108482917Y-115461313D01*
X108643102Y-115848989D01*
X108939451Y-116145856D01*
X109326847Y-116306717D01*
X109746313Y-116307083D01*
X110133989Y-116146898D01*
X110291762Y-115989400D01*
X121185337Y-115989400D01*
X121183283Y-115994347D01*
X121182917Y-116413813D01*
X121185721Y-116420600D01*
X120451732Y-116420600D01*
X120295549Y-116264144D01*
X119908153Y-116103283D01*
X119488687Y-116102917D01*
X119101011Y-116263102D01*
X118943238Y-116420600D01*
X107751732Y-116420600D01*
X107595549Y-116264144D01*
X107208153Y-116103283D01*
X106788687Y-116102917D01*
X106401011Y-116263102D01*
X106104144Y-116559451D01*
X105943283Y-116946847D01*
X105942917Y-117366313D01*
X106103102Y-117753989D01*
X106399451Y-118050856D01*
X106786847Y-118211717D01*
X107206313Y-118212083D01*
X107593989Y-118051898D01*
X107751762Y-117894400D01*
X116105337Y-117894400D01*
X116103283Y-117899347D01*
X116102917Y-118318813D01*
X116105721Y-118325600D01*
X115371732Y-118325600D01*
X115215549Y-118169144D01*
X114828153Y-118008283D01*
X114408687Y-118007917D01*
X114021011Y-118168102D01*
X113724144Y-118464451D01*
X113563283Y-118851847D01*
X113562917Y-119271313D01*
X113565721Y-119278100D01*
X112831732Y-119278100D01*
X112675549Y-119121644D01*
X112288153Y-118960783D01*
X111868687Y-118960417D01*
X111481011Y-119120602D01*
X111184144Y-119416951D01*
X111023283Y-119804347D01*
X111022917Y-120223813D01*
X111183102Y-120611489D01*
X111479451Y-120908356D01*
X111866847Y-121069217D01*
X112286313Y-121069583D01*
X112673989Y-120909398D01*
X112831762Y-120751900D01*
X130373268Y-120751900D01*
X130529451Y-120908356D01*
X130916847Y-121069217D01*
X131336313Y-121069583D01*
X131723989Y-120909398D01*
X131881762Y-120751900D01*
X142457837Y-120751900D01*
X142455783Y-120756847D01*
X142455417Y-121176313D01*
X142615602Y-121563989D01*
X142911951Y-121860856D01*
X143299347Y-122021717D01*
X143718813Y-122022083D01*
X143725513Y-122019315D01*
X143725417Y-122128813D01*
X143885602Y-122516489D01*
X144181951Y-122813356D01*
X144569347Y-122974217D01*
X144988813Y-122974583D01*
X145376489Y-122814398D01*
X145534262Y-122656900D01*
X146585337Y-122656900D01*
X146583283Y-122661847D01*
X146582917Y-123081313D01*
X146743102Y-123468989D01*
X147039451Y-123765856D01*
X147426847Y-123926717D01*
X147846313Y-123927083D01*
X148233989Y-123766898D01*
X148391762Y-123609400D01*
X149760337Y-123609400D01*
X149758283Y-123614347D01*
X149757917Y-124033813D01*
X149918102Y-124421489D01*
X150214451Y-124718356D01*
X150601847Y-124879217D01*
X151021313Y-124879583D01*
X151408989Y-124719398D01*
X151566762Y-124561900D01*
X152617837Y-124561900D01*
X152615783Y-124566847D01*
X152615417Y-124986313D01*
X152775602Y-125373989D01*
X153071951Y-125670856D01*
X153250586Y-125745032D01*
X153250417Y-125938813D01*
X153410602Y-126326489D01*
X153706951Y-126623356D01*
X153885586Y-126697532D01*
X153885417Y-126891313D01*
X154045602Y-127278989D01*
X154341951Y-127575856D01*
X154520586Y-127650032D01*
X154520417Y-127843813D01*
X154680602Y-128231489D01*
X154976951Y-128528356D01*
X155364347Y-128689217D01*
X155783813Y-128689583D01*
X156171489Y-128529398D01*
X156329262Y-128371900D01*
X156559675Y-128371900D01*
X156425783Y-128694347D01*
X156425417Y-129113813D01*
X156585602Y-129501489D01*
X156623853Y-129539807D01*
X156586644Y-129576951D01*
X156425783Y-129964347D01*
X156425417Y-130383813D01*
X156428185Y-130390513D01*
X156318687Y-130390417D01*
X156307886Y-130394880D01*
X156311717Y-130385653D01*
X156312083Y-129966187D01*
X156151898Y-129578511D01*
X155855549Y-129281644D01*
X155468153Y-129120783D01*
X155048687Y-129120417D01*
X154661011Y-129280602D01*
X154622693Y-129318853D01*
X154585549Y-129281644D01*
X154198153Y-129120783D01*
X153778687Y-129120417D01*
X153391011Y-129280602D01*
X153352693Y-129318853D01*
X153315549Y-129281644D01*
X152928153Y-129120783D01*
X152508687Y-129120417D01*
X152333652Y-129192740D01*
X152340856Y-129185549D01*
X152501717Y-128798153D01*
X152502083Y-128378687D01*
X152341898Y-127991011D01*
X152045549Y-127694144D01*
X151658153Y-127533283D01*
X151238687Y-127532917D01*
X150851011Y-127693102D01*
X150554144Y-127989451D01*
X150393283Y-128376847D01*
X150393088Y-128599778D01*
X150189766Y-128803100D01*
X145747570Y-128803100D01*
X145674398Y-128626011D01*
X145378049Y-128329144D01*
X144990653Y-128168283D01*
X144571187Y-128167917D01*
X144183511Y-128328102D01*
X143886644Y-128624451D01*
X143725783Y-129011847D01*
X143725417Y-129431313D01*
X143728221Y-129438100D01*
X142862734Y-129438100D01*
X136728567Y-123303933D01*
X136489500Y-123144193D01*
X136207500Y-123088100D01*
X135691732Y-123088100D01*
X135535549Y-122931644D01*
X135148153Y-122770783D01*
X134728687Y-122770417D01*
X134341011Y-122930602D01*
X134183238Y-123088100D01*
X128071732Y-123088100D01*
X127915549Y-122931644D01*
X127528153Y-122770783D01*
X127108687Y-122770417D01*
X126721011Y-122930602D01*
X126424144Y-123226951D01*
X126263283Y-123614347D01*
X126262917Y-124033813D01*
X126423102Y-124421489D01*
X126719451Y-124718356D01*
X127106847Y-124879217D01*
X127526313Y-124879583D01*
X127913989Y-124719398D01*
X128071762Y-124561900D01*
X128937175Y-124561900D01*
X128803283Y-124884347D01*
X128802917Y-125303813D01*
X128936910Y-125628100D01*
X128071732Y-125628100D01*
X127915549Y-125471644D01*
X127528153Y-125310783D01*
X127108687Y-125310417D01*
X126721011Y-125470602D01*
X126424144Y-125766951D01*
X126263283Y-126154347D01*
X126262917Y-126573813D01*
X126423102Y-126961489D01*
X126719451Y-127258356D01*
X127106847Y-127419217D01*
X127526313Y-127419583D01*
X127913989Y-127259398D01*
X128071762Y-127101900D01*
X128937175Y-127101900D01*
X128803283Y-127424347D01*
X128802917Y-127843813D01*
X128936910Y-128168100D01*
X128071732Y-128168100D01*
X127915549Y-128011644D01*
X127528153Y-127850783D01*
X127108687Y-127850417D01*
X126721011Y-128010602D01*
X126424144Y-128306951D01*
X126263283Y-128694347D01*
X126262917Y-129113813D01*
X126423102Y-129501489D01*
X126719451Y-129798356D01*
X127106847Y-129959217D01*
X127526313Y-129959583D01*
X127913989Y-129799398D01*
X128071762Y-129641900D01*
X128937175Y-129641900D01*
X128803283Y-129964347D01*
X128802917Y-130383813D01*
X128936910Y-130708100D01*
X128071732Y-130708100D01*
X127915549Y-130551644D01*
X127528153Y-130390783D01*
X127108687Y-130390417D01*
X126721011Y-130550602D01*
X126424144Y-130846951D01*
X126263283Y-131234347D01*
X126263266Y-131253632D01*
X125933567Y-130923933D01*
X125694500Y-130764193D01*
X125412500Y-130708100D01*
X105727500Y-130708100D01*
X105445501Y-130764193D01*
X105323815Y-130845501D01*
X105206433Y-130923933D01*
X101294766Y-134835600D01*
X88570234Y-134835600D01*
X86461890Y-132727256D01*
X86462083Y-132506187D01*
X86301898Y-132118511D01*
X86005549Y-131821644D01*
X85618153Y-131660783D01*
X85198687Y-131660417D01*
X84811011Y-131820602D01*
X84514144Y-132116951D01*
X84353283Y-132504347D01*
X84352989Y-132840855D01*
X84239390Y-132727256D01*
X84239583Y-132506187D01*
X84079398Y-132118511D01*
X83783049Y-131821644D01*
X83395653Y-131660783D01*
X82976187Y-131660417D01*
X82588511Y-131820602D01*
X82325394Y-132083260D01*
X82118567Y-131876433D01*
X81879500Y-131716693D01*
X81597500Y-131660600D01*
X69345831Y-131660600D01*
X69348204Y-131655806D01*
X68155000Y-130462602D01*
X66961796Y-131655806D01*
X66964169Y-131660600D01*
X64770000Y-131660600D01*
X64634511Y-131687550D01*
X64498658Y-131712376D01*
X64493742Y-131715551D01*
X64488001Y-131716693D01*
X64373151Y-131793433D01*
X64257127Y-131868366D01*
X63446550Y-132654032D01*
X63046559Y-132487941D01*
X62266862Y-132487260D01*
X61546256Y-132785009D01*
X60994446Y-133335856D01*
X60695441Y-134055941D01*
X60694760Y-134835638D01*
X60992509Y-135556244D01*
X61543356Y-136108054D01*
X62263441Y-136407059D01*
X63043138Y-136407740D01*
X63763744Y-136109991D01*
X64315554Y-135559144D01*
X64614559Y-134839059D01*
X64615240Y-134059362D01*
X64471968Y-133712618D01*
X65068519Y-133134400D01*
X66696254Y-133134400D01*
X66494446Y-133335856D01*
X66195441Y-134055941D01*
X66194760Y-134835638D01*
X66492509Y-135556244D01*
X67043356Y-136108054D01*
X67763441Y-136407059D01*
X68543138Y-136407740D01*
X69263744Y-136109991D01*
X69815554Y-135559144D01*
X70114559Y-134839059D01*
X70115240Y-134059362D01*
X69995430Y-133769400D01*
X71226244Y-133769400D01*
X70875579Y-134119453D01*
X70652854Y-134655834D01*
X70652347Y-135236618D01*
X70874135Y-135773386D01*
X71284453Y-136184421D01*
X71820834Y-136407146D01*
X72401618Y-136407653D01*
X72938386Y-136185865D01*
X73349421Y-135775547D01*
X73572146Y-135239166D01*
X73572653Y-134658382D01*
X73350865Y-134121614D01*
X72999265Y-133769400D01*
X76226244Y-133769400D01*
X75875579Y-134119453D01*
X75652854Y-134655834D01*
X75652347Y-135236618D01*
X75874135Y-135773386D01*
X76284453Y-136184421D01*
X76375600Y-136222269D01*
X76375600Y-136802500D01*
X76431693Y-137084500D01*
X76591433Y-137323567D01*
X78218933Y-138951067D01*
X78458000Y-139110807D01*
X78740000Y-139166900D01*
X83383268Y-139166900D01*
X83539451Y-139323356D01*
X83926847Y-139484217D01*
X84346313Y-139484583D01*
X84733989Y-139324398D01*
X84891762Y-139166900D01*
X86803466Y-139166900D01*
X86372256Y-139598110D01*
X86151187Y-139597917D01*
X85763511Y-139758102D01*
X85466644Y-140054451D01*
X85305783Y-140441847D01*
X85305417Y-140861313D01*
X85465602Y-141248989D01*
X85761951Y-141545856D01*
X86149347Y-141706717D01*
X86568813Y-141707083D01*
X86956489Y-141546898D01*
X87253356Y-141250549D01*
X87414217Y-140863153D01*
X87414412Y-140640222D01*
X87935234Y-140119400D01*
X95130768Y-140119400D01*
X95286951Y-140275856D01*
X95674347Y-140436717D01*
X95897278Y-140436912D01*
X96633933Y-141173567D01*
X96873001Y-141333307D01*
X97155000Y-141389400D01*
X103385768Y-141389400D01*
X103541951Y-141545856D01*
X103929347Y-141706717D01*
X104348813Y-141707083D01*
X104736489Y-141546898D01*
X105033356Y-141250549D01*
X105194217Y-140863153D01*
X105194583Y-140443687D01*
X105060590Y-140119400D01*
X106374766Y-140119400D01*
X107428933Y-141173567D01*
X107668001Y-141333307D01*
X107950000Y-141389400D01*
X111005768Y-141389400D01*
X111161951Y-141545856D01*
X111549347Y-141706717D01*
X111968813Y-141707083D01*
X112356489Y-141546898D01*
X112653356Y-141250549D01*
X112814217Y-140863153D01*
X112814583Y-140443687D01*
X112811779Y-140436900D01*
X116740337Y-140436900D01*
X116738283Y-140441847D01*
X116737917Y-140861313D01*
X116898102Y-141248989D01*
X117194451Y-141545856D01*
X117581847Y-141706717D01*
X118001313Y-141707083D01*
X118388989Y-141546898D01*
X118546762Y-141389400D01*
X144043010Y-141389400D01*
X144042917Y-141496313D01*
X144203102Y-141883989D01*
X144499451Y-142180856D01*
X144581920Y-142215100D01*
X53047400Y-142215100D01*
X53047400Y-138897354D01*
X54472191Y-138897354D01*
X54830708Y-139765029D01*
X55493979Y-140429459D01*
X56361028Y-140789489D01*
X57299854Y-140790309D01*
X58167529Y-140431792D01*
X58831959Y-139768521D01*
X58903990Y-139595050D01*
X60854709Y-139595050D01*
X61198033Y-140425958D01*
X61833198Y-141062233D01*
X62663506Y-141407007D01*
X63562550Y-141407791D01*
X64393458Y-141064467D01*
X65029733Y-140429302D01*
X65374507Y-139598994D01*
X65375291Y-138699950D01*
X65031967Y-137869042D01*
X64396802Y-137232767D01*
X63566494Y-136887993D01*
X62667450Y-136887209D01*
X61836542Y-137230533D01*
X61200267Y-137865698D01*
X60855493Y-138696006D01*
X60854709Y-139595050D01*
X58903990Y-139595050D01*
X59191989Y-138901472D01*
X59192809Y-137962646D01*
X58834292Y-137094971D01*
X58171021Y-136430541D01*
X57303972Y-136070511D01*
X56365146Y-136069691D01*
X55497471Y-136428208D01*
X54833041Y-137091479D01*
X54473011Y-137958528D01*
X54472191Y-138897354D01*
X53047400Y-138897354D01*
X53047400Y-131655806D01*
X61461796Y-131655806D01*
X61606890Y-131948868D01*
X62337758Y-132220454D01*
X63116923Y-132191675D01*
X63703110Y-131948868D01*
X63848204Y-131655806D01*
X62655000Y-130462602D01*
X61461796Y-131655806D01*
X53047400Y-131655806D01*
X53047400Y-129930258D01*
X60682046Y-129930258D01*
X60710825Y-130709423D01*
X60953632Y-131295610D01*
X61246694Y-131440704D01*
X62439898Y-130247500D01*
X62870102Y-130247500D01*
X64063306Y-131440704D01*
X64356368Y-131295610D01*
X64627954Y-130564742D01*
X64604519Y-129930258D01*
X66182046Y-129930258D01*
X66210825Y-130709423D01*
X66453632Y-131295610D01*
X66746694Y-131440704D01*
X67939898Y-130247500D01*
X68370102Y-130247500D01*
X69563306Y-131440704D01*
X69856368Y-131295610D01*
X70127954Y-130564742D01*
X70099175Y-129785577D01*
X69856368Y-129199390D01*
X69563306Y-129054296D01*
X68370102Y-130247500D01*
X67939898Y-130247500D01*
X66746694Y-129054296D01*
X66453632Y-129199390D01*
X66182046Y-129930258D01*
X64604519Y-129930258D01*
X64599175Y-129785577D01*
X64356368Y-129199390D01*
X64063306Y-129054296D01*
X62870102Y-130247500D01*
X62439898Y-130247500D01*
X61246694Y-129054296D01*
X60953632Y-129199390D01*
X60682046Y-129930258D01*
X53047400Y-129930258D01*
X53047400Y-128839194D01*
X61461796Y-128839194D01*
X62655000Y-130032398D01*
X63848204Y-128839194D01*
X66961796Y-128839194D01*
X68155000Y-130032398D01*
X69348204Y-128839194D01*
X69203110Y-128546132D01*
X69021948Y-128478813D01*
X88797917Y-128478813D01*
X88958102Y-128866489D01*
X89254451Y-129163356D01*
X89641847Y-129324217D01*
X89864778Y-129324412D01*
X90649570Y-130109204D01*
X90546644Y-130211951D01*
X90385783Y-130599347D01*
X90385417Y-131018813D01*
X90545602Y-131406489D01*
X90841951Y-131703356D01*
X91229347Y-131864217D01*
X91648813Y-131864583D01*
X92036489Y-131704398D01*
X92333356Y-131408049D01*
X92494217Y-131020653D01*
X92494583Y-130601187D01*
X92334398Y-130213511D01*
X92176900Y-130055738D01*
X92176900Y-129857500D01*
X92156631Y-129755600D01*
X92120807Y-129575500D01*
X91961067Y-129336433D01*
X90906890Y-128282256D01*
X90907083Y-128061187D01*
X90746898Y-127673511D01*
X90450549Y-127376644D01*
X90063153Y-127215783D01*
X89643687Y-127215417D01*
X89256011Y-127375602D01*
X88959144Y-127671951D01*
X88798283Y-128059347D01*
X88797917Y-128478813D01*
X69021948Y-128478813D01*
X68472242Y-128274546D01*
X67693077Y-128303325D01*
X67106890Y-128546132D01*
X66961796Y-128839194D01*
X63848204Y-128839194D01*
X63703110Y-128546132D01*
X62972242Y-128274546D01*
X62193077Y-128303325D01*
X61606890Y-128546132D01*
X61461796Y-128839194D01*
X53047400Y-128839194D01*
X53047400Y-127455806D01*
X61461796Y-127455806D01*
X61606890Y-127748868D01*
X62337758Y-128020454D01*
X63116923Y-127991675D01*
X63703110Y-127748868D01*
X63848204Y-127455806D01*
X66961796Y-127455806D01*
X67106890Y-127748868D01*
X67837758Y-128020454D01*
X68616923Y-127991675D01*
X69203110Y-127748868D01*
X69348204Y-127455806D01*
X68155000Y-126262602D01*
X66961796Y-127455806D01*
X63848204Y-127455806D01*
X62655000Y-126262602D01*
X61461796Y-127455806D01*
X53047400Y-127455806D01*
X53047400Y-125730258D01*
X60682046Y-125730258D01*
X60710825Y-126509423D01*
X60953632Y-127095610D01*
X61246694Y-127240704D01*
X62439898Y-126047500D01*
X62870102Y-126047500D01*
X64063306Y-127240704D01*
X64356368Y-127095610D01*
X64627954Y-126364742D01*
X64604519Y-125730258D01*
X66182046Y-125730258D01*
X66210825Y-126509423D01*
X66453632Y-127095610D01*
X66746694Y-127240704D01*
X67939898Y-126047500D01*
X68370102Y-126047500D01*
X69563306Y-127240704D01*
X69856368Y-127095610D01*
X70127954Y-126364742D01*
X70099175Y-125585577D01*
X69856368Y-124999390D01*
X69563306Y-124854296D01*
X68370102Y-126047500D01*
X67939898Y-126047500D01*
X66746694Y-124854296D01*
X66453632Y-124999390D01*
X66182046Y-125730258D01*
X64604519Y-125730258D01*
X64599175Y-125585577D01*
X64356368Y-124999390D01*
X64063306Y-124854296D01*
X62870102Y-126047500D01*
X62439898Y-126047500D01*
X61246694Y-124854296D01*
X60953632Y-124999390D01*
X60682046Y-125730258D01*
X53047400Y-125730258D01*
X53047400Y-124639194D01*
X61461796Y-124639194D01*
X62655000Y-125832398D01*
X63848204Y-124639194D01*
X66961796Y-124639194D01*
X68155000Y-125832398D01*
X69348204Y-124639194D01*
X69203110Y-124346132D01*
X68472242Y-124074546D01*
X67693077Y-124103325D01*
X67106890Y-124346132D01*
X66961796Y-124639194D01*
X63848204Y-124639194D01*
X63703110Y-124346132D01*
X62972242Y-124074546D01*
X62193077Y-124103325D01*
X61606890Y-124346132D01*
X61461796Y-124639194D01*
X53047400Y-124639194D01*
X53047400Y-83017354D01*
X54472191Y-83017354D01*
X54830708Y-83885029D01*
X55493979Y-84549459D01*
X56361028Y-84909489D01*
X57299854Y-84910309D01*
X58167529Y-84551792D01*
X58831959Y-83888521D01*
X59191989Y-83021472D01*
X59192359Y-82597550D01*
X60854709Y-82597550D01*
X61198033Y-83428458D01*
X61833198Y-84064733D01*
X62663506Y-84409507D01*
X63562550Y-84410291D01*
X64183032Y-84153913D01*
X234864015Y-84153913D01*
X235585000Y-84874898D01*
X236305985Y-84153913D01*
X236240960Y-83928381D01*
X235746496Y-83765779D01*
X235227446Y-83804777D01*
X234929040Y-83928381D01*
X234864015Y-84153913D01*
X64183032Y-84153913D01*
X64393458Y-84066967D01*
X65029733Y-83431802D01*
X65201826Y-83017354D01*
X245289691Y-83017354D01*
X245648208Y-83885029D01*
X246311479Y-84549459D01*
X247178528Y-84909489D01*
X248117354Y-84910309D01*
X248985029Y-84551792D01*
X249649459Y-83888521D01*
X250009489Y-83021472D01*
X250010309Y-82082646D01*
X249651792Y-81214971D01*
X248988521Y-80550541D01*
X248121472Y-80190511D01*
X247182646Y-80189691D01*
X246314971Y-80548208D01*
X245650541Y-81211479D01*
X245290511Y-82078528D01*
X245289691Y-83017354D01*
X65201826Y-83017354D01*
X65374507Y-82601494D01*
X65375291Y-81702450D01*
X65031967Y-80871542D01*
X64396802Y-80235267D01*
X63566494Y-79890493D01*
X62667450Y-79889709D01*
X61836542Y-80233033D01*
X61200267Y-80868198D01*
X60855493Y-81698506D01*
X60854709Y-82597550D01*
X59192359Y-82597550D01*
X59192809Y-82082646D01*
X58834292Y-81214971D01*
X58171021Y-80550541D01*
X57303972Y-80190511D01*
X56365146Y-80189691D01*
X55497471Y-80548208D01*
X54833041Y-81211479D01*
X54473011Y-82078528D01*
X54472191Y-83017354D01*
X53047400Y-83017354D01*
X53047400Y-78764900D01*
X251422600Y-78764900D01*
X251422600Y-142215100D01*
X251422600Y-142215100D01*
G37*
X251422600Y-142215100D02*
X235699534Y-142215100D01*
X239017280Y-138897354D01*
X245289691Y-138897354D01*
X245648208Y-139765029D01*
X246311479Y-140429459D01*
X247178528Y-140789489D01*
X248117354Y-140790309D01*
X248985029Y-140431792D01*
X249649459Y-139768521D01*
X250009489Y-138901472D01*
X250010309Y-137962646D01*
X249651792Y-137094971D01*
X248988521Y-136430541D01*
X248121472Y-136070511D01*
X247182646Y-136069691D01*
X246314971Y-136428208D01*
X245650541Y-137091479D01*
X245290511Y-137958528D01*
X245289691Y-138897354D01*
X239017280Y-138897354D01*
X242456067Y-135458567D01*
X242615807Y-135219500D01*
X242671900Y-134937500D01*
X242671900Y-93980000D01*
X242615807Y-93698001D01*
X242456067Y-93458933D01*
X241971811Y-92974677D01*
X241973172Y-92971399D01*
X241973627Y-92450885D01*
X241774854Y-91969819D01*
X241407117Y-91601439D01*
X241401900Y-91599273D01*
X241401900Y-86201210D01*
X241405181Y-86199854D01*
X241773561Y-85832117D01*
X241973172Y-85351399D01*
X241973627Y-84830885D01*
X241774854Y-84349819D01*
X241407117Y-83981439D01*
X240926399Y-83781828D01*
X240405885Y-83781373D01*
X239924819Y-83980146D01*
X239556439Y-84347883D01*
X239356828Y-84828601D01*
X239356373Y-85349115D01*
X239555146Y-85830181D01*
X239922883Y-86198561D01*
X239928100Y-86200727D01*
X239928100Y-91598790D01*
X239924819Y-91600146D01*
X239556439Y-91967883D01*
X239356828Y-92448601D01*
X239356373Y-92969115D01*
X239555146Y-93450181D01*
X239922883Y-93818561D01*
X239928780Y-93821009D01*
X239924819Y-93822646D01*
X239556439Y-94190383D01*
X239356828Y-94671101D01*
X239356373Y-95191615D01*
X239555146Y-95672681D01*
X239922883Y-96041061D01*
X239928100Y-96043227D01*
X239928100Y-101441290D01*
X239924819Y-101442646D01*
X239556439Y-101810383D01*
X239356828Y-102291101D01*
X239356373Y-102811615D01*
X239555146Y-103292681D01*
X239922883Y-103661061D01*
X239928100Y-103663227D01*
X239928100Y-125294993D01*
X239916342Y-125287137D01*
X239338364Y-125172170D01*
X237546636Y-125172170D01*
X236968658Y-125287137D01*
X236478671Y-125614535D01*
X236151273Y-126104522D01*
X236036306Y-126682500D01*
X236151273Y-127260478D01*
X236478671Y-127750465D01*
X236781039Y-127952500D01*
X236478671Y-128154535D01*
X236257461Y-128485600D01*
X235902500Y-128485600D01*
X235620501Y-128541693D01*
X235399716Y-128689217D01*
X235381433Y-128701433D01*
X234428933Y-129653933D01*
X234269193Y-129893000D01*
X234269193Y-129893001D01*
X234213100Y-130175000D01*
X234213100Y-136854766D01*
X233692266Y-137375600D01*
X163817734Y-137375600D01*
X163386425Y-136944291D01*
X163721313Y-136944583D01*
X164108989Y-136784398D01*
X164405856Y-136488049D01*
X164566717Y-136100653D01*
X164566912Y-135877722D01*
X166617943Y-133826691D01*
X179920362Y-133826691D01*
X180128782Y-134331104D01*
X180514366Y-134717362D01*
X181018415Y-134926661D01*
X181564191Y-134927138D01*
X182068604Y-134718718D01*
X182454862Y-134333134D01*
X182562506Y-134073898D01*
X182668782Y-134331104D01*
X183054366Y-134717362D01*
X183558415Y-134926661D01*
X184104191Y-134927138D01*
X184608604Y-134718718D01*
X184994862Y-134333134D01*
X185102506Y-134073898D01*
X185208782Y-134331104D01*
X185594366Y-134717362D01*
X186098415Y-134926661D01*
X186644191Y-134927138D01*
X187148604Y-134718718D01*
X187534862Y-134333134D01*
X187642506Y-134073898D01*
X187748782Y-134331104D01*
X188134366Y-134717362D01*
X188638415Y-134926661D01*
X189184191Y-134927138D01*
X189688604Y-134718718D01*
X190074862Y-134333134D01*
X190182506Y-134073898D01*
X190288782Y-134331104D01*
X190674366Y-134717362D01*
X191178415Y-134926661D01*
X191724191Y-134927138D01*
X192228604Y-134718718D01*
X192614862Y-134333134D01*
X192722506Y-134073898D01*
X192828782Y-134331104D01*
X193214366Y-134717362D01*
X193718415Y-134926661D01*
X194264191Y-134927138D01*
X194768604Y-134718718D01*
X195154862Y-134333134D01*
X195364161Y-133829085D01*
X195364638Y-133283309D01*
X195156218Y-132778896D01*
X194770634Y-132392638D01*
X194266585Y-132183339D01*
X193720809Y-132182862D01*
X193216396Y-132391282D01*
X192830138Y-132776866D01*
X192722494Y-133036102D01*
X192616218Y-132778896D01*
X192230634Y-132392638D01*
X191726585Y-132183339D01*
X191180809Y-132182862D01*
X190676396Y-132391282D01*
X190290138Y-132776866D01*
X190182494Y-133036102D01*
X190076218Y-132778896D01*
X189690634Y-132392638D01*
X189186585Y-132183339D01*
X188640809Y-132182862D01*
X188136396Y-132391282D01*
X187750138Y-132776866D01*
X187642494Y-133036102D01*
X187536218Y-132778896D01*
X187150634Y-132392638D01*
X186646585Y-132183339D01*
X186100809Y-132182862D01*
X185596396Y-132391282D01*
X185210138Y-132776866D01*
X185102494Y-133036102D01*
X184996218Y-132778896D01*
X184610634Y-132392638D01*
X184106585Y-132183339D01*
X183560809Y-132182862D01*
X183056396Y-132391282D01*
X182670138Y-132776866D01*
X182562494Y-133036102D01*
X182456218Y-132778896D01*
X182070634Y-132392638D01*
X181566585Y-132183339D01*
X181020809Y-132182862D01*
X180516396Y-132391282D01*
X180130138Y-132776866D01*
X179920839Y-133280915D01*
X179920362Y-133826691D01*
X166617943Y-133826691D01*
X166891067Y-133553567D01*
X166987567Y-133409144D01*
X167050807Y-133314499D01*
X167106900Y-133032500D01*
X167106900Y-129341732D01*
X167263356Y-129185549D01*
X167424217Y-128798153D01*
X167424583Y-128378687D01*
X167421779Y-128371900D01*
X194322266Y-128371900D01*
X195376433Y-129426067D01*
X195615501Y-129585807D01*
X195897500Y-129641900D01*
X229115768Y-129641900D01*
X229271951Y-129798356D01*
X229659347Y-129959217D01*
X230078813Y-129959583D01*
X230466489Y-129799398D01*
X230763356Y-129503049D01*
X230924217Y-129115653D01*
X230924583Y-128696187D01*
X230764398Y-128308511D01*
X230468049Y-128011644D01*
X230080653Y-127850783D01*
X229661187Y-127850417D01*
X229273511Y-128010602D01*
X229115738Y-128168100D01*
X226477163Y-128168100D01*
X226479217Y-128163153D01*
X226479583Y-127743687D01*
X226319398Y-127356011D01*
X226023049Y-127059144D01*
X225635653Y-126898283D01*
X225216187Y-126897917D01*
X224828511Y-127058102D01*
X224670738Y-127215600D01*
X222032163Y-127215600D01*
X222034217Y-127210653D01*
X222034583Y-126791187D01*
X221874398Y-126403511D01*
X221578049Y-126106644D01*
X221190653Y-125945783D01*
X220771187Y-125945417D01*
X220383511Y-126105602D01*
X220225738Y-126263100D01*
X217587163Y-126263100D01*
X217589217Y-126258153D01*
X217589583Y-125838687D01*
X217429398Y-125451011D01*
X217133049Y-125154144D01*
X216745653Y-124993283D01*
X216326187Y-124992917D01*
X215938511Y-125153102D01*
X215780738Y-125310600D01*
X213142163Y-125310600D01*
X213144217Y-125305653D01*
X213144583Y-124886187D01*
X212984398Y-124498511D01*
X212688049Y-124201644D01*
X212300653Y-124040783D01*
X211881187Y-124040417D01*
X211493511Y-124200602D01*
X211335738Y-124358100D01*
X208697163Y-124358100D01*
X208699217Y-124353153D01*
X208699583Y-123933687D01*
X208539398Y-123546011D01*
X208243049Y-123249144D01*
X207855653Y-123088283D01*
X207436187Y-123087917D01*
X207048511Y-123248102D01*
X206890738Y-123405600D01*
X204252163Y-123405600D01*
X204254217Y-123400653D01*
X204254583Y-122981187D01*
X204094398Y-122593511D01*
X203798049Y-122296644D01*
X203410653Y-122135783D01*
X202991187Y-122135417D01*
X202603511Y-122295602D01*
X202445738Y-122453100D01*
X199807163Y-122453100D01*
X199809217Y-122448153D01*
X199809583Y-122028687D01*
X199728065Y-121831400D01*
X201884413Y-121831400D01*
X202137198Y-122000305D01*
X202565000Y-122085400D01*
X229235000Y-122085400D01*
X229662802Y-122000305D01*
X230025475Y-121757975D01*
X230267805Y-121395302D01*
X230352900Y-120967500D01*
X230267805Y-120539698D01*
X230025475Y-120177025D01*
X229662802Y-119934695D01*
X229235000Y-119849600D01*
X219461475Y-119849600D01*
X219650856Y-119660549D01*
X219811717Y-119273153D01*
X219812083Y-118853687D01*
X219651898Y-118466011D01*
X219355549Y-118169144D01*
X218968153Y-118008283D01*
X218548687Y-118007917D01*
X218161011Y-118168102D01*
X218003238Y-118325600D01*
X209351732Y-118325600D01*
X209195549Y-118169144D01*
X208808153Y-118008283D01*
X208388687Y-118007917D01*
X208001011Y-118168102D01*
X207843238Y-118325600D01*
X197584663Y-118325600D01*
X197586717Y-118320653D01*
X197587083Y-117901187D01*
X197584279Y-117894400D01*
X213558268Y-117894400D01*
X213714451Y-118050856D01*
X214101847Y-118211717D01*
X214521313Y-118212083D01*
X214908989Y-118051898D01*
X215205856Y-117755549D01*
X215366717Y-117368153D01*
X215367083Y-116948687D01*
X215206898Y-116561011D01*
X214910549Y-116264144D01*
X214523153Y-116103283D01*
X214103687Y-116102917D01*
X213716011Y-116263102D01*
X213558238Y-116420600D01*
X210919663Y-116420600D01*
X210921717Y-116415653D01*
X210922083Y-115996187D01*
X210919279Y-115989400D01*
X222448268Y-115989400D01*
X222604451Y-116145856D01*
X222991847Y-116306717D01*
X223411313Y-116307083D01*
X223798989Y-116146898D01*
X224095856Y-115850549D01*
X224256717Y-115463153D01*
X224257083Y-115043687D01*
X224254279Y-115036900D01*
X228163268Y-115036900D01*
X228319451Y-115193356D01*
X228706847Y-115354217D01*
X229126313Y-115354583D01*
X229513989Y-115194398D01*
X229810856Y-114898049D01*
X229971717Y-114510653D01*
X229972083Y-114091187D01*
X229811898Y-113703511D01*
X229515549Y-113406644D01*
X229128153Y-113245783D01*
X228708687Y-113245417D01*
X228701987Y-113248185D01*
X228702083Y-113138687D01*
X228541898Y-112751011D01*
X228245549Y-112454144D01*
X227858153Y-112293283D01*
X227438687Y-112292917D01*
X227051011Y-112453102D01*
X226893238Y-112610600D01*
X194876911Y-112610600D01*
X195154862Y-112333134D01*
X195364161Y-111829085D01*
X195364638Y-111283309D01*
X195210141Y-110909400D01*
X201930000Y-110909400D01*
X202212000Y-110853307D01*
X202451067Y-110693567D01*
X203505234Y-109639400D01*
X209005083Y-109639400D01*
X209021282Y-109678604D01*
X209406866Y-110064862D01*
X209910915Y-110274161D01*
X210456691Y-110274638D01*
X210961104Y-110066218D01*
X211347362Y-109680634D01*
X211364484Y-109639400D01*
X211784766Y-109639400D01*
X212838933Y-110693567D01*
X213078001Y-110853307D01*
X213360000Y-110909400D01*
X222250000Y-110909400D01*
X222532000Y-110853307D01*
X222771067Y-110693567D01*
X223825234Y-109639400D01*
X229325083Y-109639400D01*
X229341282Y-109678604D01*
X229726866Y-110064862D01*
X230230915Y-110274161D01*
X230776691Y-110274638D01*
X231281104Y-110066218D01*
X231667362Y-109680634D01*
X231858633Y-109220000D01*
X236467247Y-109220000D01*
X236579411Y-109783884D01*
X236898825Y-110261922D01*
X237240169Y-110490000D01*
X236898825Y-110718078D01*
X236579411Y-111196116D01*
X236467247Y-111760000D01*
X236579411Y-112323884D01*
X236898825Y-112801922D01*
X237240169Y-113030000D01*
X236898825Y-113258078D01*
X236579411Y-113736116D01*
X236467247Y-114300000D01*
X236579411Y-114863884D01*
X236898825Y-115341922D01*
X237240169Y-115570000D01*
X236898825Y-115798078D01*
X236579411Y-116276116D01*
X236467247Y-116840000D01*
X236579411Y-117403884D01*
X236898825Y-117881922D01*
X237240169Y-118110000D01*
X236898825Y-118338078D01*
X236579411Y-118816116D01*
X236467247Y-119380000D01*
X236579411Y-119943884D01*
X236898825Y-120421922D01*
X237376863Y-120741336D01*
X237940747Y-120853500D01*
X238309253Y-120853500D01*
X238873137Y-120741336D01*
X239351175Y-120421922D01*
X239670589Y-119943884D01*
X239782753Y-119380000D01*
X239670589Y-118816116D01*
X239351175Y-118338078D01*
X239009831Y-118110000D01*
X239351175Y-117881922D01*
X239670589Y-117403884D01*
X239782753Y-116840000D01*
X239670589Y-116276116D01*
X239351175Y-115798078D01*
X239009831Y-115570000D01*
X239351175Y-115341922D01*
X239670589Y-114863884D01*
X239782753Y-114300000D01*
X239670589Y-113736116D01*
X239351175Y-113258078D01*
X239009831Y-113030000D01*
X239351175Y-112801922D01*
X239670589Y-112323884D01*
X239782753Y-111760000D01*
X239670589Y-111196116D01*
X239351175Y-110718078D01*
X239009831Y-110490000D01*
X239351175Y-110261922D01*
X239670589Y-109783884D01*
X239782753Y-109220000D01*
X239670589Y-108656116D01*
X239351175Y-108178078D01*
X239294463Y-108140184D01*
X239486480Y-108060648D01*
X239658048Y-107889081D01*
X239750900Y-107664917D01*
X239750900Y-106984575D01*
X239598425Y-106832100D01*
X238277100Y-106832100D01*
X238277100Y-106852100D01*
X237972900Y-106852100D01*
X237972900Y-106832100D01*
X236651575Y-106832100D01*
X236499100Y-106984575D01*
X236499100Y-107664917D01*
X236591952Y-107889081D01*
X236763520Y-108060648D01*
X236955537Y-108140184D01*
X236898825Y-108178078D01*
X236579411Y-108656116D01*
X236467247Y-109220000D01*
X231858633Y-109220000D01*
X231876661Y-109176585D01*
X231877138Y-108630809D01*
X231668718Y-108126396D01*
X231283134Y-107740138D01*
X231023898Y-107632494D01*
X231281104Y-107526218D01*
X231667362Y-107140634D01*
X231876661Y-106636585D01*
X231877138Y-106090809D01*
X231713627Y-105695083D01*
X236499100Y-105695083D01*
X236499100Y-106375425D01*
X236651575Y-106527900D01*
X237972900Y-106527900D01*
X237972900Y-105358975D01*
X238277100Y-105358975D01*
X238277100Y-106527900D01*
X239598425Y-106527900D01*
X239750900Y-106375425D01*
X239750900Y-105695083D01*
X239658048Y-105470919D01*
X239486480Y-105299352D01*
X239262316Y-105206500D01*
X238429575Y-105206500D01*
X238277100Y-105358975D01*
X237972900Y-105358975D01*
X237820425Y-105206500D01*
X236987684Y-105206500D01*
X236763520Y-105299352D01*
X236591952Y-105470919D01*
X236499100Y-105695083D01*
X231713627Y-105695083D01*
X231668718Y-105586396D01*
X231283134Y-105200138D01*
X231023898Y-105092494D01*
X231281104Y-104986218D01*
X231667362Y-104600634D01*
X231876661Y-104096585D01*
X231877138Y-103550809D01*
X231851429Y-103488587D01*
X234864015Y-103488587D01*
X234929040Y-103714119D01*
X235423504Y-103876721D01*
X235942554Y-103837723D01*
X236240960Y-103714119D01*
X236305985Y-103488587D01*
X235585000Y-102767602D01*
X234864015Y-103488587D01*
X231851429Y-103488587D01*
X231668718Y-103046396D01*
X231283134Y-102660138D01*
X231023898Y-102552494D01*
X231281104Y-102446218D01*
X231336414Y-102391004D01*
X234260779Y-102391004D01*
X234299777Y-102910054D01*
X234423381Y-103208460D01*
X234648913Y-103273485D01*
X235369898Y-102552500D01*
X235800102Y-102552500D01*
X236521087Y-103273485D01*
X236746619Y-103208460D01*
X236909221Y-102713996D01*
X236870223Y-102194946D01*
X236746619Y-101896540D01*
X236521087Y-101831515D01*
X235800102Y-102552500D01*
X235369898Y-102552500D01*
X234648913Y-101831515D01*
X234423381Y-101896540D01*
X234260779Y-102391004D01*
X231336414Y-102391004D01*
X231667362Y-102060634D01*
X231851818Y-101616413D01*
X234864015Y-101616413D01*
X235585000Y-102337398D01*
X236305985Y-101616413D01*
X236240960Y-101390881D01*
X235746496Y-101228279D01*
X235227446Y-101267277D01*
X234929040Y-101390881D01*
X234864015Y-101616413D01*
X231851818Y-101616413D01*
X231876661Y-101556585D01*
X231877138Y-101010809D01*
X231668718Y-100506396D01*
X231283134Y-100120138D01*
X231023898Y-100012494D01*
X231281104Y-99906218D01*
X231667362Y-99520634D01*
X231876661Y-99016585D01*
X231877138Y-98470809D01*
X231668718Y-97966396D01*
X231283134Y-97580138D01*
X231023898Y-97472494D01*
X231281104Y-97366218D01*
X231667362Y-96980634D01*
X231876661Y-96476585D01*
X231877138Y-95930809D01*
X231851429Y-95868587D01*
X234864015Y-95868587D01*
X234929040Y-96094119D01*
X235423504Y-96256721D01*
X235942554Y-96217723D01*
X236240960Y-96094119D01*
X236305985Y-95868587D01*
X235585000Y-95147602D01*
X234864015Y-95868587D01*
X231851429Y-95868587D01*
X231668718Y-95426396D01*
X231283134Y-95040138D01*
X231023898Y-94932494D01*
X231281104Y-94826218D01*
X231336414Y-94771004D01*
X234260779Y-94771004D01*
X234299777Y-95290054D01*
X234423381Y-95588460D01*
X234648913Y-95653485D01*
X235369898Y-94932500D01*
X235800102Y-94932500D01*
X236521087Y-95653485D01*
X236746619Y-95588460D01*
X236909221Y-95093996D01*
X236870223Y-94574946D01*
X236746619Y-94276540D01*
X236521087Y-94211515D01*
X235800102Y-94932500D01*
X235369898Y-94932500D01*
X234648913Y-94211515D01*
X234423381Y-94276540D01*
X234260779Y-94771004D01*
X231336414Y-94771004D01*
X231667362Y-94440634D01*
X231876661Y-93936585D01*
X231876914Y-93646087D01*
X234864015Y-93646087D01*
X234914518Y-93821250D01*
X234864015Y-93996413D01*
X235585000Y-94717398D01*
X236305985Y-93996413D01*
X236255482Y-93821250D01*
X236305985Y-93646087D01*
X235585000Y-92925102D01*
X234864015Y-93646087D01*
X231876914Y-93646087D01*
X231877138Y-93390809D01*
X231668718Y-92886396D01*
X231331416Y-92548504D01*
X234260779Y-92548504D01*
X234299777Y-93067554D01*
X234423381Y-93365960D01*
X234648913Y-93430985D01*
X235369898Y-92710000D01*
X235800102Y-92710000D01*
X236521087Y-93430985D01*
X236746619Y-93365960D01*
X236909221Y-92871496D01*
X236870223Y-92352446D01*
X236746619Y-92054040D01*
X236521087Y-91989015D01*
X235800102Y-92710000D01*
X235369898Y-92710000D01*
X234648913Y-91989015D01*
X234423381Y-92054040D01*
X234260779Y-92548504D01*
X231331416Y-92548504D01*
X231283134Y-92500138D01*
X231023898Y-92392494D01*
X231281104Y-92286218D01*
X231667362Y-91900634D01*
X231719981Y-91773913D01*
X234864015Y-91773913D01*
X235585000Y-92494898D01*
X236305985Y-91773913D01*
X236240960Y-91548381D01*
X235746496Y-91385779D01*
X235227446Y-91424777D01*
X234929040Y-91548381D01*
X234864015Y-91773913D01*
X231719981Y-91773913D01*
X231876661Y-91396585D01*
X231877138Y-90850809D01*
X231668718Y-90346396D01*
X231283134Y-89960138D01*
X231023898Y-89852494D01*
X231281104Y-89746218D01*
X231667362Y-89360634D01*
X231876661Y-88856585D01*
X231877138Y-88310809D01*
X231668718Y-87806396D01*
X231283134Y-87420138D01*
X230779085Y-87210839D01*
X230233309Y-87210362D01*
X229728896Y-87418782D01*
X229342638Y-87804366D01*
X229325516Y-87845600D01*
X223520000Y-87845600D01*
X223238001Y-87901693D01*
X223237999Y-87901694D01*
X223238000Y-87901694D01*
X222998933Y-88061433D01*
X221944766Y-89115600D01*
X216529109Y-89115600D01*
X216636661Y-88856585D01*
X216637138Y-88310809D01*
X216428718Y-87806396D01*
X216043134Y-87420138D01*
X215539085Y-87210839D01*
X214993309Y-87210362D01*
X214488896Y-87418782D01*
X214102638Y-87804366D01*
X214085516Y-87845600D01*
X213665234Y-87845600D01*
X212611067Y-86791433D01*
X212372000Y-86631693D01*
X212090000Y-86575600D01*
X203200000Y-86575600D01*
X202918001Y-86631693D01*
X202917999Y-86631694D01*
X202918000Y-86631694D01*
X202678933Y-86791433D01*
X201624766Y-87845600D01*
X196124917Y-87845600D01*
X196108718Y-87806396D01*
X195723134Y-87420138D01*
X195219085Y-87210839D01*
X194673309Y-87210362D01*
X194168896Y-87418782D01*
X193782638Y-87804366D01*
X193765516Y-87845600D01*
X193345234Y-87845600D01*
X192291067Y-86791433D01*
X192052000Y-86631693D01*
X191770000Y-86575600D01*
X182880000Y-86575600D01*
X182598001Y-86631693D01*
X182597999Y-86631694D01*
X182598000Y-86631694D01*
X182358933Y-86791433D01*
X181304766Y-87845600D01*
X175804917Y-87845600D01*
X175788718Y-87806396D01*
X175403134Y-87420138D01*
X174899085Y-87210839D01*
X174353309Y-87210362D01*
X173848896Y-87418782D01*
X173462638Y-87804366D01*
X173445516Y-87845600D01*
X173025234Y-87845600D01*
X171971067Y-86791433D01*
X171732000Y-86631693D01*
X171450000Y-86575600D01*
X162560000Y-86575600D01*
X162278001Y-86631693D01*
X162277999Y-86631694D01*
X162278000Y-86631694D01*
X162038933Y-86791433D01*
X160984766Y-87845600D01*
X155484917Y-87845600D01*
X155468718Y-87806396D01*
X155083134Y-87420138D01*
X154579085Y-87210839D01*
X154033309Y-87210362D01*
X153528896Y-87418782D01*
X153142638Y-87804366D01*
X153125516Y-87845600D01*
X152705234Y-87845600D01*
X151651067Y-86791433D01*
X151412000Y-86631693D01*
X151130000Y-86575600D01*
X142240000Y-86575600D01*
X141958001Y-86631693D01*
X141957999Y-86631694D01*
X141958000Y-86631694D01*
X141718933Y-86791433D01*
X140664766Y-87845600D01*
X135164917Y-87845600D01*
X135148718Y-87806396D01*
X134763134Y-87420138D01*
X134259085Y-87210839D01*
X133713309Y-87210362D01*
X133208896Y-87418782D01*
X132822638Y-87804366D01*
X132805516Y-87845600D01*
X132385234Y-87845600D01*
X131331067Y-86791433D01*
X131092000Y-86631693D01*
X130810000Y-86575600D01*
X121920000Y-86575600D01*
X121638001Y-86631693D01*
X121637999Y-86631694D01*
X121638000Y-86631694D01*
X121398933Y-86791433D01*
X120344766Y-87845600D01*
X114844917Y-87845600D01*
X114828718Y-87806396D01*
X114443134Y-87420138D01*
X113939085Y-87210839D01*
X113393309Y-87210362D01*
X112888896Y-87418782D01*
X112502638Y-87804366D01*
X112485516Y-87845600D01*
X112065234Y-87845600D01*
X111011067Y-86791433D01*
X110772000Y-86631693D01*
X110490000Y-86575600D01*
X101600000Y-86575600D01*
X101318001Y-86631693D01*
X101317999Y-86631694D01*
X101318000Y-86631694D01*
X101078933Y-86791433D01*
X100024766Y-87845600D01*
X94524917Y-87845600D01*
X94508718Y-87806396D01*
X94123134Y-87420138D01*
X93619085Y-87210839D01*
X93073309Y-87210362D01*
X92568896Y-87418782D01*
X92182638Y-87804366D01*
X92165516Y-87845600D01*
X91745234Y-87845600D01*
X90691067Y-86791433D01*
X90452000Y-86631693D01*
X90170000Y-86575600D01*
X81280000Y-86575600D01*
X80998001Y-86631693D01*
X80997999Y-86631694D01*
X80998000Y-86631694D01*
X80758933Y-86791433D01*
X79704766Y-87845600D01*
X74204917Y-87845600D01*
X74188718Y-87806396D01*
X73803134Y-87420138D01*
X73299085Y-87210839D01*
X72753309Y-87210362D01*
X72248896Y-87418782D01*
X71862638Y-87804366D01*
X71653339Y-88308415D01*
X71652862Y-88854191D01*
X71861282Y-89358604D01*
X72246866Y-89744862D01*
X72506102Y-89852506D01*
X72248896Y-89958782D01*
X71862638Y-90344366D01*
X71653339Y-90848415D01*
X71653157Y-91057093D01*
X71592975Y-90967025D01*
X70885475Y-90259525D01*
X70522802Y-90017195D01*
X70095000Y-89932100D01*
X69808351Y-89932100D01*
X69266644Y-89389446D01*
X68546559Y-89090441D01*
X67766862Y-89089760D01*
X67046256Y-89387509D01*
X66500713Y-89932100D01*
X64308351Y-89932100D01*
X63766644Y-89389446D01*
X63046559Y-89090441D01*
X62266862Y-89089760D01*
X61546256Y-89387509D01*
X60994446Y-89938356D01*
X60695441Y-90658441D01*
X60694760Y-91438138D01*
X60992509Y-92158744D01*
X61543356Y-92710554D01*
X62263441Y-93009559D01*
X63043138Y-93010240D01*
X63763744Y-92712491D01*
X64309287Y-92167900D01*
X66501649Y-92167900D01*
X67043356Y-92710554D01*
X67763441Y-93009559D01*
X68543138Y-93010240D01*
X69263744Y-92712491D01*
X69684600Y-92292369D01*
X69684600Y-94116848D01*
X69563306Y-94056796D01*
X68370102Y-95250000D01*
X69563306Y-96443204D01*
X69684600Y-96383152D01*
X69684600Y-98316848D01*
X69563306Y-98256796D01*
X68370102Y-99450000D01*
X69563306Y-100643204D01*
X69684600Y-100583152D01*
X69684600Y-102408133D01*
X69266644Y-101989446D01*
X68546559Y-101690441D01*
X67766862Y-101689760D01*
X67046256Y-101987509D01*
X66494446Y-102538356D01*
X66195441Y-103258441D01*
X66194760Y-104038138D01*
X66492509Y-104758744D01*
X67043356Y-105310554D01*
X67763441Y-105609559D01*
X68543138Y-105610240D01*
X69263744Y-105312491D01*
X69684600Y-104892369D01*
X69684600Y-116405633D01*
X69266644Y-115986946D01*
X68546559Y-115687941D01*
X67766862Y-115687260D01*
X67046256Y-115985009D01*
X66500713Y-116529600D01*
X64308351Y-116529600D01*
X63766644Y-115986946D01*
X63046559Y-115687941D01*
X62266862Y-115687260D01*
X61546256Y-115985009D01*
X61000713Y-116529600D01*
X59855400Y-116529600D01*
X59855400Y-113395050D01*
X60854709Y-113395050D01*
X61198033Y-114225958D01*
X61833198Y-114862233D01*
X62663506Y-115207007D01*
X63562550Y-115207791D01*
X64393458Y-114864467D01*
X65029733Y-114229302D01*
X65374507Y-113398994D01*
X65375291Y-112499950D01*
X65031967Y-111669042D01*
X64396802Y-111032767D01*
X63566494Y-110687993D01*
X62667450Y-110687209D01*
X61836542Y-111030533D01*
X61200267Y-111665698D01*
X60855493Y-112496006D01*
X60854709Y-113395050D01*
X59855400Y-113395050D01*
X59855400Y-108797550D01*
X60854709Y-108797550D01*
X61198033Y-109628458D01*
X61833198Y-110264733D01*
X62663506Y-110609507D01*
X63562550Y-110610291D01*
X64393458Y-110266967D01*
X65029733Y-109631802D01*
X65374507Y-108801494D01*
X65375291Y-107902450D01*
X65031967Y-107071542D01*
X64396802Y-106435267D01*
X63566494Y-106090493D01*
X62667450Y-106089709D01*
X61836542Y-106433033D01*
X61200267Y-107068198D01*
X60855493Y-107898506D01*
X60854709Y-108797550D01*
X59855400Y-108797550D01*
X59855400Y-104038138D01*
X60694760Y-104038138D01*
X60992509Y-104758744D01*
X61543356Y-105310554D01*
X62263441Y-105609559D01*
X63043138Y-105610240D01*
X63763744Y-105312491D01*
X64315554Y-104761644D01*
X64614559Y-104041559D01*
X64615240Y-103261862D01*
X64317491Y-102541256D01*
X63766644Y-101989446D01*
X63046559Y-101690441D01*
X62266862Y-101689760D01*
X61546256Y-101987509D01*
X60994446Y-102538356D01*
X60695441Y-103258441D01*
X60694760Y-104038138D01*
X59855400Y-104038138D01*
X59855400Y-100858306D01*
X61461796Y-100858306D01*
X61606890Y-101151368D01*
X62337758Y-101422954D01*
X63116923Y-101394175D01*
X63703110Y-101151368D01*
X63848204Y-100858306D01*
X66961796Y-100858306D01*
X67106890Y-101151368D01*
X67837758Y-101422954D01*
X68616923Y-101394175D01*
X69203110Y-101151368D01*
X69348204Y-100858306D01*
X68155000Y-99665102D01*
X66961796Y-100858306D01*
X63848204Y-100858306D01*
X62655000Y-99665102D01*
X61461796Y-100858306D01*
X59855400Y-100858306D01*
X59855400Y-99132758D01*
X60682046Y-99132758D01*
X60710825Y-99911923D01*
X60953632Y-100498110D01*
X61246694Y-100643204D01*
X62439898Y-99450000D01*
X62870102Y-99450000D01*
X64063306Y-100643204D01*
X64356368Y-100498110D01*
X64627954Y-99767242D01*
X64604519Y-99132758D01*
X66182046Y-99132758D01*
X66210825Y-99911923D01*
X66453632Y-100498110D01*
X66746694Y-100643204D01*
X67939898Y-99450000D01*
X66746694Y-98256796D01*
X66453632Y-98401890D01*
X66182046Y-99132758D01*
X64604519Y-99132758D01*
X64599175Y-98988077D01*
X64356368Y-98401890D01*
X64063306Y-98256796D01*
X62870102Y-99450000D01*
X62439898Y-99450000D01*
X61246694Y-98256796D01*
X60953632Y-98401890D01*
X60682046Y-99132758D01*
X59855400Y-99132758D01*
X59855400Y-98041694D01*
X61461796Y-98041694D01*
X62655000Y-99234898D01*
X63848204Y-98041694D01*
X66961796Y-98041694D01*
X68155000Y-99234898D01*
X69348204Y-98041694D01*
X69203110Y-97748632D01*
X68472242Y-97477046D01*
X67693077Y-97505825D01*
X67106890Y-97748632D01*
X66961796Y-98041694D01*
X63848204Y-98041694D01*
X63703110Y-97748632D01*
X62972242Y-97477046D01*
X62193077Y-97505825D01*
X61606890Y-97748632D01*
X61461796Y-98041694D01*
X59855400Y-98041694D01*
X59855400Y-96658306D01*
X61461796Y-96658306D01*
X61606890Y-96951368D01*
X62337758Y-97222954D01*
X63116923Y-97194175D01*
X63703110Y-96951368D01*
X63848204Y-96658306D01*
X66961796Y-96658306D01*
X67106890Y-96951368D01*
X67837758Y-97222954D01*
X68616923Y-97194175D01*
X69203110Y-96951368D01*
X69348204Y-96658306D01*
X68155000Y-95465102D01*
X66961796Y-96658306D01*
X63848204Y-96658306D01*
X62655000Y-95465102D01*
X61461796Y-96658306D01*
X59855400Y-96658306D01*
X59855400Y-94932758D01*
X60682046Y-94932758D01*
X60710825Y-95711923D01*
X60953632Y-96298110D01*
X61246694Y-96443204D01*
X62439898Y-95250000D01*
X62870102Y-95250000D01*
X64063306Y-96443204D01*
X64356368Y-96298110D01*
X64627954Y-95567242D01*
X64604519Y-94932758D01*
X66182046Y-94932758D01*
X66210825Y-95711923D01*
X66453632Y-96298110D01*
X66746694Y-96443204D01*
X67939898Y-95250000D01*
X66746694Y-94056796D01*
X66453632Y-94201890D01*
X66182046Y-94932758D01*
X64604519Y-94932758D01*
X64599175Y-94788077D01*
X64356368Y-94201890D01*
X64063306Y-94056796D01*
X62870102Y-95250000D01*
X62439898Y-95250000D01*
X61246694Y-94056796D01*
X60953632Y-94201890D01*
X60682046Y-94932758D01*
X59855400Y-94932758D01*
X59855400Y-93841694D01*
X61461796Y-93841694D01*
X62655000Y-95034898D01*
X63848204Y-93841694D01*
X66961796Y-93841694D01*
X68155000Y-95034898D01*
X69348204Y-93841694D01*
X69203110Y-93548632D01*
X68472242Y-93277046D01*
X67693077Y-93305825D01*
X67106890Y-93548632D01*
X66961796Y-93841694D01*
X63848204Y-93841694D01*
X63703110Y-93548632D01*
X62972242Y-93277046D01*
X62193077Y-93305825D01*
X61606890Y-93548632D01*
X61461796Y-93841694D01*
X59855400Y-93841694D01*
X59855400Y-88093050D01*
X59980549Y-87967900D01*
X61001649Y-87967900D01*
X61543356Y-88510554D01*
X62263441Y-88809559D01*
X63043138Y-88810240D01*
X63763744Y-88512491D01*
X64309287Y-87967900D01*
X66501649Y-87967900D01*
X67043356Y-88510554D01*
X67763441Y-88809559D01*
X68543138Y-88810240D01*
X69263744Y-88512491D01*
X69815554Y-87961644D01*
X70114559Y-87241559D01*
X70115240Y-86461862D01*
X69935182Y-86026087D01*
X234864015Y-86026087D01*
X234929040Y-86251619D01*
X235423504Y-86414221D01*
X235942554Y-86375223D01*
X236240960Y-86251619D01*
X236305985Y-86026087D01*
X235585000Y-85305102D01*
X234864015Y-86026087D01*
X69935182Y-86026087D01*
X69817491Y-85741256D01*
X69266644Y-85189446D01*
X68638226Y-84928504D01*
X234260779Y-84928504D01*
X234299777Y-85447554D01*
X234423381Y-85745960D01*
X234648913Y-85810985D01*
X235369898Y-85090000D01*
X235800102Y-85090000D01*
X236521087Y-85810985D01*
X236746619Y-85745960D01*
X236909221Y-85251496D01*
X236870223Y-84732446D01*
X236746619Y-84434040D01*
X236521087Y-84369015D01*
X235800102Y-85090000D01*
X235369898Y-85090000D01*
X234648913Y-84369015D01*
X234423381Y-84434040D01*
X234260779Y-84928504D01*
X68638226Y-84928504D01*
X68546559Y-84890441D01*
X67766862Y-84889760D01*
X67046256Y-85187509D01*
X66500713Y-85732100D01*
X64308351Y-85732100D01*
X63766644Y-85189446D01*
X63046559Y-84890441D01*
X62266862Y-84889760D01*
X61546256Y-85187509D01*
X61000713Y-85732100D01*
X59517505Y-85732100D01*
X59517500Y-85732099D01*
X59160676Y-85803077D01*
X59089698Y-85817195D01*
X58727025Y-86059525D01*
X58727023Y-86059528D01*
X57947025Y-86839525D01*
X57704695Y-87202198D01*
X57619600Y-87630000D01*
X57619600Y-117157500D01*
X57704695Y-117585302D01*
X57947025Y-117947975D01*
X58437023Y-118437972D01*
X58437025Y-118437975D01*
X58799698Y-118680305D01*
X58870676Y-118694423D01*
X59227500Y-118765401D01*
X59227505Y-118765400D01*
X61001649Y-118765400D01*
X61543356Y-119308054D01*
X62263441Y-119607059D01*
X63043138Y-119607740D01*
X63763744Y-119309991D01*
X64309287Y-118765400D01*
X66501649Y-118765400D01*
X67043356Y-119308054D01*
X67763441Y-119607059D01*
X68543138Y-119607740D01*
X69263744Y-119309991D01*
X69684600Y-118889869D01*
X69684600Y-120504450D01*
X69634053Y-120554997D01*
X69266644Y-120186946D01*
X68546559Y-119887941D01*
X67766862Y-119887260D01*
X67046256Y-120185009D01*
X66500713Y-120729600D01*
X64308351Y-120729600D01*
X63766644Y-120186946D01*
X63046559Y-119887941D01*
X62266862Y-119887260D01*
X61546256Y-120185009D01*
X60994446Y-120735856D01*
X60695441Y-121455941D01*
X60694760Y-122235638D01*
X60992509Y-122956244D01*
X61543356Y-123508054D01*
X62263441Y-123807059D01*
X63043138Y-123807740D01*
X63763744Y-123509991D01*
X64309287Y-122965400D01*
X66501649Y-122965400D01*
X67043356Y-123508054D01*
X67763441Y-123807059D01*
X68543138Y-123807740D01*
X69263744Y-123509991D01*
X69809287Y-122965400D01*
X69922500Y-122965400D01*
X70350302Y-122880305D01*
X70524644Y-122763813D01*
X88797917Y-122763813D01*
X88958102Y-123151489D01*
X89254451Y-123448356D01*
X89641847Y-123609217D01*
X90061313Y-123609583D01*
X90448989Y-123449398D01*
X90745856Y-123153049D01*
X90906717Y-122765653D01*
X90907083Y-122346187D01*
X90746898Y-121958511D01*
X90589400Y-121800738D01*
X90589400Y-117576990D01*
X90696313Y-117577083D01*
X91083989Y-117416898D01*
X91380856Y-117120549D01*
X91541717Y-116733153D01*
X91541718Y-116731313D01*
X93560417Y-116731313D01*
X93720602Y-117118989D01*
X94016951Y-117415856D01*
X94404347Y-117576717D01*
X94823813Y-117577083D01*
X95211489Y-117416898D01*
X95369262Y-117259400D01*
X100024766Y-117259400D01*
X100228110Y-117462744D01*
X100227917Y-117683813D01*
X100388102Y-118071489D01*
X100684451Y-118368356D01*
X101071847Y-118529217D01*
X101491313Y-118529583D01*
X101878989Y-118369398D01*
X102175856Y-118073049D01*
X102336717Y-117685653D01*
X102337083Y-117266187D01*
X102176898Y-116878511D01*
X101880549Y-116581644D01*
X101493153Y-116420783D01*
X101270222Y-116420588D01*
X100851067Y-116001433D01*
X100612000Y-115841693D01*
X100330000Y-115785600D01*
X95369232Y-115785600D01*
X95213049Y-115629144D01*
X94825653Y-115468283D01*
X94406187Y-115467917D01*
X94018511Y-115628102D01*
X93721644Y-115924451D01*
X93560783Y-116311847D01*
X93560417Y-116731313D01*
X91541718Y-116731313D01*
X91542083Y-116313687D01*
X91381898Y-115926011D01*
X91085549Y-115629144D01*
X90698153Y-115468283D01*
X90278687Y-115467917D01*
X89891011Y-115628102D01*
X89594144Y-115924451D01*
X89433283Y-116311847D01*
X89433088Y-116534778D01*
X89331433Y-116636433D01*
X89171693Y-116875500D01*
X89135833Y-117055783D01*
X89115600Y-117157500D01*
X89115600Y-121800768D01*
X88959144Y-121956951D01*
X88798283Y-122344347D01*
X88797917Y-122763813D01*
X70524644Y-122763813D01*
X70712975Y-122637975D01*
X71592975Y-121757975D01*
X71835305Y-121395302D01*
X71920401Y-120967500D01*
X71920400Y-120967495D01*
X71920400Y-118607233D01*
X72401618Y-118607653D01*
X72938386Y-118385865D01*
X73059062Y-118265400D01*
X76165640Y-118265400D01*
X76284453Y-118384421D01*
X76820834Y-118607146D01*
X77401618Y-118607653D01*
X77938386Y-118385865D01*
X78349421Y-117975547D01*
X78572146Y-117439166D01*
X78572653Y-116858382D01*
X78350865Y-116321614D01*
X77940547Y-115910579D01*
X77404166Y-115687854D01*
X76823382Y-115687347D01*
X76286614Y-115909135D01*
X76165938Y-116029600D01*
X73059360Y-116029600D01*
X72940547Y-115910579D01*
X72404166Y-115687854D01*
X71920400Y-115687432D01*
X71920400Y-109737825D01*
X72246866Y-110064862D01*
X72750915Y-110274161D01*
X73296691Y-110274638D01*
X73801104Y-110066218D01*
X74187362Y-109680634D01*
X74204484Y-109639400D01*
X80010000Y-109639400D01*
X80292000Y-109583307D01*
X80531067Y-109423567D01*
X81585234Y-108369400D01*
X87000891Y-108369400D01*
X86893339Y-108628415D01*
X86892862Y-109174191D01*
X87101282Y-109678604D01*
X87486866Y-110064862D01*
X87990915Y-110274161D01*
X88536691Y-110274638D01*
X89041104Y-110066218D01*
X89427362Y-109680634D01*
X89444484Y-109639400D01*
X89864766Y-109639400D01*
X90918933Y-110693567D01*
X91158001Y-110853307D01*
X91440000Y-110909400D01*
X100330000Y-110909400D01*
X100612000Y-110853307D01*
X100851067Y-110693567D01*
X101905234Y-109639400D01*
X107405083Y-109639400D01*
X107421282Y-109678604D01*
X107806866Y-110064862D01*
X108310915Y-110274161D01*
X108856691Y-110274638D01*
X109361104Y-110066218D01*
X109747362Y-109680634D01*
X109764484Y-109639400D01*
X110184766Y-109639400D01*
X111118863Y-110573497D01*
X110915138Y-110776866D01*
X110807494Y-111036102D01*
X110701218Y-110778896D01*
X110315634Y-110392638D01*
X109811585Y-110183339D01*
X109265809Y-110182862D01*
X108761396Y-110391282D01*
X108375138Y-110776866D01*
X108165839Y-111280915D01*
X108165362Y-111826691D01*
X108373782Y-112331104D01*
X108652790Y-112610600D01*
X87431732Y-112610600D01*
X87275549Y-112454144D01*
X86888153Y-112293283D01*
X86468687Y-112292917D01*
X86081011Y-112453102D01*
X85784144Y-112749451D01*
X85623283Y-113136847D01*
X85622917Y-113556313D01*
X85783102Y-113943989D01*
X86079451Y-114240856D01*
X86466847Y-114401717D01*
X86886313Y-114402083D01*
X87273989Y-114241898D01*
X87431762Y-114084400D01*
X116105337Y-114084400D01*
X116103283Y-114089347D01*
X116102917Y-114508813D01*
X116105721Y-114515600D01*
X110291732Y-114515600D01*
X110135549Y-114359144D01*
X109748153Y-114198283D01*
X109328687Y-114197917D01*
X108941011Y-114358102D01*
X108644144Y-114654451D01*
X108483283Y-115041847D01*
X108482917Y-115461313D01*
X108643102Y-115848989D01*
X108939451Y-116145856D01*
X109326847Y-116306717D01*
X109746313Y-116307083D01*
X110133989Y-116146898D01*
X110291762Y-115989400D01*
X121185337Y-115989400D01*
X121183283Y-115994347D01*
X121182917Y-116413813D01*
X121185721Y-116420600D01*
X120451732Y-116420600D01*
X120295549Y-116264144D01*
X119908153Y-116103283D01*
X119488687Y-116102917D01*
X119101011Y-116263102D01*
X118943238Y-116420600D01*
X107751732Y-116420600D01*
X107595549Y-116264144D01*
X107208153Y-116103283D01*
X106788687Y-116102917D01*
X106401011Y-116263102D01*
X106104144Y-116559451D01*
X105943283Y-116946847D01*
X105942917Y-117366313D01*
X106103102Y-117753989D01*
X106399451Y-118050856D01*
X106786847Y-118211717D01*
X107206313Y-118212083D01*
X107593989Y-118051898D01*
X107751762Y-117894400D01*
X116105337Y-117894400D01*
X116103283Y-117899347D01*
X116102917Y-118318813D01*
X116105721Y-118325600D01*
X115371732Y-118325600D01*
X115215549Y-118169144D01*
X114828153Y-118008283D01*
X114408687Y-118007917D01*
X114021011Y-118168102D01*
X113724144Y-118464451D01*
X113563283Y-118851847D01*
X113562917Y-119271313D01*
X113565721Y-119278100D01*
X112831732Y-119278100D01*
X112675549Y-119121644D01*
X112288153Y-118960783D01*
X111868687Y-118960417D01*
X111481011Y-119120602D01*
X111184144Y-119416951D01*
X111023283Y-119804347D01*
X111022917Y-120223813D01*
X111183102Y-120611489D01*
X111479451Y-120908356D01*
X111866847Y-121069217D01*
X112286313Y-121069583D01*
X112673989Y-120909398D01*
X112831762Y-120751900D01*
X130373268Y-120751900D01*
X130529451Y-120908356D01*
X130916847Y-121069217D01*
X131336313Y-121069583D01*
X131723989Y-120909398D01*
X131881762Y-120751900D01*
X142457837Y-120751900D01*
X142455783Y-120756847D01*
X142455417Y-121176313D01*
X142615602Y-121563989D01*
X142911951Y-121860856D01*
X143299347Y-122021717D01*
X143718813Y-122022083D01*
X143725513Y-122019315D01*
X143725417Y-122128813D01*
X143885602Y-122516489D01*
X144181951Y-122813356D01*
X144569347Y-122974217D01*
X144988813Y-122974583D01*
X145376489Y-122814398D01*
X145534262Y-122656900D01*
X146585337Y-122656900D01*
X146583283Y-122661847D01*
X146582917Y-123081313D01*
X146743102Y-123468989D01*
X147039451Y-123765856D01*
X147426847Y-123926717D01*
X147846313Y-123927083D01*
X148233989Y-123766898D01*
X148391762Y-123609400D01*
X149760337Y-123609400D01*
X149758283Y-123614347D01*
X149757917Y-124033813D01*
X149918102Y-124421489D01*
X150214451Y-124718356D01*
X150601847Y-124879217D01*
X151021313Y-124879583D01*
X151408989Y-124719398D01*
X151566762Y-124561900D01*
X152617837Y-124561900D01*
X152615783Y-124566847D01*
X152615417Y-124986313D01*
X152775602Y-125373989D01*
X153071951Y-125670856D01*
X153250586Y-125745032D01*
X153250417Y-125938813D01*
X153410602Y-126326489D01*
X153706951Y-126623356D01*
X153885586Y-126697532D01*
X153885417Y-126891313D01*
X154045602Y-127278989D01*
X154341951Y-127575856D01*
X154520586Y-127650032D01*
X154520417Y-127843813D01*
X154680602Y-128231489D01*
X154976951Y-128528356D01*
X155364347Y-128689217D01*
X155783813Y-128689583D01*
X156171489Y-128529398D01*
X156329262Y-128371900D01*
X156559675Y-128371900D01*
X156425783Y-128694347D01*
X156425417Y-129113813D01*
X156585602Y-129501489D01*
X156623853Y-129539807D01*
X156586644Y-129576951D01*
X156425783Y-129964347D01*
X156425417Y-130383813D01*
X156428185Y-130390513D01*
X156318687Y-130390417D01*
X156307886Y-130394880D01*
X156311717Y-130385653D01*
X156312083Y-129966187D01*
X156151898Y-129578511D01*
X155855549Y-129281644D01*
X155468153Y-129120783D01*
X155048687Y-129120417D01*
X154661011Y-129280602D01*
X154622693Y-129318853D01*
X154585549Y-129281644D01*
X154198153Y-129120783D01*
X153778687Y-129120417D01*
X153391011Y-129280602D01*
X153352693Y-129318853D01*
X153315549Y-129281644D01*
X152928153Y-129120783D01*
X152508687Y-129120417D01*
X152333652Y-129192740D01*
X152340856Y-129185549D01*
X152501717Y-128798153D01*
X152502083Y-128378687D01*
X152341898Y-127991011D01*
X152045549Y-127694144D01*
X151658153Y-127533283D01*
X151238687Y-127532917D01*
X150851011Y-127693102D01*
X150554144Y-127989451D01*
X150393283Y-128376847D01*
X150393088Y-128599778D01*
X150189766Y-128803100D01*
X145747570Y-128803100D01*
X145674398Y-128626011D01*
X145378049Y-128329144D01*
X144990653Y-128168283D01*
X144571187Y-128167917D01*
X144183511Y-128328102D01*
X143886644Y-128624451D01*
X143725783Y-129011847D01*
X143725417Y-129431313D01*
X143728221Y-129438100D01*
X142862734Y-129438100D01*
X136728567Y-123303933D01*
X136489500Y-123144193D01*
X136207500Y-123088100D01*
X135691732Y-123088100D01*
X135535549Y-122931644D01*
X135148153Y-122770783D01*
X134728687Y-122770417D01*
X134341011Y-122930602D01*
X134183238Y-123088100D01*
X128071732Y-123088100D01*
X127915549Y-122931644D01*
X127528153Y-122770783D01*
X127108687Y-122770417D01*
X126721011Y-122930602D01*
X126424144Y-123226951D01*
X126263283Y-123614347D01*
X126262917Y-124033813D01*
X126423102Y-124421489D01*
X126719451Y-124718356D01*
X127106847Y-124879217D01*
X127526313Y-124879583D01*
X127913989Y-124719398D01*
X128071762Y-124561900D01*
X128937175Y-124561900D01*
X128803283Y-124884347D01*
X128802917Y-125303813D01*
X128936910Y-125628100D01*
X128071732Y-125628100D01*
X127915549Y-125471644D01*
X127528153Y-125310783D01*
X127108687Y-125310417D01*
X126721011Y-125470602D01*
X126424144Y-125766951D01*
X126263283Y-126154347D01*
X126262917Y-126573813D01*
X126423102Y-126961489D01*
X126719451Y-127258356D01*
X127106847Y-127419217D01*
X127526313Y-127419583D01*
X127913989Y-127259398D01*
X128071762Y-127101900D01*
X128937175Y-127101900D01*
X128803283Y-127424347D01*
X128802917Y-127843813D01*
X128936910Y-128168100D01*
X128071732Y-128168100D01*
X127915549Y-128011644D01*
X127528153Y-127850783D01*
X127108687Y-127850417D01*
X126721011Y-128010602D01*
X126424144Y-128306951D01*
X126263283Y-128694347D01*
X126262917Y-129113813D01*
X126423102Y-129501489D01*
X126719451Y-129798356D01*
X127106847Y-129959217D01*
X127526313Y-129959583D01*
X127913989Y-129799398D01*
X128071762Y-129641900D01*
X128937175Y-129641900D01*
X128803283Y-129964347D01*
X128802917Y-130383813D01*
X128936910Y-130708100D01*
X128071732Y-130708100D01*
X127915549Y-130551644D01*
X127528153Y-130390783D01*
X127108687Y-130390417D01*
X126721011Y-130550602D01*
X126424144Y-130846951D01*
X126263283Y-131234347D01*
X126263266Y-131253632D01*
X125933567Y-130923933D01*
X125694500Y-130764193D01*
X125412500Y-130708100D01*
X105727500Y-130708100D01*
X105445501Y-130764193D01*
X105323815Y-130845501D01*
X105206433Y-130923933D01*
X101294766Y-134835600D01*
X88570234Y-134835600D01*
X86461890Y-132727256D01*
X86462083Y-132506187D01*
X86301898Y-132118511D01*
X86005549Y-131821644D01*
X85618153Y-131660783D01*
X85198687Y-131660417D01*
X84811011Y-131820602D01*
X84514144Y-132116951D01*
X84353283Y-132504347D01*
X84352989Y-132840855D01*
X84239390Y-132727256D01*
X84239583Y-132506187D01*
X84079398Y-132118511D01*
X83783049Y-131821644D01*
X83395653Y-131660783D01*
X82976187Y-131660417D01*
X82588511Y-131820602D01*
X82325394Y-132083260D01*
X82118567Y-131876433D01*
X81879500Y-131716693D01*
X81597500Y-131660600D01*
X69345831Y-131660600D01*
X69348204Y-131655806D01*
X68155000Y-130462602D01*
X66961796Y-131655806D01*
X66964169Y-131660600D01*
X64770000Y-131660600D01*
X64634511Y-131687550D01*
X64498658Y-131712376D01*
X64493742Y-131715551D01*
X64488001Y-131716693D01*
X64373151Y-131793433D01*
X64257127Y-131868366D01*
X63446550Y-132654032D01*
X63046559Y-132487941D01*
X62266862Y-132487260D01*
X61546256Y-132785009D01*
X60994446Y-133335856D01*
X60695441Y-134055941D01*
X60694760Y-134835638D01*
X60992509Y-135556244D01*
X61543356Y-136108054D01*
X62263441Y-136407059D01*
X63043138Y-136407740D01*
X63763744Y-136109991D01*
X64315554Y-135559144D01*
X64614559Y-134839059D01*
X64615240Y-134059362D01*
X64471968Y-133712618D01*
X65068519Y-133134400D01*
X66696254Y-133134400D01*
X66494446Y-133335856D01*
X66195441Y-134055941D01*
X66194760Y-134835638D01*
X66492509Y-135556244D01*
X67043356Y-136108054D01*
X67763441Y-136407059D01*
X68543138Y-136407740D01*
X69263744Y-136109991D01*
X69815554Y-135559144D01*
X70114559Y-134839059D01*
X70115240Y-134059362D01*
X69995430Y-133769400D01*
X71226244Y-133769400D01*
X70875579Y-134119453D01*
X70652854Y-134655834D01*
X70652347Y-135236618D01*
X70874135Y-135773386D01*
X71284453Y-136184421D01*
X71820834Y-136407146D01*
X72401618Y-136407653D01*
X72938386Y-136185865D01*
X73349421Y-135775547D01*
X73572146Y-135239166D01*
X73572653Y-134658382D01*
X73350865Y-134121614D01*
X72999265Y-133769400D01*
X76226244Y-133769400D01*
X75875579Y-134119453D01*
X75652854Y-134655834D01*
X75652347Y-135236618D01*
X75874135Y-135773386D01*
X76284453Y-136184421D01*
X76375600Y-136222269D01*
X76375600Y-136802500D01*
X76431693Y-137084500D01*
X76591433Y-137323567D01*
X78218933Y-138951067D01*
X78458000Y-139110807D01*
X78740000Y-139166900D01*
X83383268Y-139166900D01*
X83539451Y-139323356D01*
X83926847Y-139484217D01*
X84346313Y-139484583D01*
X84733989Y-139324398D01*
X84891762Y-139166900D01*
X86803466Y-139166900D01*
X86372256Y-139598110D01*
X86151187Y-139597917D01*
X85763511Y-139758102D01*
X85466644Y-140054451D01*
X85305783Y-140441847D01*
X85305417Y-140861313D01*
X85465602Y-141248989D01*
X85761951Y-141545856D01*
X86149347Y-141706717D01*
X86568813Y-141707083D01*
X86956489Y-141546898D01*
X87253356Y-141250549D01*
X87414217Y-140863153D01*
X87414412Y-140640222D01*
X87935234Y-140119400D01*
X95130768Y-140119400D01*
X95286951Y-140275856D01*
X95674347Y-140436717D01*
X95897278Y-140436912D01*
X96633933Y-141173567D01*
X96873001Y-141333307D01*
X97155000Y-141389400D01*
X103385768Y-141389400D01*
X103541951Y-141545856D01*
X103929347Y-141706717D01*
X104348813Y-141707083D01*
X104736489Y-141546898D01*
X105033356Y-141250549D01*
X105194217Y-140863153D01*
X105194583Y-140443687D01*
X105060590Y-140119400D01*
X106374766Y-140119400D01*
X107428933Y-141173567D01*
X107668001Y-141333307D01*
X107950000Y-141389400D01*
X111005768Y-141389400D01*
X111161951Y-141545856D01*
X111549347Y-141706717D01*
X111968813Y-141707083D01*
X112356489Y-141546898D01*
X112653356Y-141250549D01*
X112814217Y-140863153D01*
X112814583Y-140443687D01*
X112811779Y-140436900D01*
X116740337Y-140436900D01*
X116738283Y-140441847D01*
X116737917Y-140861313D01*
X116898102Y-141248989D01*
X117194451Y-141545856D01*
X117581847Y-141706717D01*
X118001313Y-141707083D01*
X118388989Y-141546898D01*
X118546762Y-141389400D01*
X144043010Y-141389400D01*
X144042917Y-141496313D01*
X144203102Y-141883989D01*
X144499451Y-142180856D01*
X144581920Y-142215100D01*
X53047400Y-142215100D01*
X53047400Y-138897354D01*
X54472191Y-138897354D01*
X54830708Y-139765029D01*
X55493979Y-140429459D01*
X56361028Y-140789489D01*
X57299854Y-140790309D01*
X58167529Y-140431792D01*
X58831959Y-139768521D01*
X58903990Y-139595050D01*
X60854709Y-139595050D01*
X61198033Y-140425958D01*
X61833198Y-141062233D01*
X62663506Y-141407007D01*
X63562550Y-141407791D01*
X64393458Y-141064467D01*
X65029733Y-140429302D01*
X65374507Y-139598994D01*
X65375291Y-138699950D01*
X65031967Y-137869042D01*
X64396802Y-137232767D01*
X63566494Y-136887993D01*
X62667450Y-136887209D01*
X61836542Y-137230533D01*
X61200267Y-137865698D01*
X60855493Y-138696006D01*
X60854709Y-139595050D01*
X58903990Y-139595050D01*
X59191989Y-138901472D01*
X59192809Y-137962646D01*
X58834292Y-137094971D01*
X58171021Y-136430541D01*
X57303972Y-136070511D01*
X56365146Y-136069691D01*
X55497471Y-136428208D01*
X54833041Y-137091479D01*
X54473011Y-137958528D01*
X54472191Y-138897354D01*
X53047400Y-138897354D01*
X53047400Y-131655806D01*
X61461796Y-131655806D01*
X61606890Y-131948868D01*
X62337758Y-132220454D01*
X63116923Y-132191675D01*
X63703110Y-131948868D01*
X63848204Y-131655806D01*
X62655000Y-130462602D01*
X61461796Y-131655806D01*
X53047400Y-131655806D01*
X53047400Y-129930258D01*
X60682046Y-129930258D01*
X60710825Y-130709423D01*
X60953632Y-131295610D01*
X61246694Y-131440704D01*
X62439898Y-130247500D01*
X62870102Y-130247500D01*
X64063306Y-131440704D01*
X64356368Y-131295610D01*
X64627954Y-130564742D01*
X64604519Y-129930258D01*
X66182046Y-129930258D01*
X66210825Y-130709423D01*
X66453632Y-131295610D01*
X66746694Y-131440704D01*
X67939898Y-130247500D01*
X68370102Y-130247500D01*
X69563306Y-131440704D01*
X69856368Y-131295610D01*
X70127954Y-130564742D01*
X70099175Y-129785577D01*
X69856368Y-129199390D01*
X69563306Y-129054296D01*
X68370102Y-130247500D01*
X67939898Y-130247500D01*
X66746694Y-129054296D01*
X66453632Y-129199390D01*
X66182046Y-129930258D01*
X64604519Y-129930258D01*
X64599175Y-129785577D01*
X64356368Y-129199390D01*
X64063306Y-129054296D01*
X62870102Y-130247500D01*
X62439898Y-130247500D01*
X61246694Y-129054296D01*
X60953632Y-129199390D01*
X60682046Y-129930258D01*
X53047400Y-129930258D01*
X53047400Y-128839194D01*
X61461796Y-128839194D01*
X62655000Y-130032398D01*
X63848204Y-128839194D01*
X66961796Y-128839194D01*
X68155000Y-130032398D01*
X69348204Y-128839194D01*
X69203110Y-128546132D01*
X69021948Y-128478813D01*
X88797917Y-128478813D01*
X88958102Y-128866489D01*
X89254451Y-129163356D01*
X89641847Y-129324217D01*
X89864778Y-129324412D01*
X90649570Y-130109204D01*
X90546644Y-130211951D01*
X90385783Y-130599347D01*
X90385417Y-131018813D01*
X90545602Y-131406489D01*
X90841951Y-131703356D01*
X91229347Y-131864217D01*
X91648813Y-131864583D01*
X92036489Y-131704398D01*
X92333356Y-131408049D01*
X92494217Y-131020653D01*
X92494583Y-130601187D01*
X92334398Y-130213511D01*
X92176900Y-130055738D01*
X92176900Y-129857500D01*
X92156631Y-129755600D01*
X92120807Y-129575500D01*
X91961067Y-129336433D01*
X90906890Y-128282256D01*
X90907083Y-128061187D01*
X90746898Y-127673511D01*
X90450549Y-127376644D01*
X90063153Y-127215783D01*
X89643687Y-127215417D01*
X89256011Y-127375602D01*
X88959144Y-127671951D01*
X88798283Y-128059347D01*
X88797917Y-128478813D01*
X69021948Y-128478813D01*
X68472242Y-128274546D01*
X67693077Y-128303325D01*
X67106890Y-128546132D01*
X66961796Y-128839194D01*
X63848204Y-128839194D01*
X63703110Y-128546132D01*
X62972242Y-128274546D01*
X62193077Y-128303325D01*
X61606890Y-128546132D01*
X61461796Y-128839194D01*
X53047400Y-128839194D01*
X53047400Y-127455806D01*
X61461796Y-127455806D01*
X61606890Y-127748868D01*
X62337758Y-128020454D01*
X63116923Y-127991675D01*
X63703110Y-127748868D01*
X63848204Y-127455806D01*
X66961796Y-127455806D01*
X67106890Y-127748868D01*
X67837758Y-128020454D01*
X68616923Y-127991675D01*
X69203110Y-127748868D01*
X69348204Y-127455806D01*
X68155000Y-126262602D01*
X66961796Y-127455806D01*
X63848204Y-127455806D01*
X62655000Y-126262602D01*
X61461796Y-127455806D01*
X53047400Y-127455806D01*
X53047400Y-125730258D01*
X60682046Y-125730258D01*
X60710825Y-126509423D01*
X60953632Y-127095610D01*
X61246694Y-127240704D01*
X62439898Y-126047500D01*
X62870102Y-126047500D01*
X64063306Y-127240704D01*
X64356368Y-127095610D01*
X64627954Y-126364742D01*
X64604519Y-125730258D01*
X66182046Y-125730258D01*
X66210825Y-126509423D01*
X66453632Y-127095610D01*
X66746694Y-127240704D01*
X67939898Y-126047500D01*
X68370102Y-126047500D01*
X69563306Y-127240704D01*
X69856368Y-127095610D01*
X70127954Y-126364742D01*
X70099175Y-125585577D01*
X69856368Y-124999390D01*
X69563306Y-124854296D01*
X68370102Y-126047500D01*
X67939898Y-126047500D01*
X66746694Y-124854296D01*
X66453632Y-124999390D01*
X66182046Y-125730258D01*
X64604519Y-125730258D01*
X64599175Y-125585577D01*
X64356368Y-124999390D01*
X64063306Y-124854296D01*
X62870102Y-126047500D01*
X62439898Y-126047500D01*
X61246694Y-124854296D01*
X60953632Y-124999390D01*
X60682046Y-125730258D01*
X53047400Y-125730258D01*
X53047400Y-124639194D01*
X61461796Y-124639194D01*
X62655000Y-125832398D01*
X63848204Y-124639194D01*
X66961796Y-124639194D01*
X68155000Y-125832398D01*
X69348204Y-124639194D01*
X69203110Y-124346132D01*
X68472242Y-124074546D01*
X67693077Y-124103325D01*
X67106890Y-124346132D01*
X66961796Y-124639194D01*
X63848204Y-124639194D01*
X63703110Y-124346132D01*
X62972242Y-124074546D01*
X62193077Y-124103325D01*
X61606890Y-124346132D01*
X61461796Y-124639194D01*
X53047400Y-124639194D01*
X53047400Y-83017354D01*
X54472191Y-83017354D01*
X54830708Y-83885029D01*
X55493979Y-84549459D01*
X56361028Y-84909489D01*
X57299854Y-84910309D01*
X58167529Y-84551792D01*
X58831959Y-83888521D01*
X59191989Y-83021472D01*
X59192359Y-82597550D01*
X60854709Y-82597550D01*
X61198033Y-83428458D01*
X61833198Y-84064733D01*
X62663506Y-84409507D01*
X63562550Y-84410291D01*
X64183032Y-84153913D01*
X234864015Y-84153913D01*
X235585000Y-84874898D01*
X236305985Y-84153913D01*
X236240960Y-83928381D01*
X235746496Y-83765779D01*
X235227446Y-83804777D01*
X234929040Y-83928381D01*
X234864015Y-84153913D01*
X64183032Y-84153913D01*
X64393458Y-84066967D01*
X65029733Y-83431802D01*
X65201826Y-83017354D01*
X245289691Y-83017354D01*
X245648208Y-83885029D01*
X246311479Y-84549459D01*
X247178528Y-84909489D01*
X248117354Y-84910309D01*
X248985029Y-84551792D01*
X249649459Y-83888521D01*
X250009489Y-83021472D01*
X250010309Y-82082646D01*
X249651792Y-81214971D01*
X248988521Y-80550541D01*
X248121472Y-80190511D01*
X247182646Y-80189691D01*
X246314971Y-80548208D01*
X245650541Y-81211479D01*
X245290511Y-82078528D01*
X245289691Y-83017354D01*
X65201826Y-83017354D01*
X65374507Y-82601494D01*
X65375291Y-81702450D01*
X65031967Y-80871542D01*
X64396802Y-80235267D01*
X63566494Y-79890493D01*
X62667450Y-79889709D01*
X61836542Y-80233033D01*
X61200267Y-80868198D01*
X60855493Y-81698506D01*
X60854709Y-82597550D01*
X59192359Y-82597550D01*
X59192809Y-82082646D01*
X58834292Y-81214971D01*
X58171021Y-80550541D01*
X57303972Y-80190511D01*
X56365146Y-80189691D01*
X55497471Y-80548208D01*
X54833041Y-81211479D01*
X54473011Y-82078528D01*
X54472191Y-83017354D01*
X53047400Y-83017354D01*
X53047400Y-78764900D01*
X251422600Y-78764900D01*
X251422600Y-142215100D01*
G36*
X236478671Y-130290465D02*
X236787592Y-130496879D01*
X236417355Y-130802086D01*
X236139301Y-131325043D01*
X236132512Y-131377206D01*
X236243561Y-131610400D01*
X238290400Y-131610400D01*
X238290400Y-131590400D01*
X238594600Y-131590400D01*
X238594600Y-131610400D01*
X238614600Y-131610400D01*
X238614600Y-131914600D01*
X238594600Y-131914600D01*
X238594600Y-131934600D01*
X238290400Y-131934600D01*
X238290400Y-131914600D01*
X236243561Y-131914600D01*
X236132512Y-132147794D01*
X236139301Y-132199957D01*
X236417355Y-132722914D01*
X236787592Y-133028121D01*
X236478671Y-133234535D01*
X236151273Y-133724522D01*
X236036306Y-134302500D01*
X236151273Y-134880478D01*
X236478671Y-135370465D01*
X236968658Y-135697863D01*
X237546636Y-135812830D01*
X239338364Y-135812830D01*
X239393504Y-135801862D01*
X234644766Y-140550600D01*
X234637864Y-140550600D01*
X234890856Y-140298049D01*
X235051717Y-139910653D01*
X235051812Y-139801990D01*
X235158813Y-139802083D01*
X235546489Y-139641898D01*
X235843356Y-139345549D01*
X236004217Y-138958153D01*
X236004583Y-138538687D01*
X235844398Y-138151011D01*
X235548049Y-137854144D01*
X235371358Y-137780776D01*
X235471067Y-137681067D01*
X235567567Y-137536644D01*
X235630807Y-137441999D01*
X235686900Y-137160000D01*
X235686900Y-130480234D01*
X236207734Y-129959400D01*
X236257461Y-129959400D01*
X236478671Y-130290465D01*
X236478671Y-130290465D01*
G37*
X236478671Y-130290465D02*
X236787592Y-130496879D01*
X236417355Y-130802086D01*
X236139301Y-131325043D01*
X236132512Y-131377206D01*
X236243561Y-131610400D01*
X238290400Y-131610400D01*
X238290400Y-131590400D01*
X238594600Y-131590400D01*
X238594600Y-131610400D01*
X238614600Y-131610400D01*
X238614600Y-131914600D01*
X238594600Y-131914600D01*
X238594600Y-131934600D01*
X238290400Y-131934600D01*
X238290400Y-131914600D01*
X236243561Y-131914600D01*
X236132512Y-132147794D01*
X236139301Y-132199957D01*
X236417355Y-132722914D01*
X236787592Y-133028121D01*
X236478671Y-133234535D01*
X236151273Y-133724522D01*
X236036306Y-134302500D01*
X236151273Y-134880478D01*
X236478671Y-135370465D01*
X236968658Y-135697863D01*
X237546636Y-135812830D01*
X239338364Y-135812830D01*
X239393504Y-135801862D01*
X234644766Y-140550600D01*
X234637864Y-140550600D01*
X234890856Y-140298049D01*
X235051717Y-139910653D01*
X235051812Y-139801990D01*
X235158813Y-139802083D01*
X235546489Y-139641898D01*
X235843356Y-139345549D01*
X236004217Y-138958153D01*
X236004583Y-138538687D01*
X235844398Y-138151011D01*
X235548049Y-137854144D01*
X235371358Y-137780776D01*
X235471067Y-137681067D01*
X235567567Y-137536644D01*
X235630807Y-137441999D01*
X235686900Y-137160000D01*
X235686900Y-130480234D01*
X236207734Y-129959400D01*
X236257461Y-129959400D01*
X236478671Y-130290465D01*
G36*
X108165839Y-133280915D02*
X108165362Y-133826691D01*
X108373782Y-134331104D01*
X108759366Y-134717362D01*
X109263415Y-134926661D01*
X109809191Y-134927138D01*
X110313604Y-134718718D01*
X110699862Y-134333134D01*
X110807506Y-134073898D01*
X110913782Y-134331104D01*
X111299366Y-134717362D01*
X111803415Y-134926661D01*
X112349191Y-134927138D01*
X112853604Y-134718718D01*
X113239862Y-134333134D01*
X113347506Y-134073898D01*
X113453782Y-134331104D01*
X113839366Y-134717362D01*
X114343415Y-134926661D01*
X114889191Y-134927138D01*
X115393604Y-134718718D01*
X115779862Y-134333134D01*
X115887506Y-134073898D01*
X115993782Y-134331104D01*
X116379366Y-134717362D01*
X116883415Y-134926661D01*
X117429191Y-134927138D01*
X117933604Y-134718718D01*
X118319862Y-134333134D01*
X118427506Y-134073898D01*
X118533782Y-134331104D01*
X118919366Y-134717362D01*
X119423415Y-134926661D01*
X119969191Y-134927138D01*
X120473604Y-134718718D01*
X120859862Y-134333134D01*
X120967506Y-134073898D01*
X121073782Y-134331104D01*
X121459366Y-134717362D01*
X121963415Y-134926661D01*
X122509191Y-134927138D01*
X123013604Y-134718718D01*
X123399862Y-134333134D01*
X123609161Y-133829085D01*
X123609638Y-133283309D01*
X123416921Y-132816900D01*
X124789766Y-132816900D01*
X130923933Y-138951067D01*
X130941942Y-138963100D01*
X108255234Y-138963100D01*
X107201067Y-137908933D01*
X106962000Y-137749193D01*
X106680000Y-137693100D01*
X104894232Y-137693100D01*
X104738049Y-137536644D01*
X104350653Y-137375783D01*
X104127722Y-137375588D01*
X104026067Y-137273933D01*
X103787000Y-137114193D01*
X103505000Y-137058100D01*
X102103058Y-137058100D01*
X102121067Y-137046067D01*
X106350234Y-132816900D01*
X108358514Y-132816900D01*
X108165839Y-133280915D01*
X108165839Y-133280915D01*
G37*
X108165839Y-133280915D02*
X108165362Y-133826691D01*
X108373782Y-134331104D01*
X108759366Y-134717362D01*
X109263415Y-134926661D01*
X109809191Y-134927138D01*
X110313604Y-134718718D01*
X110699862Y-134333134D01*
X110807506Y-134073898D01*
X110913782Y-134331104D01*
X111299366Y-134717362D01*
X111803415Y-134926661D01*
X112349191Y-134927138D01*
X112853604Y-134718718D01*
X113239862Y-134333134D01*
X113347506Y-134073898D01*
X113453782Y-134331104D01*
X113839366Y-134717362D01*
X114343415Y-134926661D01*
X114889191Y-134927138D01*
X115393604Y-134718718D01*
X115779862Y-134333134D01*
X115887506Y-134073898D01*
X115993782Y-134331104D01*
X116379366Y-134717362D01*
X116883415Y-134926661D01*
X117429191Y-134927138D01*
X117933604Y-134718718D01*
X118319862Y-134333134D01*
X118427506Y-134073898D01*
X118533782Y-134331104D01*
X118919366Y-134717362D01*
X119423415Y-134926661D01*
X119969191Y-134927138D01*
X120473604Y-134718718D01*
X120859862Y-134333134D01*
X120967506Y-134073898D01*
X121073782Y-134331104D01*
X121459366Y-134717362D01*
X121963415Y-134926661D01*
X122509191Y-134927138D01*
X123013604Y-134718718D01*
X123399862Y-134333134D01*
X123609161Y-133829085D01*
X123609638Y-133283309D01*
X123416921Y-132816900D01*
X124789766Y-132816900D01*
X130923933Y-138951067D01*
X130941942Y-138963100D01*
X108255234Y-138963100D01*
X107201067Y-137908933D01*
X106962000Y-137749193D01*
X106680000Y-137693100D01*
X104894232Y-137693100D01*
X104738049Y-137536644D01*
X104350653Y-137375783D01*
X104127722Y-137375588D01*
X104026067Y-137273933D01*
X103787000Y-137114193D01*
X103505000Y-137058100D01*
X102103058Y-137058100D01*
X102121067Y-137046067D01*
X106350234Y-132816900D01*
X108358514Y-132816900D01*
X108165839Y-133280915D01*
G36*
X82130610Y-135242744D02*
X82130417Y-135463813D01*
X82290602Y-135851489D01*
X82586951Y-136148356D01*
X82974347Y-136309217D01*
X83393813Y-136309583D01*
X83718100Y-136175590D01*
X83718100Y-137160000D01*
X83773688Y-137439461D01*
X83541011Y-137535602D01*
X83383238Y-137693100D01*
X79045234Y-137693100D01*
X77849400Y-136497266D01*
X77849400Y-136222633D01*
X77938386Y-136185865D01*
X78349421Y-135775547D01*
X78572146Y-135239166D01*
X78572653Y-134658382D01*
X78350865Y-134121614D01*
X77999265Y-133769400D01*
X80657266Y-133769400D01*
X82130610Y-135242744D01*
X82130610Y-135242744D01*
G37*
X82130610Y-135242744D02*
X82130417Y-135463813D01*
X82290602Y-135851489D01*
X82586951Y-136148356D01*
X82974347Y-136309217D01*
X83393813Y-136309583D01*
X83718100Y-136175590D01*
X83718100Y-137160000D01*
X83773688Y-137439461D01*
X83541011Y-137535602D01*
X83383238Y-137693100D01*
X79045234Y-137693100D01*
X77849400Y-136497266D01*
X77849400Y-136222633D01*
X77938386Y-136185865D01*
X78349421Y-135775547D01*
X78572146Y-135239166D01*
X78572653Y-134658382D01*
X78350865Y-134121614D01*
X77999265Y-133769400D01*
X80657266Y-133769400D01*
X82130610Y-135242744D01*
G36*
X85196847Y-133769217D02*
X85419778Y-133769412D01*
X87438466Y-135788100D01*
X86161732Y-135788100D01*
X86005549Y-135631644D01*
X85618153Y-135470783D01*
X85198687Y-135470417D01*
X85191900Y-135473221D01*
X85191900Y-133985000D01*
X85144668Y-133747551D01*
X85196847Y-133769217D01*
X85196847Y-133769217D01*
G37*
X85196847Y-133769217D02*
X85419778Y-133769412D01*
X87438466Y-135788100D01*
X86161732Y-135788100D01*
X86005549Y-135631644D01*
X85618153Y-135470783D01*
X85198687Y-135470417D01*
X85191900Y-135473221D01*
X85191900Y-133985000D01*
X85144668Y-133747551D01*
X85196847Y-133769217D01*
M02*
