M48
INCH,TZ
T1C0.025
T2C0.030
T3C0.032
T4C0.040
T5C0.046
T6C0.047
T7C0.071
T8C0.118
T9C0.138
%
G90
G05
T1
X31250Y-53750
X32375Y-46875
X32375Y-48125
X32375Y-49375
X32375Y-50625
X32750Y-52250
X32750Y-52750
X32750Y-53250
X33125Y-54500
X33625Y-52250
X33625Y-53000
X33625Y-53750
X34000Y-55375
X34125Y-44625
X35375Y-48250
X35375Y-50500
X35625Y-45875
X36000Y-51500
X36875Y-50375
X37250Y-45875
X37750Y-54875
X37750Y-55375
X38125Y-45000
X38125Y-46875
X38125Y-48125
X38125Y-49375
X38125Y-50625
X39875Y-46250
X41000Y-53625
X41000Y-54500
X41000Y-55375
X42125Y-46125
X43125Y-45375
X43500Y-40375
X44000Y-55375
X44125Y-47250
X45125Y-46875
X46125Y-45000
X46125Y-46500
X46375Y-55375
X47125Y-44625
X47125Y-46125
X48125Y-45750
X50125Y-48750
X50125Y-49750
X50125Y-50750
X50125Y-51750
X51125Y-49250
X51125Y-50250
X51125Y-51250
X51125Y-52250
X51500Y-43875
X51625Y-47250
X52375Y-55000
X53125Y-48750
X53125Y-49250
X53125Y-49750
X53125Y-50250
X53125Y-50750
X53125Y-51250
X53125Y-51750
X53125Y-52250
X54000Y-44125
X55250Y-43750
X56500Y-47625
X57000Y-48000
X57000Y-50875
X57125Y-53625
X57125Y-55625
X58125Y-48375
X58250Y-55000
X59375Y-45375
X59375Y-48750
X59625Y-50625
X59875Y-55000
X60125Y-51250
X60250Y-55250
X60375Y-44125
X60500Y-49125
X60625Y-51250
X60750Y-49500
X61000Y-49875
X61000Y-53250
X61125Y-51250
X61125Y-51750
X61125Y-52250
X61250Y-50250
X61500Y-53250
X61500Y-54125
X61625Y-51750
X62000Y-50750
X62000Y-51250
X62000Y-54125
X62250Y-43750
X62750Y-55750
X63625Y-52375
X63625Y-52875
X64375Y-53500
X65500Y-50625
X66125Y-45750
X71375Y-45375
X72375Y-47250
X73375Y-46875
X74250Y-42375
X74375Y-45000
X74375Y-46500
X75375Y-44625
X75375Y-46125
X76375Y-45750
X77375Y-46500
X78000Y-47625
X78250Y-48125
X78625Y-47250
X79750Y-47625
X80000Y-48500
X80875Y-45000
X81500Y-47625
X81750Y-48875
X82125Y-46875
X82625Y-45750
X83250Y-47625
X83500Y-49250
X84375Y-46125
X85000Y-47625
X85250Y-49625
X86125Y-46875
X86750Y-47625
X87000Y-50000
X87875Y-45375
X88500Y-47625
X88750Y-50375
X89625Y-44625
X90125Y-45000
X90250Y-47625
X90500Y-50750
X91750Y-55250
X92125Y-55000
X92500Y-54625
T2
X28750Y-34875
X28750Y-35875
X28750Y-36875
X28750Y-37875
X28750Y-38875
X28750Y-39875
X28750Y-40875
X28750Y-41875
X28750Y-42875
X34750Y-34875
X34750Y-35875
X34750Y-36875
X34750Y-37875
X34750Y-38875
X34750Y-39875
X34750Y-40875
X34750Y-41875
X34750Y-42875
X36750Y-34875
X36750Y-35875
X36750Y-36875
X36750Y-37875
X36750Y-38875
X36750Y-39875
X36750Y-40875
X36750Y-41875
X36750Y-42875
X42750Y-34875
X42750Y-35875
X42750Y-36875
X42750Y-37875
X42750Y-38875
X42750Y-39875
X42750Y-40875
X42750Y-41875
X42750Y-42875
X43125Y-43919
X43125Y-52581
X44125Y-43919
X44125Y-52581
X44750Y-34875
X44750Y-35875
X44750Y-36875
X44750Y-37875
X44750Y-38875
X44750Y-39875
X44750Y-40875
X44750Y-41875
X44750Y-42875
X45125Y-43919
X45125Y-52581
X46125Y-43919
X46125Y-52581
X47125Y-43919
X47125Y-52581
X48125Y-43919
X48125Y-52581
X50750Y-34875
X50750Y-35875
X50750Y-36875
X50750Y-37875
X50750Y-38875
X50750Y-39875
X50750Y-40875
X50750Y-41875
X50750Y-42875
X52750Y-34875
X52750Y-35875
X52750Y-36875
X52750Y-37875
X52750Y-38875
X52750Y-39875
X52750Y-40875
X52750Y-41875
X52750Y-42875
X58750Y-34875
X58750Y-35875
X58750Y-36875
X58750Y-37875
X58750Y-38875
X58750Y-39875
X58750Y-40875
X58750Y-41875
X58750Y-42875
X60750Y-34875
X60750Y-35875
X60750Y-36875
X60750Y-37875
X60750Y-38875
X60750Y-39875
X60750Y-40875
X60750Y-41875
X60750Y-42875
X66750Y-34875
X66750Y-35875
X66750Y-36875
X66750Y-37875
X66750Y-38875
X66750Y-39875
X66750Y-40875
X66750Y-41875
X66750Y-42875
X68750Y-34875
X68750Y-35875
X68750Y-36875
X68750Y-37875
X68750Y-38875
X68750Y-39875
X68750Y-40875
X68750Y-41875
X68750Y-42875
X71375Y-43919
X71375Y-52581
X72375Y-43919
X72375Y-52581
X73375Y-43919
X73375Y-52581
X74375Y-43919
X74375Y-52581
X74750Y-34875
X74750Y-35875
X74750Y-36875
X74750Y-37875
X74750Y-38875
X74750Y-39875
X74750Y-40875
X74750Y-41875
X74750Y-42875
X75375Y-43919
X75375Y-52581
X76375Y-43919
X76375Y-52581
X76750Y-34875
X76750Y-35875
X76750Y-36875
X76750Y-37875
X76750Y-38875
X76750Y-39875
X76750Y-40875
X76750Y-41875
X76750Y-42875
X82750Y-34875
X82750Y-35875
X82750Y-36875
X82750Y-37875
X82750Y-38875
X82750Y-39875
X82750Y-40875
X82750Y-41875
X82750Y-42875
X84750Y-34875
X84750Y-35875
X84750Y-36875
X84750Y-37875
X84750Y-38875
X84750Y-39875
X84750Y-40875
X84750Y-41875
X84750Y-42875
X90750Y-34875
X90750Y-35875
X90750Y-36875
X90750Y-37875
X90750Y-38875
X90750Y-39875
X90750Y-40875
X90750Y-41875
X90750Y-42875
T3
X92750Y-33500
X92750Y-36500
X92750Y-37375
X92750Y-40375
X94750Y-33500
X94750Y-36500
X94750Y-37375
X94750Y-40375
T4
X93750Y-42000
X93750Y-43000
X93750Y-44000
X93750Y-45000
X93750Y-46000
X93750Y-47000
T5
X28391Y-46121
X28391Y-53129
X30359Y-46121
X30359Y-53129
T6
X93875Y-49875
X93875Y-50875
X93875Y-51875
X93875Y-52875
T7
X24667Y-34193
X24667Y-35846
X24667Y-37500
X24667Y-39154
X24667Y-40807
X24667Y-46318
X24667Y-47971
X24667Y-49625
X24667Y-51279
X24667Y-52932
X26833Y-34193
X26833Y-35846
X26833Y-37500
X26833Y-39154
X26833Y-40807
X26833Y-46318
X26833Y-47971
X26833Y-49625
X26833Y-51279
X26833Y-52932
T8
X24848Y-32343
X24848Y-42657
X24848Y-44468
X24848Y-54782
T9
X22375Y-32500
X22375Y-54500
X97500Y-32500
X97500Y-54500
T0
M30
